<mxfile host="drawio-plugin" modified="2023-07-30T20:28:01.734Z" agent="5.0 (Macintosh; Intel Mac OS X 10_15_7) AppleWebKit/537.36 (KHTML, like Gecko) Chrome/104.0.5112.102 Safari/537.36" etag="3C5ZyiDt6j6sLnd2xcNA" version="20.5.3" type="embed"><diagram id="C5RBs43oDa-KdzZeNtuy" name="Page-1"><mxGraphModel dx="623" dy="536" grid="1" gridSize="10" guides="1" tooltips="1" connect="1" arrows="1" fold="1" page="1" pageScale="1" pageWidth="827" pageHeight="1169" math="0" shadow="0"><root><mxCell id="WIyWlLk6GJQsqaUBKTNV-0"/><mxCell id="WIyWlLk6GJQsqaUBKTNV-1" parent="WIyWlLk6GJQsqaUBKTNV-0"/><mxCell id="zkfFHV4jXpPFQw0GAbJ--0" value="Person" style="swimlane;fontStyle=2;align=center;verticalAlign=top;childLayout=stackLayout;horizontal=1;startSize=26;horizontalStack=0;resizeParent=1;resizeLast=0;collapsible=1;marginBottom=0;rounded=0;shadow=0;strokeWidth=1;" parent="WIyWlLk6GJQsqaUBKTNV-1" vertex="1"><mxGeometry x="970" y="90" width="160" height="138" as="geometry"><mxRectangle x="230" y="140" width="160" height="26" as="alternateBounds"/></mxGeometry></mxCell><mxCell id="zkfFHV4jXpPFQw0GAbJ--1" value="Name" style="text;align=left;verticalAlign=top;spacingLeft=4;spacingRight=4;overflow=hidden;rotatable=0;points=[[0,0.5],[1,0.5]];portConstraint=eastwest;" parent="zkfFHV4jXpPFQw0GAbJ--0" vertex="1"><mxGeometry y="26" width="160" height="26" as="geometry"/></mxCell><mxCell id="zkfFHV4jXpPFQw0GAbJ--2" value="Phone Number" style="text;align=left;verticalAlign=top;spacingLeft=4;spacingRight=4;overflow=hidden;rotatable=0;points=[[0,0.5],[1,0.5]];portConstraint=eastwest;rounded=0;shadow=0;html=0;" parent="zkfFHV4jXpPFQw0GAbJ--0" vertex="1"><mxGeometry y="52" width="160" height="26" as="geometry"/></mxCell><mxCell id="zkfFHV4jXpPFQw0GAbJ--3" value="Email Address" style="text;align=left;verticalAlign=top;spacingLeft=4;spacingRight=4;overflow=hidden;rotatable=0;points=[[0,0.5],[1,0.5]];portConstraint=eastwest;rounded=0;shadow=0;html=0;" parent="zkfFHV4jXpPFQw0GAbJ--0" vertex="1"><mxGeometry y="78" width="160" height="26" as="geometry"/></mxCell><mxCell id="zkfFHV4jXpPFQw0GAbJ--4" value="" style="line;html=1;strokeWidth=1;align=left;verticalAlign=middle;spacingTop=-1;spacingLeft=3;spacingRight=3;rotatable=0;labelPosition=right;points=[];portConstraint=eastwest;" parent="zkfFHV4jXpPFQw0GAbJ--0" vertex="1"><mxGeometry y="104" width="160" height="8" as="geometry"/></mxCell><mxCell id="zkfFHV4jXpPFQw0GAbJ--5" value="Purchase Parking Pass" style="text;align=left;verticalAlign=top;spacingLeft=4;spacingRight=4;overflow=hidden;rotatable=0;points=[[0,0.5],[1,0.5]];portConstraint=eastwest;" parent="zkfFHV4jXpPFQw0GAbJ--0" vertex="1"><mxGeometry y="112" width="160" height="26" as="geometry"/></mxCell><mxCell id="zkfFHV4jXpPFQw0GAbJ--6" value="Student" style="swimlane;fontStyle=0;align=center;verticalAlign=top;childLayout=stackLayout;horizontal=1;startSize=26;horizontalStack=0;resizeParent=1;resizeLast=0;collapsible=1;marginBottom=0;rounded=0;shadow=0;strokeWidth=1;" parent="WIyWlLk6GJQsqaUBKTNV-1" vertex="1"><mxGeometry x="870" y="330" width="160" height="138" as="geometry"><mxRectangle x="130" y="380" width="160" height="26" as="alternateBounds"/></mxGeometry></mxCell><mxCell id="zkfFHV4jXpPFQw0GAbJ--7" value="Student Number" style="text;align=left;verticalAlign=top;spacingLeft=4;spacingRight=4;overflow=hidden;rotatable=0;points=[[0,0.5],[1,0.5]];portConstraint=eastwest;" parent="zkfFHV4jXpPFQw0GAbJ--6" vertex="1"><mxGeometry y="26" width="160" height="26" as="geometry"/></mxCell><mxCell id="zkfFHV4jXpPFQw0GAbJ--8" value="Average Mark" style="text;align=left;verticalAlign=top;spacingLeft=4;spacingRight=4;overflow=hidden;rotatable=0;points=[[0,0.5],[1,0.5]];portConstraint=eastwest;rounded=0;shadow=0;html=0;" parent="zkfFHV4jXpPFQw0GAbJ--6" vertex="1"><mxGeometry y="52" width="160" height="26" as="geometry"/></mxCell><mxCell id="zkfFHV4jXpPFQw0GAbJ--9" value="" style="line;html=1;strokeWidth=1;align=left;verticalAlign=middle;spacingTop=-1;spacingLeft=3;spacingRight=3;rotatable=0;labelPosition=right;points=[];portConstraint=eastwest;" parent="zkfFHV4jXpPFQw0GAbJ--6" vertex="1"><mxGeometry y="78" width="160" height="8" as="geometry"/></mxCell><mxCell id="zkfFHV4jXpPFQw0GAbJ--10" value="Is Eligible To Enroll" style="text;align=left;verticalAlign=top;spacingLeft=4;spacingRight=4;overflow=hidden;rotatable=0;points=[[0,0.5],[1,0.5]];portConstraint=eastwest;fontStyle=4" parent="zkfFHV4jXpPFQw0GAbJ--6" vertex="1"><mxGeometry y="86" width="160" height="26" as="geometry"/></mxCell><mxCell id="zkfFHV4jXpPFQw0GAbJ--11" value="Get Seminars Taken" style="text;align=left;verticalAlign=top;spacingLeft=4;spacingRight=4;overflow=hidden;rotatable=0;points=[[0,0.5],[1,0.5]];portConstraint=eastwest;" parent="zkfFHV4jXpPFQw0GAbJ--6" vertex="1"><mxGeometry y="112" width="160" height="26" as="geometry"/></mxCell><mxCell id="zkfFHV4jXpPFQw0GAbJ--12" value="" style="endArrow=block;endSize=10;endFill=0;shadow=0;strokeWidth=1;rounded=0;edgeStyle=elbowEdgeStyle;elbow=vertical;" parent="WIyWlLk6GJQsqaUBKTNV-1" source="zkfFHV4jXpPFQw0GAbJ--6" target="zkfFHV4jXpPFQw0GAbJ--0" edge="1"><mxGeometry width="160" relative="1" as="geometry"><mxPoint x="950" y="173" as="sourcePoint"/><mxPoint x="950" y="173" as="targetPoint"/></mxGeometry></mxCell><mxCell id="zkfFHV4jXpPFQw0GAbJ--13" value="Professor" style="swimlane;fontStyle=0;align=center;verticalAlign=top;childLayout=stackLayout;horizontal=1;startSize=26;horizontalStack=0;resizeParent=1;resizeLast=0;collapsible=1;marginBottom=0;rounded=0;shadow=0;strokeWidth=1;" parent="WIyWlLk6GJQsqaUBKTNV-1" vertex="1"><mxGeometry x="1080" y="330" width="160" height="70" as="geometry"><mxRectangle x="340" y="380" width="170" height="26" as="alternateBounds"/></mxGeometry></mxCell><mxCell id="zkfFHV4jXpPFQw0GAbJ--14" value="Salary" style="text;align=left;verticalAlign=top;spacingLeft=4;spacingRight=4;overflow=hidden;rotatable=0;points=[[0,0.5],[1,0.5]];portConstraint=eastwest;" parent="zkfFHV4jXpPFQw0GAbJ--13" vertex="1"><mxGeometry y="26" width="160" height="26" as="geometry"/></mxCell><mxCell id="zkfFHV4jXpPFQw0GAbJ--15" value="" style="line;html=1;strokeWidth=1;align=left;verticalAlign=middle;spacingTop=-1;spacingLeft=3;spacingRight=3;rotatable=0;labelPosition=right;points=[];portConstraint=eastwest;" parent="zkfFHV4jXpPFQw0GAbJ--13" vertex="1"><mxGeometry y="52" width="160" height="8" as="geometry"/></mxCell><mxCell id="zkfFHV4jXpPFQw0GAbJ--16" value="" style="endArrow=block;endSize=10;endFill=0;shadow=0;strokeWidth=1;rounded=0;edgeStyle=elbowEdgeStyle;elbow=vertical;" parent="WIyWlLk6GJQsqaUBKTNV-1" source="zkfFHV4jXpPFQw0GAbJ--13" target="zkfFHV4jXpPFQw0GAbJ--0" edge="1"><mxGeometry width="160" relative="1" as="geometry"><mxPoint x="960" y="343" as="sourcePoint"/><mxPoint x="1060" y="241" as="targetPoint"/></mxGeometry></mxCell><mxCell id="zkfFHV4jXpPFQw0GAbJ--17" value="Address" style="swimlane;fontStyle=0;align=center;verticalAlign=top;childLayout=stackLayout;horizontal=1;startSize=26;horizontalStack=0;resizeParent=1;resizeLast=0;collapsible=1;marginBottom=0;rounded=0;shadow=0;strokeWidth=1;" parent="WIyWlLk6GJQsqaUBKTNV-1" vertex="1"><mxGeometry x="1258" y="90" width="160" height="216" as="geometry"><mxRectangle x="550" y="140" width="160" height="26" as="alternateBounds"/></mxGeometry></mxCell><mxCell id="zkfFHV4jXpPFQw0GAbJ--18" value="Street" style="text;align=left;verticalAlign=top;spacingLeft=4;spacingRight=4;overflow=hidden;rotatable=0;points=[[0,0.5],[1,0.5]];portConstraint=eastwest;" parent="zkfFHV4jXpPFQw0GAbJ--17" vertex="1"><mxGeometry y="26" width="160" height="26" as="geometry"/></mxCell><mxCell id="zkfFHV4jXpPFQw0GAbJ--19" value="City" style="text;align=left;verticalAlign=top;spacingLeft=4;spacingRight=4;overflow=hidden;rotatable=0;points=[[0,0.5],[1,0.5]];portConstraint=eastwest;rounded=0;shadow=0;html=0;" parent="zkfFHV4jXpPFQw0GAbJ--17" vertex="1"><mxGeometry y="52" width="160" height="26" as="geometry"/></mxCell><mxCell id="zkfFHV4jXpPFQw0GAbJ--20" value="State" style="text;align=left;verticalAlign=top;spacingLeft=4;spacingRight=4;overflow=hidden;rotatable=0;points=[[0,0.5],[1,0.5]];portConstraint=eastwest;rounded=0;shadow=0;html=0;" parent="zkfFHV4jXpPFQw0GAbJ--17" vertex="1"><mxGeometry y="78" width="160" height="26" as="geometry"/></mxCell><mxCell id="zkfFHV4jXpPFQw0GAbJ--21" value="Postal Code" style="text;align=left;verticalAlign=top;spacingLeft=4;spacingRight=4;overflow=hidden;rotatable=0;points=[[0,0.5],[1,0.5]];portConstraint=eastwest;rounded=0;shadow=0;html=0;" parent="zkfFHV4jXpPFQw0GAbJ--17" vertex="1"><mxGeometry y="104" width="160" height="26" as="geometry"/></mxCell><mxCell id="zkfFHV4jXpPFQw0GAbJ--22" value="Country" style="text;align=left;verticalAlign=top;spacingLeft=4;spacingRight=4;overflow=hidden;rotatable=0;points=[[0,0.5],[1,0.5]];portConstraint=eastwest;rounded=0;shadow=0;html=0;" parent="zkfFHV4jXpPFQw0GAbJ--17" vertex="1"><mxGeometry y="130" width="160" height="26" as="geometry"/></mxCell><mxCell id="zkfFHV4jXpPFQw0GAbJ--23" value="" style="line;html=1;strokeWidth=1;align=left;verticalAlign=middle;spacingTop=-1;spacingLeft=3;spacingRight=3;rotatable=0;labelPosition=right;points=[];portConstraint=eastwest;" parent="zkfFHV4jXpPFQw0GAbJ--17" vertex="1"><mxGeometry y="156" width="160" height="8" as="geometry"/></mxCell><mxCell id="zkfFHV4jXpPFQw0GAbJ--24" value="Validate" style="text;align=left;verticalAlign=top;spacingLeft=4;spacingRight=4;overflow=hidden;rotatable=0;points=[[0,0.5],[1,0.5]];portConstraint=eastwest;" parent="zkfFHV4jXpPFQw0GAbJ--17" vertex="1"><mxGeometry y="164" width="160" height="26" as="geometry"/></mxCell><mxCell id="zkfFHV4jXpPFQw0GAbJ--25" value="Output As Label" style="text;align=left;verticalAlign=top;spacingLeft=4;spacingRight=4;overflow=hidden;rotatable=0;points=[[0,0.5],[1,0.5]];portConstraint=eastwest;" parent="zkfFHV4jXpPFQw0GAbJ--17" vertex="1"><mxGeometry y="190" width="160" height="26" as="geometry"/></mxCell><mxCell id="zkfFHV4jXpPFQw0GAbJ--26" value="" style="endArrow=open;shadow=0;strokeWidth=1;rounded=0;endFill=1;edgeStyle=elbowEdgeStyle;elbow=vertical;" parent="WIyWlLk6GJQsqaUBKTNV-1" source="zkfFHV4jXpPFQw0GAbJ--0" target="zkfFHV4jXpPFQw0GAbJ--17" edge="1"><mxGeometry x="0.5" y="41" relative="1" as="geometry"><mxPoint x="1130" y="162" as="sourcePoint"/><mxPoint x="1290" y="162" as="targetPoint"/><mxPoint x="-40" y="32" as="offset"/></mxGeometry></mxCell><mxCell id="zkfFHV4jXpPFQw0GAbJ--27" value="0..1" style="resizable=0;align=left;verticalAlign=bottom;labelBackgroundColor=none;fontSize=12;" parent="zkfFHV4jXpPFQw0GAbJ--26" connectable="0" vertex="1"><mxGeometry x="-1" relative="1" as="geometry"><mxPoint y="4" as="offset"/></mxGeometry></mxCell><mxCell id="zkfFHV4jXpPFQw0GAbJ--28" value="1" style="resizable=0;align=right;verticalAlign=bottom;labelBackgroundColor=none;fontSize=12;" parent="zkfFHV4jXpPFQw0GAbJ--26" connectable="0" vertex="1"><mxGeometry x="1" relative="1" as="geometry"><mxPoint x="-7" y="4" as="offset"/></mxGeometry></mxCell><mxCell id="zkfFHV4jXpPFQw0GAbJ--29" value="lives at" style="text;html=1;resizable=0;points=[];;align=center;verticalAlign=middle;labelBackgroundColor=none;rounded=0;shadow=0;strokeWidth=1;fontSize=12;" parent="zkfFHV4jXpPFQw0GAbJ--26" vertex="1" connectable="0"><mxGeometry x="0.5" y="49" relative="1" as="geometry"><mxPoint x="-38" y="40" as="offset"/></mxGeometry></mxCell><mxCell id="TFEnaZEvHAxOvU5EDG9b-0" value="&lt;pre&gt;&lt;font face=&quot;Montserrat&quot; size=&quot;1&quot; data-font-src=&quot;https://fonts.googleapis.com/css?family=Montserrat&quot;&gt;&lt;b style=&quot;font-size: 12px;&quot;&gt;&lt;i&gt;Shape&lt;/i&gt;&lt;/b&gt;&lt;/font&gt;&lt;/pre&gt;" style="swimlane;html=1;fontStyle=0;childLayout=stackLayout;horizontal=1;startSize=26;fillColor=#75D7F0;horizontalStack=0;resizeParent=1;resizeLast=0;collapsible=1;marginBottom=0;swimlaneFillColor=#ffffff;rounded=1;shadow=0;comic=0;labelBackgroundColor=none;strokeWidth=1;fontFamily=Montserrat;fontSize=10;align=center;fontSource=https%3A%2F%2Ffonts.googleapis.com%2Fcss%3Ffamily%3DMontserrat;" parent="WIyWlLk6GJQsqaUBKTNV-1" vertex="1"><mxGeometry x="1000" y="510" width="160" height="60" as="geometry"><mxRectangle x="310" y="120" width="90" height="30" as="alternateBounds"/></mxGeometry></mxCell><mxCell id="TFEnaZEvHAxOvU5EDG9b-1" value="&lt;font color=&quot;#ea6b66&quot;&gt;+ calc_perimeter()&lt;/font&gt;" style="text;html=1;strokeColor=none;fillColor=none;align=left;verticalAlign=top;spacingLeft=4;spacingRight=4;whiteSpace=wrap;overflow=hidden;rotatable=0;points=[[0,0.5],[1,0.5]];portConstraint=eastwest;fontFamily=Montserrat;fontSource=https%3A%2F%2Ffonts.googleapis.com%2Fcss%3Ffamily%3DMontserrat;" parent="TFEnaZEvHAxOvU5EDG9b-0" vertex="1"><mxGeometry y="26" width="160" height="24" as="geometry"/></mxCell><mxCell id="TFEnaZEvHAxOvU5EDG9b-2" value="&lt;font data-font-src=&quot;https://fonts.googleapis.com/css?family=Montserrat&quot; face=&quot;Montserrat&quot;&gt;Triangle&lt;/font&gt;" style="swimlane;fontStyle=1;align=center;verticalAlign=top;childLayout=stackLayout;horizontal=1;startSize=26;horizontalStack=0;resizeParent=1;resizeParentMax=0;resizeLast=0;collapsible=1;marginBottom=0;whiteSpace=wrap;html=1;rounded=1;fillColor=#AFF4C6;" parent="WIyWlLk6GJQsqaUBKTNV-1" vertex="1"><mxGeometry x="880" y="690" width="160" height="140" as="geometry"/></mxCell><mxCell id="TFEnaZEvHAxOvU5EDG9b-3" value="&lt;font data-font-src=&quot;https://fonts.googleapis.com/css?family=Montserrat&quot; face=&quot;Montserrat&quot;&gt;- a: int&lt;/font&gt;" style="text;strokeColor=none;fillColor=none;align=left;verticalAlign=top;spacingLeft=4;spacingRight=4;overflow=hidden;rotatable=0;points=[[0,0.5],[1,0.5]];portConstraint=eastwest;whiteSpace=wrap;html=1;" parent="TFEnaZEvHAxOvU5EDG9b-2" vertex="1"><mxGeometry y="26" width="160" height="26" as="geometry"/></mxCell><mxCell id="TFEnaZEvHAxOvU5EDG9b-4" value="&lt;font data-font-src=&quot;https://fonts.googleapis.com/css?family=Montserrat&quot; face=&quot;Montserrat&quot;&gt;- b: int&lt;/font&gt;" style="text;strokeColor=none;fillColor=none;align=left;verticalAlign=top;spacingLeft=4;spacingRight=4;overflow=hidden;rotatable=0;points=[[0,0.5],[1,0.5]];portConstraint=eastwest;whiteSpace=wrap;html=1;" parent="TFEnaZEvHAxOvU5EDG9b-2" vertex="1"><mxGeometry y="52" width="160" height="26" as="geometry"/></mxCell><mxCell id="TFEnaZEvHAxOvU5EDG9b-5" value="&lt;font data-font-src=&quot;https://fonts.googleapis.com/css?family=Montserrat&quot; face=&quot;Montserrat&quot;&gt;- c: int&lt;/font&gt;" style="text;strokeColor=none;fillColor=none;align=left;verticalAlign=top;spacingLeft=4;spacingRight=4;overflow=hidden;rotatable=0;points=[[0,0.5],[1,0.5]];portConstraint=eastwest;whiteSpace=wrap;html=1;" parent="TFEnaZEvHAxOvU5EDG9b-2" vertex="1"><mxGeometry y="78" width="160" height="26" as="geometry"/></mxCell><mxCell id="TFEnaZEvHAxOvU5EDG9b-6" value="" style="line;strokeWidth=1;fillColor=none;align=left;verticalAlign=middle;spacingTop=-1;spacingLeft=3;spacingRight=3;rotatable=0;labelPosition=right;points=[];portConstraint=eastwest;strokeColor=inherit;" parent="TFEnaZEvHAxOvU5EDG9b-2" vertex="1"><mxGeometry y="104" width="160" height="8" as="geometry"/></mxCell><mxCell id="TFEnaZEvHAxOvU5EDG9b-7" value="&lt;font color=&quot;#0d99ff&quot; data-font-src=&quot;https://fonts.googleapis.com/css?family=Montserrat&quot; face=&quot;Montserrat&quot;&gt;+ calc_perimeter()&lt;/font&gt;" style="text;strokeColor=none;fillColor=none;align=left;verticalAlign=top;spacingLeft=4;spacingRight=4;overflow=hidden;rotatable=0;points=[[0,0.5],[1,0.5]];portConstraint=eastwest;whiteSpace=wrap;html=1;" parent="TFEnaZEvHAxOvU5EDG9b-2" vertex="1"><mxGeometry y="112" width="160" height="28" as="geometry"/></mxCell><mxCell id="TFEnaZEvHAxOvU5EDG9b-8" value="" style="edgeStyle=orthogonalEdgeStyle;rounded=0;orthogonalLoop=1;jettySize=auto;html=1;endArrow=none;endFill=0;startArrow=block;startFill=0;" parent="WIyWlLk6GJQsqaUBKTNV-1" source="TFEnaZEvHAxOvU5EDG9b-9" target="TFEnaZEvHAxOvU5EDG9b-16" edge="1"><mxGeometry relative="1" as="geometry"/></mxCell><mxCell id="TFEnaZEvHAxOvU5EDG9b-9" value="&lt;font data-font-src=&quot;https://fonts.googleapis.com/css?family=Montserrat&quot; face=&quot;Montserrat&quot;&gt;Rectangle&lt;/font&gt;" style="swimlane;fontStyle=1;align=center;verticalAlign=top;childLayout=stackLayout;horizontal=1;startSize=26;horizontalStack=0;resizeParent=1;resizeParentMax=0;resizeLast=0;collapsible=1;marginBottom=0;whiteSpace=wrap;html=1;rounded=1;fillColor=#FFD966;" parent="WIyWlLk6GJQsqaUBKTNV-1" vertex="1"><mxGeometry x="1120" y="690" width="160" height="114" as="geometry"/></mxCell><mxCell id="TFEnaZEvHAxOvU5EDG9b-10" value="&lt;font data-font-src=&quot;https://fonts.googleapis.com/css?family=Montserrat&quot; face=&quot;Montserrat&quot;&gt;- a: int&lt;/font&gt;" style="text;strokeColor=none;fillColor=none;align=left;verticalAlign=top;spacingLeft=4;spacingRight=4;overflow=hidden;rotatable=0;points=[[0,0.5],[1,0.5]];portConstraint=eastwest;whiteSpace=wrap;html=1;" parent="TFEnaZEvHAxOvU5EDG9b-9" vertex="1"><mxGeometry y="26" width="160" height="26" as="geometry"/></mxCell><mxCell id="TFEnaZEvHAxOvU5EDG9b-11" value="&lt;font data-font-src=&quot;https://fonts.googleapis.com/css?family=Montserrat&quot; face=&quot;Montserrat&quot;&gt;- b: int&lt;/font&gt;" style="text;strokeColor=none;fillColor=none;align=left;verticalAlign=top;spacingLeft=4;spacingRight=4;overflow=hidden;rotatable=0;points=[[0,0.5],[1,0.5]];portConstraint=eastwest;whiteSpace=wrap;html=1;" parent="TFEnaZEvHAxOvU5EDG9b-9" vertex="1"><mxGeometry y="52" width="160" height="26" as="geometry"/></mxCell><mxCell id="TFEnaZEvHAxOvU5EDG9b-12" value="" style="line;strokeWidth=1;fillColor=none;align=left;verticalAlign=middle;spacingTop=-1;spacingLeft=3;spacingRight=3;rotatable=0;labelPosition=right;points=[];portConstraint=eastwest;strokeColor=inherit;" parent="TFEnaZEvHAxOvU5EDG9b-9" vertex="1"><mxGeometry y="78" width="160" height="8" as="geometry"/></mxCell><mxCell id="TFEnaZEvHAxOvU5EDG9b-13" value="&lt;font color=&quot;#0d99ff&quot; data-font-src=&quot;https://fonts.googleapis.com/css?family=Montserrat&quot; face=&quot;Montserrat&quot;&gt;+ calc_perimeter()&lt;/font&gt;" style="text;strokeColor=none;fillColor=none;align=left;verticalAlign=top;spacingLeft=4;spacingRight=4;overflow=hidden;rotatable=0;points=[[0,0.5],[1,0.5]];portConstraint=eastwest;whiteSpace=wrap;html=1;" parent="TFEnaZEvHAxOvU5EDG9b-9" vertex="1"><mxGeometry y="86" width="160" height="28" as="geometry"/></mxCell><mxCell id="TFEnaZEvHAxOvU5EDG9b-14" value="" style="endArrow=none;html=1;rounded=0;edgeStyle=orthogonalEdgeStyle;entryX=0.5;entryY=0;entryDx=0;entryDy=0;exitX=0.5;exitY=0;exitDx=0;exitDy=0;endFill=0;" parent="WIyWlLk6GJQsqaUBKTNV-1" source="TFEnaZEvHAxOvU5EDG9b-2" target="TFEnaZEvHAxOvU5EDG9b-9" edge="1"><mxGeometry width="50" height="50" relative="1" as="geometry"><mxPoint x="1060" y="830" as="sourcePoint"/><mxPoint x="1110" y="780" as="targetPoint"/><Array as="points"><mxPoint x="960" y="630"/><mxPoint x="1200" y="630"/></Array></mxGeometry></mxCell><mxCell id="TFEnaZEvHAxOvU5EDG9b-15" value="" style="endArrow=block;html=1;rounded=0;entryX=0.5;entryY=1;entryDx=0;entryDy=0;endFill=0;" parent="WIyWlLk6GJQsqaUBKTNV-1" target="TFEnaZEvHAxOvU5EDG9b-0" edge="1"><mxGeometry width="50" height="50" relative="1" as="geometry"><mxPoint x="1080" y="630" as="sourcePoint"/><mxPoint x="1105" y="600" as="targetPoint"/></mxGeometry></mxCell><mxCell id="TFEnaZEvHAxOvU5EDG9b-16" value="&lt;font data-font-src=&quot;https://fonts.googleapis.com/css?family=Montserrat&quot; face=&quot;Montserrat&quot;&gt;Rectangle&lt;/font&gt;" style="swimlane;fontStyle=1;align=center;verticalAlign=top;childLayout=stackLayout;horizontal=1;startSize=26;horizontalStack=0;resizeParent=1;resizeParentMax=0;resizeLast=0;collapsible=1;marginBottom=0;whiteSpace=wrap;html=1;rounded=1;fillColor=#E4CCFF;" parent="WIyWlLk6GJQsqaUBKTNV-1" vertex="1"><mxGeometry x="1120" y="870" width="160" height="52" as="geometry"/></mxCell><mxCell id="TFEnaZEvHAxOvU5EDG9b-17" value="&lt;font data-font-src=&quot;https://fonts.googleapis.com/css?family=Montserrat&quot; face=&quot;Montserrat&quot;&gt;- a: int&lt;/font&gt;" style="text;strokeColor=none;fillColor=none;align=left;verticalAlign=top;spacingLeft=4;spacingRight=4;overflow=hidden;rotatable=0;points=[[0,0.5],[1,0.5]];portConstraint=eastwest;whiteSpace=wrap;html=1;" parent="TFEnaZEvHAxOvU5EDG9b-16" vertex="1"><mxGeometry y="26" width="160" height="26" as="geometry"/></mxCell><mxCell id="TFEnaZEvHAxOvU5EDG9b-18" value="" style="shape=image;verticalLabelPosition=bottom;labelBackgroundColor=default;verticalAlign=top;aspect=fixed;imageAspect=0;image=data:image/png,iVBORw0KGgoAAAANSUhEUgAABpAAAARoCAYAAAACfZecAAAMP2lDQ1BJQ0MgUHJvZmlsZQAASImVVwdYU8kWnluSkEBooUsJvQkiNYCUEFoA6d1GSAKEEmMgqNiRRQXXgooFbOiqiGKn2RHFwqLY+2JBRVkXC3blTQrouq98b75v7vz3nzP/OXPuzL13AFA7wRGJclF1APKEBeLYkAB6ckoqnfQUEIAJ0AaGwIbDzRcxo6MjACxD7d/Lu+sAkbZXHKRa/+z/r0WDx8/nAoBEQ5zOy+fmQXwQALyaKxIXAECU8uZTC0RSDCvQEsMAIV4oxZlyXC3F6XK8V2YTH8uCuA0AJRUOR5wJgOolyNMLuZlQQ7UfYichTyAEQI0OsW9e3mQexGkQ20AbEcRSfUb6DzqZf9NMH9bkcDKHsXwusqIUKMgX5XKm/5/p+N8lL1cy5MMKVpUscWisdM4wbzdzJodLsQrEfcL0yCiINSH+IODJ7CFGKVmS0AS5PWrIzWfBnAEdiJ14nMBwiA0hDhbmRkYo+PQMQTAbYrhC0GmCAnY8xHoQL+TnB8UpbDaJJ8cqfKENGWIWU8Gf5YhlfqW+7ktyEpgK/ddZfLZCH1MtyopPgpgCsUWhIDESYlWIHfNz4sIVNmOKsliRQzZiSaw0fguIY/nCkAC5PlaYIQ6OVdiX5eUPzRfblCVgRyrw/oKs+FB5frA2LkcWP5wLdokvZCYM6fDzkyOG5sLjBwbJ54494wsT4hQ6H0QFAbHysThFlButsMfN+LkhUt4MYtf8wjjFWDyxAC5IuT6eISqIjpfHiRdlc8Ki5fHgy0AEYIFAQAcSWNPBZJANBJ19jX3wTt4TDDhADDIBHzgomKERSbIeIbzGgSLwJ0R8kD88LkDWyweFkP86zMqvDiBD1lsoG5EDnkCcB8JBLryXyEYJh70lgseQEfzDOwdWLow3F1Zp/7/nh9jvDBMyEQpGMuSRrjZkSQwiBhJDicFEW9wA98W98Qh49YfVGWfgnkPz+G5PeELoIjwkXCN0E25NEhSLf4pyLOiG+sGKXKT/mAvcCmq64QG4D1SHyrgObgAccFfoh4n7Qc9ukGUp4pZmhf6T9t9m8MPTUNiRncgoWZfsT7b5eaSqnarbsIo01z/mRx5r+nC+WcM9P/tn/ZB9HmzDf7bEFmIHsHbsJHYOO4I1Ajp2HGvCOrCjUjy8uh7LVteQt1hZPDlQR/APf0NPVprJfKc6p16nL/K+Av406TsasCaLposFmVkFdCb8IvDpbCHXcSTd2cnZBQDp90X++noTI/tuIDod37n5fwDgc3xwcPDwdy7sOAD7POD2b/7O2TDgp0MZgLPNXIm4UM7h0gsBviXU4E7TB8bAHNjA+TgDd+AN/EEQCANRIB6kgIkw+iy4zsVgKpgJ5oFSUA6WgVVgHdgItoAdYDfYDxrBEXASnAEXwCVwDdyBq6cHvAD94B34jCAICaEiNEQfMUEsEXvEGWEgvkgQEoHEIilIGpKJCBEJMhOZj5QjFcg6ZDNSi+xDmpGTyDmkC7mFPEB6kdfIJxRDVVAt1Ai1QkehDJSJhqPx6AQ0E52CFqEl6BJ0DVqD7kIb0JPoBfQa2o2+QAcwgCljOpgp5oAxMBYWhaViGZgYm42VYZVYDVaPtcDnfAXrxvqwjzgRp+F03AGu4FA8AefiU/DZ+GJ8Hb4Db8Db8Cv4A7wf/0agEgwJ9gQvApuQTMgkTCWUEioJ2wiHCKfhXuohvCMSiTpEa6IH3IspxGziDOJi4nriHuIJYhfxEXGARCLpk+xJPqQoEodUQColrSXtIh0nXSb1kD4oKSuZKDkrBSulKgmVipUqlXYqHVO6rPRU6TNZnWxJ9iJHkXnk6eSl5K3kFvJFcg/5M0WDYk3xocRTsinzKGso9ZTTlLuUN8rKymbKnsoxygLlucprlPcqn1V+oPxRRVPFToWlMl5ForJEZbvKCZVbKm+oVKoV1Z+aSi2gLqHWUk9R71M/qNJUHVXZqjzVOapVqg2ql1VfqpHVLNWYahPVitQq1Q6oXVTrUyerW6mz1Dnqs9Wr1JvVb6gPaNA0RmtEaeRpLNbYqXFO45kmSdNKM0iTp1miuUXzlOYjGkYzp7FoXNp82lbaaVqPFlHLWoutla1VrrVbq1OrX1tT21U7UXuadpX2Ue1uHUzHSoetk6uzVGe/znWdT7pGukxdvu4i3Xrdy7rv9Ubo+evx9cr09uhd0/ukT9cP0s/RX67fqH/PADewM4gxmGqwweC0Qd8IrRHeI7gjykbsH3HbEDW0M4w1nGG4xbDDcMDI2CjESGS01uiUUZ+xjrG/cbbxSuNjxr0mNBNfE4HJSpPjJs/p2nQmPZe+ht5G7zc1NA01lZhuNu00/WxmbZZgVmy2x+yeOcWcYZ5hvtK81bzfwsRirMVMizqL25ZkS4ZlluVqy3bL91bWVklWC6warZ5Z61mzrYus66zv2lBt/Gym2NTYXLUl2jJsc2zX216yQ+3c7LLsquwu2qP27vYC+/X2XSMJIz1HCkfWjLzhoOLAdCh0qHN44KjjGOFY7Njo+HKUxajUUctHtY/65uTmlOu01enOaM3RYaOLR7eMfu1s58x1rnK+6kJ1CXaZ49Lk8srV3pXvusH1phvNbazbArdWt6/uHu5i93r3Xg8LjzSPao8bDC1GNGMx46wnwTPAc47nEc+PXu5eBV77vf7ydvDO8d7p/WyM9Rj+mK1jHvmY+XB8Nvt0+9J903w3+Xb7mfpx/Gr8Hvqb+/P8t/k/Zdoys5m7mC8DnALEAYcC3rO8WLNYJwKxwJDAssDOIM2ghKB1QfeDzYIzg+uC+0PcQmaEnAglhIaHLg+9wTZic9m17P4wj7BZYW3hKuFx4evCH0bYRYgjWsaiY8PGrhh7N9IyUhjZGAWi2FErou5FW0dPiT4cQ4yJjqmKeRI7OnZmbHscLW5S3M64d/EB8Uvj7yTYJEgSWhPVEscn1ia+TwpMqkjqTh6VPCv5QopBiiClKZWUmpi6LXVgXNC4VeN6xruNLx1/fYL1hGkTzk00mJg78egktUmcSQfSCGlJaTvTvnCiODWcgXR2enV6P5fFXc19wfPnreT18n34FfynGT4ZFRnPMn0yV2T2ZvllVWb1CViCdYJX2aHZG7Pf50TlbM8ZzE3K3ZOnlJeW1yzUFOYI2yYbT542uUtkLyoVdU/xmrJqSr84XLwtH8mfkN9UoAV/5DskNpJfJA8KfQurCj9MTZx6YJrGNOG0jul20xdNf1oUXPTbDHwGd0brTNOZ82Y+mMWctXk2Mjt9dusc8zklc3rmhszdMY8yL2fe78VOxRXFb+cnzW8pMSqZW/Lol5Bf6kpVS8WlNxZ4L9i4EF8oWNi5yGXR2kXfynhl58udyivLvyzmLj7/6+hf1/w6uCRjSedS96UblhGXCZddX+63fEeFRkVRxaMVY1c0rKSvLFv5dtWkVecqXSs3rqaslqzuXhOxpmmtxdpla7+sy1p3rSqgak+1YfWi6vfreesvb/DfUL/RaGP5xk+bBJtubg7Z3FBjVVO5hbilcMuTrYlb239j/Fa7zWBb+bav24Xbu3fE7mir9ait3Wm4c2kdWiep6901ftel3YG7m+od6jfv0dlTvhfslex9vi9t3/X94ftbDzAO1B+0PFh9iHaorAFpmN7Q35jV2N2U0tTVHNbc2uLdcuiw4+HtR0yPVB3VPrr0GOVYybHB40XHB06ITvSdzDz5qHVS651TyaeutsW0dZ4OP332TPCZU+3M9uNnfc4eOed1rvk843zjBfcLDR1uHYd+d/v9UKd7Z8NFj4tNlzwvtXSN6Tp22e/yySuBV85cZV+9cC3yWtf1hOs3b4y/0X2Td/PZrdxbr24X3v58Z+5dwt2ye+r3Ku8b3q/5w/aPPd3u3UcfBD7oeBj38M4j7qMXj/Mff+kpeUJ9UvnU5GntM+dnR3qDey89H/e854Xoxee+0j81/qx+afPy4F/+f3X0J/f3vBK/Gny9+I3+m+1vXd+2DkQP3H+X9+7z+7IP+h92fGR8bP+U9Onp56lfSF/WfLX92vIt/NvdwbzBQRFHzJH9CmCwohkZALzeDgA1BQAaPJ9RxsnPf7KCyM+sMgT+E5afEWXFHYB6+P8e0wf/bm4AsHcrPH5BfbXxAERTAYj3BKiLy3AdOqvJzpXSQoTngE2RX9Pz0sG/KfIz5w9x/9wCqaor+Ln9FxSbfIVCnstZAAAAOGVYSWZNTQAqAAAACAABh2kABAAAAAEAAAAaAAAAAAACoAIABAAAAAEAAAaQoAMABAAAAAEAAARoAAAAAPFezb0AAEAASURBVHgB7N0JtB1lnff7OtEXCEm4xIQpLDEJdCfcJpEwrGYKBiFIXJIEl6IBvUIURBcy6bU12E2wJdq+Cgg2oxK8bQhi386Ay0AYmwChV6LBgK+JmsH4EggE4ZqEqZVzn1+d/Os8u05Nezy19/k+ax323lVPPfXUp7ZBzi//p7qCjLaoe82+wWtvXBp0d09x3Ubv/nEvNAQQQACBRIHu7leDrq6ng+DtJcE73rH4rMHHb07sl7Nx7qZF++45aOel3d3BlCDoGt0ddI/OOYTdCCCAwEAXeLUrCJ52/791SVfwPxZ/dcyszQMdhOtHAAEEEEAAAQQQQAABBBBAoB4B99/Zfdui11eODv7aPd/tmdJ3L1sQQAABBIoLdN0ZvCO4umiQ9M1NC0d3d/1lfjd//hYnpicCCCCQJNDVdeegt99xNUFSEg7bEEAAAQQQQAABBBBAAAEEEMgXGBTvsuS1Jy8N/vL2Grd9SnwfnxFAAAEEqhXoPs8F8msW7Xzysrwjv/WHf7v07a6/rCE8ypNiPwIIIFBAoLv7PP2ZOm/T/5P752+B0eiCAAIIIIAAAggggAACCCCAwIATqKhAWrJr5VVvd3fPHXAKXDACCCDQCoGurrlnDTn+6qRTffMPC9yfv2/PTdrHNgQQQACB+gQGdQVzv/qeTyb++VvfyO159OjRo6e8/fbbn3Kzn+J+Rruftmtbtmyp+O+YtrsAJowAAggggAACCCCAAAIItIFA9B9eqjx6++3g+jaYM1NEAAEE2lng8rOGnlDxZ60qj/7azZ+/7XxTmTsCCJRfoKu7+/I5Y/6vij9/yz/rxs7QBUeju7u757ufKY0dufWjESC13pwzBsGmNd377vF20POMyi4Xvna3ZwDLvUQAAQRaKPCqO5d7RmWw5B3vDBYfNKlrcy3nnj+ze983XgsuDbqiv/wyupZxOAYBBBAYKAJudaPwGcHudUlXV7D4c/fV9uevvMIAKXzmkZat6+rad6Agcp0IIIBAPwm8Gryja5I9E0nPPNISS24u/PnbTzeE0yKAwIAReHVQ9zsnDdRnIrns6EhXdfSIu9sd8e8bAqQB87/bUlzo82u6R//1r8F8N5kppZgQk0AAAQTaVaAruPMdg4KriwZJN5/RrbCeP3/b9X4zbwQQKJPAnS4JurqWIGlQeBV/Da4iPCrT/WQuCCDQwQL7umci6f8Ah+3tQX+9yr3piF/m7b4kXhBAAIGyCuzb3fWX6M/fsk6yGfNy4dHoTgqPmmHEmAikCWxd3X2pC494RnAaENsRQACBagS6g/P0Z+r/XtV9Wd5ht3ygWxWf/PmbB8V+BBBAoJjAeV3uz9SbPpD/5298uK6w+uiv3ZviO/iMAAIIINBEgf8ePHzdq+v2ddVH/PnbRGaGRgABBOIC/909dPjcMWe9Gt/eyZ8POeQQ/btmdCddY1oFksvKPrV58+YfddK1ci39J/DcL7qvcr+8nNt/M+DMCCCAQOcKdLlnVB58dNfVSVd46+ndV73t9iftYxsCCCCAQJ0C7v/ffm558p+/SSMPCv7615lJO9iGAAIIINA8gbff+dpl3cF/8+dv84gZGQEEEEgU+B/Bn3P/xmvigW268d3vfrf+XTO6Tadf9bRdpdWdCpGqPpADEIgJqPKI8CiGwkcEEECggQL6MzapEkmVR4RHDYRmKAQQQCAu4AL6aiqR3BJ275gRH4PPCCCAAALNFRjU1fW+oGsQf/42l5nREUAAgT4CXV2D3tdnYwdv6OrqGnD/riFE6uAvdIsuTc88ejvgb763iJvTIIDAQBboCq7Sn7lGoGce8eevafCKAAIINE/AhUJXhc+ZK3AK1/ftIwv0owsCCCCAQGMFRncH3fz521hTRkMAAQRyBbqDrtG5nTqrw4D8dw0hUmd9iVt9NW+/7Z4RzDMqW83O+RBAYGAK7OueiTQ/uvTu4Kou/vyNOHiDAAIINEugW3/Wdnt//macyAVIXftm7GcXAggggEBzBEa7Yfnztzm2jIoAAghkCPT+LdeMTp20a0AGSLqBhEid9DVu3bXob8K7ZZXOa90ZORMCCCAw4AWmbFrTve/uvwl/3oDXAAABBBBoncCU+TO7c3836QIkGgIIIIAAAggggAACCCDQeQKESJ13T5t9RX/9SzCz2edgfAQQQACBSoF3/iW4zIX3/PlbycInBBBAoOkCr70RXJZ3EgKkPCH2I4AAAggggAACCCCAQNsKECK17a3rn4l3BQPuuWH9A81ZEUAAgV6Brq7gfe4XlPz520vCOwQQQKAlAoO6g9xnBBMgteRWcBIEEEAAAQQQQAABBBDoLwFCpP6Sb8vzHtmWs2bSCCCAQHsLjH47CPjzt73vIbNHAIH2FBidN20CpDwh9iOAAAIIIIAAAggggEDbCxAitf0tbNUF7NuqE3EeBBBAAIFIYHQXzwiOMHiDAAIItFBgdN65CJDyhNiPAAIIIIAAAggggAACHSFAiNQRt5GLQAABBBBAAAEEEEAAgRYJECC1CJrTIIAAAggggAACCCCAQP8LECL1/z1gBggggAACCCCAAAIIINAeAgRI7XGfmCUCCCCAAAIIIIAAAgg0SIAQqUGQDIMAAggggAACCCCAAAIdLUCA1NG3l4tDAAEEEEAAAQQQQACBJAFCpCQVtiGAAAIIIIAAAggggAACvQIESL0WvEMAAQQQQAABBBBAAIEBJECINIBuNpeKAAIIIIAAAggggAACVQsQIFVNxgEIIIAAAggggAACCCDQKQKESJ1yJ7kOBBBAAAEEEEAAAQQQaLQAAVKjRRkPAQQQQAABBBBAAAEE2kqAEKmtbheTRQABBBBAAAEEEEAAgRYJECC1CJrTIIAAAggggAACCCCAQHkFCJHKe2+YGQIIIIAAAggggAACCPSPAAFS/7hzVgQQQAABBBBAAAEEECiZACFSyW4I00EAAQQQQAABBBBAAIF+FSBA6ld+To4AAggggAACCCCAAAJlEiBEKtPdYC4IIIAAAggggAACCCDQnwIESP2pz7kRQAABBBBAAAEEEECgdAKESKW7JUwIAQQQQAABBBBAAAEE+kGAAKkf0DklAggggAACCCCAAAIIlFuAEKnc94fZIYAAAggggAACCCCAQPMFCJCab8wZEEAAAQQQQAABBBBAoA0FCJHa8KYxZQQQQAABBBBAAAEEEGiYAAFSwygZCAEEEEAAAQQQQAABBDpNgBCp0+4o14MAAggggAACCCCAAAJFBQiQikrRDwEEEEAAAQQQQAABBAakACHSgLztXDQCCCCAAAIIIIAAAgNegABpwH8FAEAAAQQQQAABBBBAAIE8AUKkPCH2I4AAAggggAACCCCAQKcJECB12h3lehBAAAEEEEAAAQQQQKApAoRITWFlUAQQQAABBBBAAAEEECipAAFSSW8M00IAAQQQQAABBBBAAIHyCRAile+eMCMEEEAAAQQQQAABBBBojgABUnNcGRUBBBBAAAEEEEAAAQQ6VIAQqUNvLJeFAAIIIIAAAggggAACFQIESBUcfEAAAQQQQAABBBBAAAEE8gUIkfKN6IEAAggggAACCCCAAALtLUCA1N73j9kjgAACCCCAAAIIIIBAPwkQIvUTPKdFAAEEEEAAAQQQQACBlggQILWEmZMggAACCCCAAAIIIIBAJwoQInXiXeWaEEAAAQQQQAABBBBAQAIESHwPEEAAAQQQQAABBBBAAIE6BAiR6sDjUAQQQAABBBBAAAEEECitAAFSaW8NE0MAAQQQQAABBBBAAIF2ESBEapc7xTwRQAABBBBAAAEEEECgqAABUlEp+iGAAAIIIIAAAggggAACGQKESBk47EIAAQQQQAABBBBAAIG2EyBAartbxoQRQAABBBBAAAEEEECgrAKESGW9M8wLAQQQQAABBBBAAAEEqhUgQKpWjP4IIIAAAggggAACCCCAQIYAIVIGDrsQQAABBBBAAAEEEECgbQQIkNrmVjFRBBBAAAEEEEAAAQQQaBcBQqR2uVPMEwEEEEAAAQQQQAABBNIECJDSZNiOAAIIIIAAAggggAACCNQhQIhUBx6HIoAAAggggAACCCCAQL8LECD1+y1gAggggAACCCCAAAIIINCpAoRInXpnuS4EEEAAAQQQQAABBDpfgACp8+8xV4gAAggggAACCCCAAAL9KECI1I/4nBoBBBBAAAEEEEAAAQRqFiBAqpmOAxFAAAEEEEAAAQQQQACBYgKESMWc6IUAAggggAACCCCAAALlESBAKs+9YCYIIIAAAggggAACCCDQwQKESB18c7k0BBBAAAEEEEAAAQQ6UIAAqQNvKpeEAAIIIIAAAggggAAC5RQgRCrnfWFWCCCAAAIIIIAAAggg0FeAAKmvCVsQQAABBBBAAAEEEEAAgaYJECI1jZaBEUAAAQQQQAABBBBAoIECBEgNxGQoBBBAAAEEEEAAAQQQQKCIACFSESX6IIAAAggggAACCCCAQH8KECD1pz7nRgABBBBAAAEEEEAAgQErQIg0YG89F44AAggggAACCCCAQFsIECC1xW1ikggggAACCCCAAAIIINCJAoRInXhXuSYEEEAAAQQQQAABBDpDgACpM+4jV4EAAggggAACCCCAAAJtKkCI1KY3jmkjgAACCCCAAAIIINDhAgRIHX6DuTwEEEAAAQQQQAABBBAovwAhUvnvETNEAAEEEEAAAQQQQGCgCRAgDbQ7zvUigAACCCCAAAIIIIBAKQUIkUp5W5gUAggggAACCCCAAAIDVoAAacDeei4cAQQQQAABBBBAAAEEyiZAiFS2O8J8EEAAAQQQQAABBBAYuAIESAP33nPlCCCAAAIIIIAAAgggUEIBQqQS3hSmhAACCCCAAAIIIIDAABQgQBqAN51LRgABBBBAAAEEEEAAgXILECKV+/4wOwQQQAABBBBAAAEEBoIAAdJAuMtcIwIIIIAAAggggAACCLSdACFS290yJowAAggggAACCCCAQEcJECB11O3kYhBAAAEEEEAAAQQQQKCTBAiROuluci0IIIAAAggggAACCLSXAAFSe90vZosAAggggAACCCCAAAIDTIAQaYDdcC4XAQQQQAABBBBAAIGSCBAgleRGMA0EEEAAAQQQQAABBBBAIE2AEClNhu0IIIAAAggggAACCCDQLAECpGbJMi4CCCCAAAIIIIAAAggg0EABQqQGYjIUAggggAACCCCAAAII5AoQIOUS0QEBBBBAAAEEEEAAAQQQKIcAIVI57gOzQAABBBBAAAEEEEBgIAgQIA2Eu8w1IoAAAggggAACCCCAQMcIECJ1zK3kQhBAAAEEEEAAAQQQKLUAAVKpbw+TQwABBBBAAAEEEEAAAQT6ChAi9TVhCwIIIIAAAggggAACCDRWgACpsZ6MhgACCCCAAAIIIIAAAgi0RIAQqSXMnAQBBBBAAAEEEEAAgQErQIA0YG89F44AAggggAACCCCAAALtLkCI1O53kPkjgAACCCCAAAIIIFBeAQKk8t4bZoYAAggggAACCCCAAAII5AoQIuUS0QEBBBBAAAEEEEAAAQRqECBAqgGNQxBAAAEEEEAAAQQQQACBMgkQIpXpbjAXBBBAAAEEEEAAAQQ6Q4AAqTPuI1eBAAIIIIAAAggggAACA1yAEGmAfwG4fAQQQAABBBBAAAEEGixAgNRgUIZDAAEEEEAAAQQQQAABBPpLgBCpv+Q5LwIIIIAAAggggAACnSdAgNR595QrQgABBBBAAAEEEEAAgQEsQIg0gG8+l44AAggggAACCCCAQAMFCJAaiMlQCCCAAAIIIIAAAggggEAZBAiRynAXmAMCCCCAAAIIIIAAAu0tQIDU3veP2SOAAAIIIIAAAggggAACiQKESIksbEQAAQQQQAABBBBAAIGCAgRIBaHohgACCCCAAAIIIIAAAgi0mwAhUrvdMeaLAAIIIIAAAggggEB5BAiQynMvmAkCCCCAAAIIIIAAAggg0HABQqSGkzIgAggggAACCCCAAAIDQoAAaUDcZi4SAQQQQAABBBBAAAEEBrIAIdJAvvtcOwIIIIAAAggggAACtQkQINXmxlEIIIAAAggggAACCCCAQFsJECK11e1isggggAACCCCAAAII9LsAAVK/3wImgAACCCCAAAIIIIAAAgi0RoAQqTXOnAUBBBBAAAEEEEAAgU4QIEDqhLvINSCAAAIIIIAAAggggAACBQUIkQpC0Q0BBBBAAAEEEEAAgQEuQIA0wL8AXD4CCCCAAAIIIIAAAggMPAFCpIF3z7liBBBAAAEEEEAAAQSqFSBAqlaM/ggggAACCCCAAAIIIIBABwgQInXATeQSEEAAAQQQQAABBBBoogABUhNxGRoBBBBAAAEEEEAAAQQQKLMAIVKZ7w5zQwABBBBAAAEEEECgfwUIkPrXn7MjgAACCCCAAAIIIIAAAv0qQIjUr/ycHAEEEEAAAQQQQACB0goQIJX21jAxBBBAAAEEEEAAAQQQQKA1AoRIrXHmLAgggAACCCCAAAIItJMAAVI73S3migACCCCAAAIIIIAAAgg0SYAQqUmwDIsAAggggAACCCCAQJsKECC16Y1j2ggggAACCCCAAAIIIIBAowUIkRotyngIIIAAAggggAACCLSvAAFS+947Zo4AAggggAACCCCAAAIINFyAEKnhpAyIAAIIIIAAAggggEBbChAgteVtY9IIIIAAAggggAACCAxcgdGupVz95pTtbK5SgBCpSjC6I4AAAggggAACCCDQgQIESB14U7kkBBBAAAEEEEAAAQQ6XGB0yvX9KGU7m2sQIESqAY1DEEAAAQQQQAABBBDoIAECpA66mVwKAggggAACCCCAAAIDQcAFG1OSrnPQoEHXd3V1vZq0j221CRAi1ebGUQgggAACCCCAAAIIdIIAAVIn3EWuAQEEEEAAAQQQQACBASTgQqL3JV3u5s2bX3X7Lk/ax7baBQiRarfjSAQQQAABBBBAAAEE2lmAAKmd7x5zRwABBBBAAAEEEEBgAAp0d3dPcY9BmpJ06S5EutNtv5xKpCSd2rcRItVux5EIIIAAAggggAACCLSrAAFSu9455o0AAggggAACCCCAwAAWcCHSVWmXv2XLFi1lN8nt/5F7fTqtH9urEyBEqs6L3ggggAACCCCAAAIItLvAO9v9Apg/AggggAACCCCAAAIIDDwBVSEdcsghlyksSrp6V4m02W0/L2kf2xBAAAEEEEAAAQQQQAABBPIFqEDKN6IHAggggAACCCCAAAIIlFPgKreU3ZHlnBqzQgABBBBAAAEEEEAAAQTaW4AAqb3vH7NHAAEEEEAAAQQQQGAgC+zrllVbRIg0kL8CXDsCCCCAAAIIIIAAAgg0S4AAqVmyjIsAAggggAACCCCAAAKtEBjtQqRHtJxdK07GORBAAAEEEEAAAQQQQACBgSJAgDRQ7jTXiQACCCCAAAIIIIBA5wrs6y7tuve85z2PuGqkKZ17mVwZAggggAACCCCAAAIIINA6gXe27lScCQEEEEAAAQQQQAABBBBonkB3d/cU/bhqpKfdWX40aNAgvT69efPmV5t3VkZGAAEEEEAAAQQQQAABBDpTgACpM+8rV4UAAggggAACCCCAwEAWONJd/JFuabvQwAVKA9mi6de+ZcuWrqafhBMggAACCCCAAAIIIIBAywVYwq7l5JwQAQQQQAABBBBAAAEEEEAAAQQQQAABBBBAAAEEECi3AAFSue8Ps0MAAQQQQAABBBBAAAEEEEAAAQQQQAABBBBAAAEEWi5AgNRyck6IAAIIIIAAAggggAACCCCAAAIIIIAAAggggAACCJRbgACp3PeH2SGAAAIIIIAAAggggAACCCCAAAIIIIAAAggggAACLRcgQGo5OSdEAAEEEEAAAQQQQAABBBBAAAEEEEAAAQQQQAABBMotQIBU7vvD7BBAAAEEEEAAAQQQQAABBBBAAAEEEEAAAQQQQACBlgsQILWcnBMigAACCCCAAAIIIIAAAggggAACCCCAAAIIIIAAAuUWIEAq9/1hdggggAACCCCAAAIIIIAAAggggAACCCCAAAIIIIBAywUIkFpOzgkRQAABBBBAAAEEEEAAAQQQQAABBBBAAAEEEEAAgXILECCV+/4wOwQQQAABBBBAAAEEEEAAAQQQQAABBBBAAAEEEECg5QIESC0n54QIIIAAAggggAACCCCAAAIIIIAAAggggAACCCCAQLkFCJDKfX+YHQIIIIAAAggggAACCCCAAAIIIIAAAggggAACCCDQcgECpJaTc0IEEEAAAQQQQAABBBBAAAEEEEAAAQQQQAABBBBAoNwCBEjlvj/MDgEEEEAAAQQQQAABBBBAAAEEEEAAAQQQQAABBBBouQABUsvJOSECCCCAAAIIIIAAAggggAACCCCAAAIIIIAAAgggUG4BAqRy3x9mhwACCCCAAAIIIIAAAggggAACCCCAAAIIIIAAAgi0XIAAqeXknBABBBBAAAEEEEAAAQQQQAABBBBAAAEEEEAAAQQQKLcAAVK57w+zQwABBBBAAAEEEEAAAQQQQAABBBBAAAEEEEAAAQRaLkCA1HJyTogAAggggAACCCCAAAIIIIAAAggggAACCCCAAAIIlFuAAKnc94fZIYAAAggggAACCCCAAAIIIIAAAggggAACCCCAAAItFyBAajk5J0QAAQQQQAABBBBAAAEEEEAAAQQQQAABBBBAAAEEyi1AgFTu+8PsEEAAAQQQQAABBBBAAAEEEEAAAQQQQAABBBBAAIGWCxAgtZycEyKAAAIIIIAAAggggAACCCCAAAIIIIAAAggggAAC5RYgQCr3/WF2CCCAAAIIIIAAAggggAACCCCAAAIIIIAAAggggEDLBQiQWk7OCRFAAAEEEEAAAQQQQAABBBBAAAEEEEAAAQQQQACBcgsQIJX7/jA7BBBAAAEEEEAAAQQQQAABBBBAAAEEEEAAAQQQQKDlAgRILSfnhAgggAACCCCAAAIIIIAAAggggAACCCCAAAIIIIBAuQUIkMp9f5gdAggggAACCCCAAAIIIIAAAggggAACCCCAAAIIINByAQKklpNzQgQQQAABBBBAAAEEEEAAAQQQQAABBBBAAAEEEECg3AIESOW+P8wOAQQQQAABBBBAAAEEEEAAAQQQQAABBBBAAAEEEGi5AAFSy8k5IQIIIIAAAggggAACCCCAAAIIIIAAAggggAACCCBQbgECpHLfH2aHAAIIIIAAAggggAACCCCAAAIIIIAAAggggAACCLRcgACp5eScEAEEEEAAAQQQQAABBBBAAAEEEEAAAQQQQAABBBAotwABUrnvD7NDAAEEEEAAAQQQQAABBBBAAAEEEEAAAQQQQAABBFouQIDUcnJOiAACCCCAAAIIIIAAAggggAACCCCAAAIIIIAAAgiUW4AAqdz3h9khgAACCCCAAAIIIIAAAggggAACCCCAAAIIIIAAAi0XeGfLz8gJGyaw9Xdbgtd3vhaOd+ik8X3Gzdvf54DdG17f8Vqw9fdbKnYnjV/Rwfvgn9fbnPt28NC9g1F/c0jU70/Pbw9eeWF79LmaN9XM18aNz3v4gSODdx000nYXft2wZp3z+2Pwipv/6ztfD4YfOMJd17uDUYcdUtN4dmKNu2HNemfycjB46OBguJvboUeOqzCzvrwigEDzBbY+syk8yZ5DBgcjxh7Y54Qvb3w+eHPXG+H2URPG9Nkf37Bj26vB1mc3BS9teiF4a+cbwbD99w2GHbBvcPARY8LXeP+kz/45k/YnbUuaWy3j2NhJ49k+e5Xd9o0vBNvdte4xdK9gn/32DUY6wyLH2hhJr/F5jxh7ULDnkL2Suhbapnuy6anfBH9+6dWa70mhE9EJAQQQQAABBBBAAAEEEEAAAQQQKKEAAVIJb0rRKV07e27YVWHJ5xICpCU33u0Ch3UubNg7+Odl3y86bLD0xoXBqmVPRP11/JyffjscJ9qY8Wb+ld8Pw5OMLom7jp12UvCxObOjfavdHJbPXxJ9rubNd1bcUU33YPWyx4O751Uec/r5M4LTZ88oNI5CtxX//kCw4p4HolAv6UDdq9PPnx5UE3D9esUvgyU33B38KSVM01gf++rsusKppLmyDQEE0gW2u3Bo8Zz5YYeJ048PTho7rU9n7VeAdLALj2ZkBEg7Xnw1ePj6RcFzuwOpPgO5DeNPnRQcO+uU3CDpoe8tCoOZpDHStn3+3q/32fX4D+7LnE+fA3ZvUOj1yR9ekbY7UHC0auGjqWPr+A9eOcsFcgeljpG2Q44/ufTmit0yO/acUyq2FfmQN0+NUfSeFDkffRBAAAEEEEAAAQQQQAABBBBAAIEyCrCEXRnvSoE5Peeqj6yNOuzd9rbiVRU1an5VT0WHlA+qcvGbqpxW/7w3UPL3dcJ7hT/L71ha86XoXlznwrzldyzJDI90AgV6N1/y7WDpDQsLnU8B2vw5308Nj2zMeWd/2YVgnXuPCmHRCYEWCry1u7JIp9zHhR7xpuDIqo+yKmBUMXPPJTelBio27rqH1rjA6o5A/bOaKmbK2tYuXRmGbllBmYVAut5q27oH+x6z9dnN1Q4TFJmnBrV7Umbzqi+eAxBAAAEEEEAAAQQQQAABBBBAAAFPgAokD6Od3r6xe+k6zfldbqm1eFOoYcvbpQVM8WP0+dkVaxLDimcfXxNMPntq0iGZ2wYPc8vSuaXbijQt85bVqqnayRonvm/5nUsSrzneL+mznG9xgZBZWx8tL3fYkT3LCqpySEsCKqiy9thPVan0ekXFle2zV4VHCqWsyfKIk44Kl8TTtg1Prw8DKdu/xIVSY92SdrUsu2dj8IoAAsUEtPyaNS29Fm9+0DPqiNHx3eFnhSXL5t0dBU3aqGql8aceGS5fp3MoANnollBTU/+fX7MwOPuGzycuy+aHVuo/ss7l2zSGmgIwjVWkqYIoqami5/Hbl1Xs0rWO+fuePye1lJ0fGqkiS8FcNUvarX/46Yrx9UFhlc5ddJxNT61Lneeebqm9N93SgmvvfSr487ZXwnPpnjzsqr5mzDu/z7nZgAACCCCAAAIIIIAAAggggAACCLS7AAFSm97Brb/7YzTzpOAlL2CKDo690XJpSU2VMwpJtJxdNU2Bh78sXTXHxvt+7oYvxzfV/VnPWdKyc7U0HfsjVx3kh0dZS9Rpmbzl85cGOk5tlfusezf5o32DOfXxw6OD3bOhPjXv4j5h4QoXRCk4UtM8fvLNO4JmOIUn4B8IIBAJPOdVtiQtt5YXMGmgVXc9EgUR+nzSZ6YFE2ccr7dhU+ihz+q3auEj4TYFFmuXrExclm3H7lBj9+FhqJFV/WT98l4VHtUbkDz8vcUVp5npApd4qDPmuPHBMheQWXvIhUhZy+FZP70qJLJQx9+u9xtdKBQ/V7yPfX7iB70hl8KwUy87q8+xuicKw1SppFZtSGXn4hUBBBBAAAEEGiuw8Q+/DXa9tiMcdMLhR/cZPG//M7/5RZ9jimzYe+9hwaHv+dsiXSv6+PPRjlrH0bw3bPlt8OJLW4Ndr+8M9h95UHDAyFHBhPFHBQfsN6rinNV+0BzXrvtFNPaQwUOD/d2YE8cfHYwteM21uobX4c1/m7u+F7dnV+MnXV+trkljsQ0BBIoL7DkkCEYc2tN/xzb3FyLdT7yNmtiz5a1dQbB9Q3xv38/qrzH32T9wz9LtGXPrWvffg+4nq9l5svqk7Uube1J//5ptf9rc6pnTy87qTWdmbaQz2cN5V9vi7knzLzpm2nUWPZ5+5RYgQCr3/UmdnapPrCUtUZcXMNmx/qsCCP/ZRzMumVWxLJuClqLPBPLHLfN7VQ9Z0zOYVC2ksKxIe8BVCPnPJcp7ZtIxbvyx7nlF150/NwqdFBIdM+3EPsGcxramiqKk8Ej7FT6FIZgLktRqDfrCg/kHAggUFrAl7BTQJIU0f3ZBj7U9hwy2txWv2zf1/gewqnH88MjvqGf4qBLJln5LW5bN5mTHJs3L9rXydf1DT1eEOwrKkgKdMccdHoZoj+8OcRSWFa0eWufOYU3Bj8aygGe9Ww7vpAv6PqPK+turnmvlh1ByT5qn+mufxrVlCnX+tL42Pq8IIIAAAggg0FyBi792TniCiS48+tbht/Y52XW3zw02uEBkiAt8fnprz1/O8Tv9w7zP+h8Lv5968pnB5RdcVbi/OipUiZ+vmnF27doRLF6+MFh838IoNEuagCxOm3ym+/lQ0u7UbQ+s+Fmw9P67Qq+0Tgqpzv3whZljb9u+tc91po0X337FhXMrArAFi28PHnzs3ni33M/h92FO3+9D7oF0QACBugQU9Ezf/Su3J28JgrWVf6cwDIBs/+Yng+C+r6efTmHLCRdplY3kPgp5Vv84CNan/P1wO0/y0dlbH/lu+rjxIz9yU+CeW1y59ZYzKj/rk/rUM6el7u/X+4HNCe5fX7UEUvLS9VkbfUIQnPJF+1Tda9J1VjcCvcssMKjMk2Nu6QJW9aKKoKSqID/YSNqfNHK8+ujvJk8KjnA/1n7tlrfrpKYl4sxJIc3U2dMLX55CGz9s0/FFwjUtN+hXZOk+xp8vpW1aStCagqmkZQptv5YWVOWT/TzvltWjIYBAcwUUNqilLe32sluSTU0hzoiEJe60z392Ttoyd+qnNmJM7zJ5fsjRs7fnnzte/P+ij2nzijq08I2/NJ3CnbSgTFMad9qkikBu1cJHC83UD9UUxo111UzWFPIoiMprCuB0rP0ohEpruq9+YKSwi4YAAggggAAC/SegShlrYw9JrgZSeKRWS7WQjd2o12tvu7rmoVSJc/HXzg0W/MdtmeGRTrDWBVXX3jY3uO3H3m8IM86ssb/igrTr3DHmldZd4ZDGVn8dR0MAAQR8Aas+0rbtG/09Pe/9MMgPQ+I9j/lET9ji94/3USCj4EMhU3+1CWf1DY/6ay6cF4FGC1CB1GjRJo2nQOHOOTf2GV1hw5cmz+6z3d9w7ey50cfz5n2hIhSKdrg3q5a5yH93Uxih0ELVMRaUPOee46MKF+1r9xZfIi4vpIlfr5aO89t511zsf8x8f8Tko8LQz0LADU+vq3i+1IY166MKJYV/ugdZTfeJZeuyhNiHQP0CWjbOKmP80VQVdNOZ/+Rvqniv8MLf/7HvfT4KlPYcOjiqYLFKloqDUz7ouKTmB0tlqT7SPK1ySu8VzmQ1zXvcqZOi6iEFdbLJup5N7hlR/rW/d/rxofE+BwyPthepEFIgNCNnfv7c4xVf/j7eI4AAAggggEBrBRRmWNMSa/FWJGDyjxkyxC1LlxJE+f30fkzBfnacgh9/vra9yGtPwHNRn+NVDTTx/zw6HEJ9tKSdqpSsLb5flUo7g8svTK+UShtbFlqybqh73enG3OjG9gMjhVRfmXdR8P1vLAjUN6tpSb0D3BJ7RZqWsMtqqiwq0tICxSLH0gcBBGoX8CtxtFRavOUFTOo/zj3xQQGS3xQ2bVoZBG/t7Km6UeWNnWvizJ6eqnjyW1ZA5ffTey2NlxVWxfvrs84fn2dSP39bs+akpe20xF2RlhTs+cdpv5xpCBAgtcl3YGuDqkredeCIxCtWoOIv3Xbs7tBCYZFCDAs7FGR1QoC09Ma7IwcFOnkhTdR595utv/9jtEnPJ0paRjDqkPDmohu/HLyx47VwT7xCzL8P8XFfd8e84pbZ0/3QcfH9CadiEwIINEDAf+ZRPcP51UiqOrLgwyqW0sbe/F+9S2uO9KqR/P5+FYwqfayp0mnHi6+EH4ftP9z9n9vefdanWa/xyp+sqh6bw8ETRkcBksKjnW7+e6ZUcemYTe4ZR9Z03WY87v1HRs+OUsj05q5pmUGUjVHkVdZWhab+Y/6+/f9iRZHrpg8CCCCAAAJlFVCoYS0p+PEDm6SAyY611xOOnlL1snR2bNargpcFi27L6pK6T4GQghr/WhSinHvWhUHSM5+0DN1d7lwW9jyw4t5gjHtu0cwPzEo8x3W3X10xtsKeK9zSfEljr/zFo8FtC66NxtacrnXH/+Nl30kc2zZqKT3Nt96mwOxbLEtXLyPHI9BUAQthFEAkPd/IQh9NIilgiocyCkbud8WbfvCiJdjU7wMuG7fzKUTSknh+Py35VrQpCLKxdIw/TtoYOkbPDyratOReNXNSdZXNScdmzUnhUTVjZ81Z3jofDQECpDb5DrzroBGBntGj5j+n5zAX8Ax3FSh+U7jw7Ipfhpu0tNqhR/b+YistcNjoqmD8NnbSuOijwhWruFm97IlAz0Zq57Z62eORj65j+iUfr/py/JBn7JG9VkUHOviwQ1K7+uHUqMPeHfZTwPeTb94RKEi0ME87wiqxD54YPgspHkSlnoAdCCBQtcDBLuyxKpjtbnk6Cw/GumXO9nBVM35TuGBVN1pKzgKfPYdW9ht/6pGBLe+m/qsWPhIcO+sUf6jwvbZb0KQNSX20PR4g6RlAq+56JKpyUh81zWni9OOC8a7Sp9ktXlm1jxdspZ07vvzeS+5ZURYKxY/R+GaofX5ApSBq1cKeI9RPIVIjrlljPXH7sshV3wv/vPE58hkBBBBAAAEEmi+QV2GUFzA1f4Y9Z1AAZG2qezaRghdV8BRpCxZXVi7p2UZXZFQUTXVhzcTDj+oJnXYvMafqp6knfahPpZDCJn8eWuZPAY2eF5XUjncBm8IrLV9nS90pVNIYRSuDksZlGwIIdI6AVRilVblYIKIrTgqY/Moi9VFVUVJwYmHMR/+1txJJgU4tIUo8tFJAlRegqEpKP9b0TKFanyNkY/ivmpM/vp71REOg1QIESK0Wr/F8x7jwSD9qK+55IKoWmnr+9D4VQQo3LECa/JGpFcujpZ3+sZ8+GO2y5etsg56DZAGSwguNX7QKSf1fceFHXttLz3IatndmtyLjaIDhLjRLaz1L1y2Ndle7dJ0OtOcm2SCqQGpkiwdECu2W3LCwIjiy82kuy+9YEj5H6aIbvhwoMKQhgEDjBfzn9jzuwgMLkBTmxMMNLXdnAZL2j/Gex+PPTEumnfSZadHSeAp71j24Jgw59nFVQn92QdTWZzZHY+nY9192VmoF0Zu7Xo+GV3gUD29sp+b+8PWLAlU9nejOn9c0jv+8pqz+8eqm7RtfqOget6rYufuDXz2lTW/tfCOpW7hts1d9pA1avs6afLVknt2L9Q89XVOAtP6h3mfSveTM1rt7ZLYKj2bOOz/1nthceEUAAQQQQACB5gq8uHsJOwUeScuo5QVMzZ1dz+haRs6qh1Tdc86HL3DPGnJ/vbtAUxXR4vt2/80Y1z+sDsoIj2xIVepc7qqIFPSo7XptR7B4+cI+VUB3uWDJmsb+mqskSguPrJ/2q5+ex2TL5T30+M8IkAyIVwQGsICWgbOKnLQl0PICJj80UYijMCet6RxrFwfBiT1/1AUKn3R+VS1V0+LL0OWFNfHASf3zAqdq5qO+/pzyHKodm/4IFBUgQCoqVaJ+foCRVHWy9Xe9y6uN+pueCpas6StU8ZfIs+Xr7Jj4Mnar3bOSigZICrIszLLxkl4V5Jw+e0bSrmjbNWcXqzn9zoo7omPibx6YvyQKgBS25J0zfrw+x4Os4SnLAiYdW2SbP/4bLoBbcmPvfyhYuBcGea5qTEvaqek7ccsl3w4unz83XNquyHnogwACtQnYcnMKD5ICEQU/1vIqbhRMjXKVMqsXPhpsdBUyqiJSxVG8KQg5dtYU13dMfFf02Q95LOCwCig9r0eVU34l069c0KWWFyIpcPq3z1wbnSfrzSd/cEXDwxS7lqTz+tVHutZ4gKVlAi1A0qvGskqypPGStj3kwrZ4s6ojBYTxc8b78hkBBBBAAAEEGi+gapd/vv5LfQZWQPLBTx7TZ7u/4aMX9VZ8/4ursklaos3v34j3CoCWeAHQjNNnuWcB9X1WU9q51q7rWWHE9mtpuaJNFUE6l4VXz6jiyT3s3Zo+2z5t0xJzReemfno+ku6H2pOrH23K0n/h4PwDAQRKLXDGPwXB6BP6TlHbLrqv73bbokokf/8tZ/TsUQhlTUvS5TX1sQBJfQ96b89SdnnH2f54pU+R6iOFOzpOTeGOAiSFV41q8TnlBVqNOi/jIBAXIECKi7TBZ1viLO0ZOHkBU/wSFar47e9cxVG8+cvYKRCavvPjbRdUaN6rXDWPNVXslLH5FUj37743qnL61LyLwyXrbM66z0tvuDsK6Ozzx+bMti68IoBAEwSs+ii+1JqdygImfU4KmKyfXhUYrV36VBRy+Pv89zrnOldBk/UMo3GnTQqfF6QAS8GVgqF4uKEqHH9JPIVIen5PVjDlz6NM7/2lAjWv8e6ZR/E23pn4gZyqh/xqsnj/op8VRIXnf3ZTMP6Avv/OLDoO/RBAAAEEEECgNgF/SbraRug5au+UJdrqGTPp2AWLbo9CGlX4zDyjumXhH3LPL7Km46sNvf7x8u9EVULxCq2Vv3zUhg5fJ7hl76ppF37iitTnKlUzDn0RQKC9BfzAp9Yr8Ze7swomjVVtJZGOUTBVJHhSXzW/0kef88KaeLijpesa3fw5UX3UaF3Gq0aAAKkarZL0tWqhtOcZWcCk6ab18S9lw5r10UctV5dU1RRfxu7XK9a4JfVOjI5Le6Nl6bQ8XV7LW75Ox2ctTZc3vvYrbLE2+aNTK8IY217kNX49r+/sXTaqyPHV9lGllMKu+H3R84/Oc6HSza7yyJ7JtMo930nVXMPdM7NoCCDQeAEFB1YRk1bJkhcw2awUQCyZM7+iKkiVRqqaCZew2+aWsHu2Zwk7nVPVNqqimTlvdp9gSGNqOby8Ns49d2nkmAOCn1x6c9R1lat+mpFR2aTr3HPo4Kh/Wd5oeT+/JT2HSMvh+cvYbfqvdVUHSP4zpxQOWiWX7oV+tPRg2j3x58d7BBBAAAEEEGicwP6u8mXqyWeGA6q6x57fE1bbuIDFb/5+Pdtn7HvGRbv1udlNzxd60AuAvjXHPcijyrZhy2+jI1TxU20be0j6dfrL+1m1UjXjqwqpaMVSNePSFwEE2kvg5Q29y7f5zy9SiBMPgBTu2BJ2/n6NYU3HDNv9wap8bF/Sa7xP/HPSMbYtHgYVqT6a/m07umd5vaTnM/X2qP5dfE55gVb1Z+AIBIoLECAVtypFT1WnWIXK4JRf6FnAVOTZPAoe/Iqlgw87pM8SbbpwhRUKMOzcquQpEiAdcdJRQaMqYq68x/vTucq7sTy2dN3ks70n3FU5Vjzs8pecq3KoxO6+szp87Kuz+4RH/oGnu+dg3ezuozVVWtVzfTYOrwgg0FfgZVcJZG3EmAPtbfTqB0x5y9f54ZFCmmlXzkqsBFLV0OO3/zwMrhQ6Pfy9RcEM99ydWtsIt9TbRPesID0nSc0Cr7TxVGlV6/niIZt84tvi57WAzran9f/VUvdfIrubVYP5y/jZvvgyduoTr8yyvkmvx57Tu8yN7VdoZJVNjbgnNi6vCCCAAAIIIFBMYOrkDwX6UVuw6LYoQNLya/HqHC3RtvY3nw37njr5zELVMjt37YgqhsIDM/6RFZ4ovPKfL3Tuh4svD2en1LJ89owhbRvT4NBr20u9//9W1U3NbLoOf7m8tHMNHZz8LCu/f6PG8cfkPQII1C7wxK29xypcsQDnvq/3brd3J1zUGyCtXuD+m9QLjqyPAhkFTWpj3KNun8x5ppH/zKSeo4r/06/00VF5YU3S0nXFz1aspz+naqqPVAlm9lln0nOj4sFevH+RcXSM5kfrbAECpDa4v3fO+X60TJk/3WddFdCXJs/2N1W8f+53Wyr2Jz0baLW3pJsO1pJptmxaxWCxDwqeFCbFq2Ji3UrxUc94Wn5H7zJ9qtBRIFZri4dpfgBX65j+cXu5qi0L6uSb97wp7Vd1lgVZjZ6PPzfeIzAQBRT0qNIk3hQgWIgQ36fPeqbRTWe6haBdU8Bx9vc+F77XPxQK+c8jOvGCaYnhkfqqauhNV+n4+A+W6WM4l61uPvUsO3ewe+6SBUgKbKoNVcKJFPhHvHLprZ35AdKOba9UjDzsgOEVn/VBodf2jS9E2/W56HOaVMmVFApFgxV4o+PlZob6ftR7Twqcli4IIIAAAgggkCDgV9AkVdr41TuHZlTi+EPrmT72XB9/e/y9wqP51y2Nb44+L1m+MApMFM4o4Kq27XQBkt+GNnjZPT+I2X/kQf6pGv5+8f0LA/3ktSsunBuctjsgTOqrOZ9/+fSkXRXbVFH1LfecKxoCCLRWwKqL/CXp/BlYMKRtSeGRtqsyaeJMvQsChSIKndKWiZtwlvvv5tjfEy8afqiff2xe9ZH6++GOwqZGByjxOeUFWj1KPf+U7bk/8rckv9d1pnnaEX6VlW1LerXnViXtY1tnCBAgtcF9bEQgkFaNpBCq1rb650+0RaXLnVd+P7pEBTLxQCna6d5YCKNtG55eHwVPo/7m3cERk3vXgtbSgLZsnEK4GZfM8ofJfb/aLTX3p+dfDvtpiTq/msuvAqsloHujyUvq5V4cHRDoMIG8Cp0ilxuvRlK4ZE3LrI0/Nfs5Onpuj8Iqq87R85DqCZDSqnpsTo16HeWCKr89V+CZQaro8VvcTvv03Kham0KfegMknVtjWICkz8+5JfXquScag4YAAggggAAC1Qu86MIEtSEuWIk/30fbVYFkLSlgsn2NflX10eL7esOSKy64qiGnGLK3+00qDQEEECipgMIee37Rzt6/81cx27yASZ1VgaQfLYenppBHwcqTLhO20EmfFR5Z0KSKGju3KmyKND8MUv+8sOaUL/aOqhBGP41u/pyqqT5q9DwYDwETIEAyiRK/+lUor7ywPQxANF2FGPGAIW3/oUeO63OFCjGs0kU7izxjyA9Ynn18TVsESP416r2WsyvSFBBZSHTstJMqAqQjTpoU7dOYWjbOD5jyxl/insdk89LYfoA0/MAR0eHWJ9qQ8uaNHa9Fe/zjo428QQCBmgQUZtjyaBpAYZKFOHq2Trypv1UW6TgLauLP53nLVa9Y2yehwsb2+a9adu3N3VU38ZBFc1J1j7VqlmizY5rxqnBMBmam5xblhWWbnupdklPHjhjbd6lAPRvKmvrEK51sn72qgsvmoNekaiF/+bs9hrox3bhZLb4/fk+yjmUfAggggAACCDROYMMfep4PlPY8Iy0Bp5YWMCXNREGUllHLawfsl16x85V57q/L725T3dJ58aX1bF+1r7teK/hb0WoHbkH/oq5FQrKspQPtUnTPaQgg0FqBiuqijX3PXSRgsqNUIeMvh6cw6SP/2rPXD4u05ZlFPQHT6BN69/e8S/9nvNInr/pIIZYFWjp/XtiUfub0PfE5VXsOzatIeFakT6Mrq9Kvmj1lFyBAKvsdcvP73A1fjmZ58yXfjgKkK+6YG223N0tuWBis+GlP/P1x9+wchUxp7dkVT0e7VAUzp8AzhrQUnAUwClf0vKWsc0Qn6LA3x3zwxNDBAp6lLhAa5Z4fJce8Jj87Tn0PnVQZ7h0xeVJ0D9VPzlnL2Gm/P95AvB955uxHoFYBBSD+839++PF54VAKh/ztNr7/XCN/yTrbn/RqgVPSPn+bH3D42/V+swtdHrr+P6LNn757TmYAogomawpCmhk4KTzTsnFqm1zl1Zu7pqXOTSGM+liLB2/arvDHN9Pyf3mhlEIju3caY6PzilcLLZt3V7QsXnzJQR0Tb/HASN8VGgIIIIAAAgi0ViBv+TrNxpawSwuYkmZ8wtFTgsvrqBha8B+3VSxdd86HL0g6TaFt8SXr4kvaFRoko5OCGFvG7sXtz2f0rH/XzA/MqmkZv/iZ85YOjPfnMwIItE7Aqot0xqQl7PICJn+mCjCWul+J+iGS7bdKI31WeKRnMPlLrhUJP/xKH42TFdYo2PH765xFzqFxq2n+OTR+tRVOL7vnScmsEU3jNOMaGzE3xmitAAFSa73rPpsCG7W0Jem2/v6P0TmyggQt46aqGWuHHjne3ma+WnBinbQEXtZ5rF9/vp78kakVAUvWXBS+WRij0MYqt7SEnd9U+TX5o1OjME3LDGqpvPOuuTgzRNJyd/7zmOLL1+kcOq+26x6pLbnx7iApLAx3un/8ZN4d9jZ8jQdSFTv5gAACNQsohLAqlqRl1TSwLXfnVy0lnXDEmAOj5yopiEiqiPGP0zOT7NzaruP9Nmz//8P/GKxdkr5Mm85ngY4OSgppKgar88N49wwnO5+uYbVbiu/Ez0xLHHXVXb3L9KmDjo03P/zSvoOP6FsJFj9GIZkqxuxZVut3PwfJryIa5cax5yrpPubdk1+5pfD8lnfP/b68RwABBBBAAIHaBf75+i8lPp8o7/k6a91Sdh/85DHhiVWZ8tNbH6l9EhlHaum6BYtui3rouUdFqmWiA2JvrHJq166eSqpNW3oqrmLdav449j1/GwVIa/9X73J/NQ/IgQggMOAEzv9/e5eO8y/+jJ5HAvubKt4rLLHARM88uu/rFbvDDwowFnyqZwk7VRf5AZSO2eT+s0xL3ampuslaXoVNvNInr/pI89QxappTVtjU06v6f8bn1IxzVD8rjkAgCAiQ2uhboGDDwo20ZcryAia73I1P9y4RpG3HTHN/Chdo7zpwZBhw2NJuClxOnz2jwJH912Xy2bEn6WVMZdV9T0TGCo+yrk379Jwks5D9La5CTNvHumP9aiT1WT5/adTXpvCpeRfb24rX08+fHty9OxjSuKo8+5irKPPHVMD0k2/eEfjPyDr9/Bl9ljWsGJgPCCBQs8DLLlSwFg9wtL1IwGTHjz1ufMXzcx66flFw0gUfdGFO3zBfS7o9fvvP7dDw9b3Tj6/4rGoaPyDR85KCLvecnlmnVPRTKPLw9xZXbIv3qdjZgA/xuf3KhVt7uEAnft7Hf7AsCpp0Wl1PvEpI2/0KpbGuuqlo9ZSqlCxA0r3S/fTHj9+TZdcsDJKqm3SsfBXSWVP1UdK9s/28IoAAAggggEDjBOyZR/WMWE01UrXnuW3BtdEhCn9U3eMHStFO92bbS73//3Lj5vVRPz2r6XhXBWVt4vijo9DsydWPBheec0Xi856sf/z1gRU/C8xNc1IlkDWda+UvHg0/aq76qSbwUjD3zLre4EmBGQ0BBAaOgAIdvxqo1itPqlbyx1LAk1WNo/DFD5e2PuMf3fe9BVe2JyusGe3+81vL11lTlU/8eNtnIZN99vupaklLzKU1v28t1Udp47IdgXoFCJDqFWzh8RYO6ZRaLi3eigRMdsyqZS6m390USmQtkWb97FXBioUmOqfeV3O8jdMJrx+bMzsMjaxaSGHO3fN+GF6aqpT2GrZ34D83yr/mGV+YFRyccB/V5xj3XKTfr1kfqGJJTcbzzv5yT3WSC/F0HrsHYQf3D93HasIyO45XBBAoJmDVKeqdVG2SFzD5Z1FwoQAlDHrcDlUFLbvmrnDcka66SM/g0TON9Kwff7k2jaHjkkKTkz5zRrB4zvyoUknVPOseXBPs55bbU2CzfdMLUYWUzSVtLNuvV4UuN52Z81fHvAM+f2/fvzb2/svOCu655KbUufUsbfdGNIoqg95/qXsaaqzFK7FGJwRusUOij+qrcRUAqa1a+Ggww90Ha/F7on4Pu2DviduXRfdb26zKzI7TmDPnzbaPvCKAAAIIIIBAkwUUgEw8/OjwLFqezipzbJt/+m1uSTZVBKkpNNKxahNcINOs5i+rp+cvaTm7Ik3XYsvtTT35zIoA6TgXJlnIozEfePxnFSFQ3vh3eUvqKZjyA6Tw2Uzul5rWlty3MLjwE1+0j7mvd7lqK4VIagfsN6ohS9TlnpQOCCBQKgGrANKk/GcEKWiJNy1xZ4GTf5z/Xseoj1UUqZooK3hRfzuv3it82Z5wbu1Ti1f65FUf7elVNul4VULZs5ZtZqanAABAAElEQVT0Oav5oZDOk3Yd8TllBVpZ52MfAs0QIEBqhmqTxtz6u+zl6fICJpuWwg4/fCi6fJ0dr5DCnoOkbVrGbqAGSKrIuvyOucFS9+ypVbvDHnPyAz3bptfBLlTSUnd5Zh+f8+mwmsieaaVjdd+S/h2oJQ1VzaTQioYAAs0R+LMLeawlLWGXFzDZsfZ67Dk91UEWImm7wol4QGH9FVQo8Jk4o7L6yPaPcEHRtCtnhRVGFjopmNJPUtNYNoek/Y3cpgqdmfPOD5bNuzsKxNLm1hPInJ8Ykm30no+k+VWz/J7GVfBnVUhyViCk7dbMw78n6mPHWD971XV90JknBXrWh1cEEEAAAQQQaKzAt+bcGg34lXmfDcMLBUP+dutw24LvBotdIKJ22QVzwxDJ9rXT6wlHvy+4bciwKCxTKHX8Ue8LA5u86/Cfx6S+fmWTPit404+FQFoK8NTJZxayUqhlx4VjNTGY0/g0BBAon4Aqh+yZOwp8Zv97zxyf/1XyknRa7k7NP65nS+U/j/6k+/NpZs82BUhaxi4tfFEvP6iJh1GVI1f21b4yhDWneLk91UfxO8bn/hYgQOrvO1DF+f2lyt514Ig+R+YFTHbAr13g47eiy9fZMQopFH5YCKUqGS3bNlDDC133x1zYc8y0E8OKoXiQZG7DXYXQsWecGFYJFbWacYmrUnLPX1LFmHnbeHq1MeVPQwCB5gq87Cp4rI0YW/kMIm3PC5jsWP9VgcX40yYFqhaKV+FYPwUc41yf9555fG5QoSqaGS6o0XhJ1UsaU0vDHTtrSsXybXauZr4q4LK52TOR/PPpOhUIpVVFKXDyl6/TknR++OOPlfZe121hkIKh9a5CKx7IFbkn+xwwPBj3/iPDY6udQ9rc2I4AAggggAAC1QtYxU7aknRWDaSAKa1P9WfNPmLGGbMCVQkVaQ8+9rPo+UOHuqXkjjtmSniYlpXzm+avpeFu+/F3w80a/yvzLnKh2S2ZIdKDbuk6f/k8VQidNvlD/tDh+3Pc2Gt/89lo+zfcc6byxt7wh9+6+fQu16eDz/nwBdEYvEEAgYEn4C8hl7QknQImqz7a2fuf14lQer6RBUg6boJboCIt6FF45C8dl9ZPJ4pX+uRVH+kYXUvWmOpjTRVWY7y/8+kfl/ZcJlVP+RVU/jE2Lq8I9KcAAVJ/6ld5boUJ+klrqgwqsoRZ0X5p59H2z93w5dTdV97z7dR91exQKNLqYKSeuStU04/CJFWDqQJJoZ+qlEa5CqGioVHcSMvZ6Ufj2bgaS+MqQKIhgEBrBBR+ZLWTLpjmnmM0LatL4j5VsWiJtyA4K3wuj4INq4wZtv/w3NAoPmjveEHFeKqaGuqCjyKBR961xs9Z9LPNTc8W0pJ/Vh2l7QqYsuamPknL4xU9t/opYCsyhs3Tvyeaq7bXck+qmSN9EUAAAQQQQKCYgMIhW74uHrjYCHkBk/Vr5Ku/PFzeuM+4pd/0zCG1saPHZS7/pnGf8ip+dJxCJAVW8WokjavnHj244t6KKVx47hUVn+2DKpA0vqqP1DT2+VdMD6a6SqQZbvtYt/yfNe0Lg6nY0nznfvjCqp6dZOPxigACnSOg8MRaUoCUFzDZsXpVFZEqcSwYUkikAGat90hfhVF+pZKOywuE/Eol9S8S1mgpvqTl+HR8vOlZSWkBUryvffbnRPWRqfBaJgECpDLdDebSMQIKjNS8f3fWfW0KjfKWvav7JAyAAAL9KqAQpZGt0eM1am4KihTmtEMrq2E72DFHBBBAAAEEmingV/ns7ypr4k37LWCyZx/F+6R9fuCxewP9FGkKX5KWzytybLV9/vGy77jQ6LOBqn/UFOaoKkk/usah7menrjuhAkoBT3z5Ov/8eu7Rztd2VoROD7gASj9FxlaFFA0BBAa2gIU9Utjpwp9428MFPtaSAibbZ6+PuKLL6d7fUT/hop7ASGGOwqOhbmEQq2jSMQpfsgKhWqqPbC7NeqX6qFmyjNtIgUGNHIyxEEAAAQQQQAABBBBAAAEEEEAAgWYLWHWRzqPl3+LNlq/T9gku5OmEpiBHYVVSlZNCIwVK8fBoiHt2koKnIgHPFRdeldgva+wLz/1i4jGd4M01IIBAdQIVFUYJD/Ae9d7e8ZICpt69Pe9UhXTf1ZXPPlJgpNBF1U7x8EjPYlKIlNb8Sh/1yQqb0sZo9HZ/TlQfNVqX8RolQAVSoyQZBwEEEEAAAQQQQAABBBBAAAEEWiLwogtLrO3tgpV4ywuY4v3b5bNCJFULnXbymcHi+xYGK3/5aFRp5V/DASN7nnc00y1xp2OKNlUqnXbyh4IF/3F78Mw6t8TeS73ONoZCqZmnzwr76Tw0BBBAQAK2hF1adVFewJSkuHllEPz754NAQYuWh4u3N3cFwTOLen70Pq3Fq48UHmWFTWnjNHI71UeN1GSsZgp0Ldr5ZHczT8DYCCCAAALJAv9re8JfyUnuylYEEEAAgQYKXDn6k10NHK7UQx1yyCH8f/1S36HOmNyWLVs65n9T/3t1N/+b6Yyv5YC6io1bep4Hte2l54MD9jso2N/9NCrYsbG1NJ6WyGvk2APqJnGxuQL3XpnbhQ4IhNVHthTeyxv7PwTiliDQCQKfu78r8//LU4HUCXeZa0AAAQQQQAABBBBAAAEEEEAAgQEpMHb3En4TDm/85dvYjR+ZERFAAIHqBbSsHQ0BBForwDOQWuvN2RBAAAEEEEAAAQQQQAABBBBAAAEEEEAAAQQQQACB0gsQIJX+FjFBBBBAAAEEEEAAAQQQQAABBBBAAAEEEEAAAQQQQKC1AgRIrfXmbAgggAACCCCAAAIIIIAAAggggAACCCCAAAIIIIBA6QUIkEp/i5ggAggggAACCCCAAAIIIIAAAggggAACCCCAAAIIINBaAQKk1npzNgQQQAABBBBAAAEEEEAAAQQQQAABBBBAAAEEEECg9AIESKW/RUwQAQQQQAABBBBAAAEEEEAAAQQQQAABBBBAAAEEEGitAAFSa705GwIIIIAAAggggAACCCCAAAIIIIAAAggggAACCCBQegECpNLfIiaIAAIIIIAAAggggAACCCCAAAIIIIAAAggggAACCLRWgACptd6cDQEEEEAAAQQQQAABBBBAAAEEEEAAAQQQQAABBBAovQABUulvERNEAAEEEEAAAQQQQAABBBBAAAEEEEAAAQQQQAABBForQIDUWm/OhgACCCCAAAIIIIAAAggggAACCCCAAAIIIIAAAgiUXoAAqfS3iAkigAACCCCAAAIIIIAAAggggAACCCCAAAIIIIAAAq0VIEBqrTdnQwABBBBAAAEEEEAAAQQQQAABBBBAAAEEEEAAAQRKL0CAVPpbxAQRQAABBBBAAAEEEEAAAQQQQAABBBBAAAEEEEAAgdYKECC11puzIYAAAggggAACCCCAAAIIIIAAAggggAACCCCAAAKlFyBAKv0tYoIIIIAAAggggAACCCCAAAIIIIAAAggggAACCCCAQGsFCJBa683ZEEAAAQQQQAABBBBAAAEEEEAAAQQQQAABBBBAAIHSCxAglf4WMUEEEEAAAQQQQAABBBBAAAEEEEAAAQQQQAABBBBAoLUC72zt6Tr/bFt/tyV4fedr4YUOHrp3MOpvDulz0RvWrOuzregGjadx/fan57cHr7yw3d+U+z5pnNyDquzwipvXs4+vCfT6+s7Xg+EHjnAe7w5GHXZI8K6DRlY5Wt/uvrX2Dj9wZF3jvr7jtWDr77dUnKgVTnbC+PmruR59p7b+/o/B1t/90X0/BgfDne+ow94dHDppvA1f1auNF793R0w+qqpx6IxAqwS2PrMpOtWeQwYHI8YeGH3OevPmrjeCzU/9JvjztleDHS++GuwxdK9gn/32DQ6eMNqNcVDWoYn7NN7LG58Ptm98Idi+6YVwvD333iscb9SEMYnHNHOjXd9Lbi5v7XwjGLb/vsGwA9z1HTEmfK3m3BpLzrq2RljFz70jvAevVGxupZndO5uA7v+eQ/ayj5mvjXTWicz5zy+9Gt23ke47LY+ic8qcMDsRQAABBBBAAAEEEEAAAQQQQACBAgIESAWQinRRiPOTb94R+OGQfnn/uRu+XHH4n1zQc/Ml367YVs0HjRcPBeLnLTLelff8zz5BVJHjivRJsogfd/JHpwZTZ8+oeQ6rlz0e3D3vjophTz9/RnC6G7PWtvTGhcGqZU9UHN5MJ/9Ev17xy/B6LHzUvo/P+XRuILbipw8Ey+9YEoWW/ph6/y4XqsnkmGknxnclftb39yfOVd/TpKbxjvngiYGsaQiUQUC/aH/8B/e5UOP5aDrjT50UvP+ys6LPSW/0C/8nbl8WrHtoTdLucNvB7pf177/0rMJBy6qFjwRrl6wMNHa8rVoYhOHNseecEmh+zW5Frk/zOHbWKYWuL+vadC0jXdgybc6sQmOlXfuSK+e7IK83QFLY9ckfXpHWvaHb1y5dGay665GKe/fJH1xRKKzJs6nGWd/nVQsfDZ7zAtH4heo7pPtGQwABBBBAAAEEEEAAAQQQQAABBJotQIDUAOG8X+I34BSZQ/ihQ2bHFux8zlVg3eICsrw5PeaCj2dXrAkucoFYtdVIqtRZfsfShl6NAql4eNTQE6QMpmtRAPisC5CqbUtc4LXingcyD1MQdPe8H4aBUF7os3z+kjCMyhpQ4ymw0r1TmBmvhss6ln0INFJAAYn94r7acVUhtGze3RVhRdIY+iX+PZfeFMycd35mNZLmsmTO/IoQK2k8Ve08fP2isHqnmQGAzqP5+GFM0nwUnukaZ86bnRr8FL02BXj/9plrw+CuloBM9zJvvknXUO82uydZgU3aOYraFHHWOWSgECuvqc+mp9YFM9z3kmqkPC32I4AAAggggAACCCCAAAIIIIBAPQIESHXoFam0SRo+XkGU1Me2KYjRUm1ZTcuMWSu65NpewwbbIQ17lceP5ny/IjzStR4z7YTwHG+4ZewUtqmfmsIIhSfxKq1wZ8Y/lt+5JLVCJuOw1F2aT6MDqdSTeTvqCR4V9vjh0eBhewfHnnFicJBbIlBt45r1FYGYQh+FPZNd5VdSU4CmPtb88VR1pOXx/Hun7+QDrv/0S2bZIbwi0DIBVWk8/L3FNQUOCgzi4ZEqjcb8/fhgT7d83Ztumbetz24ONrpl7dQUEix2YcwnXCVM2i/r77tmYUV4pH7jTpsU7DemZxm9557ZXFHppADg4CNGh8uRNQMtHh7Fr2/tvU9FdvJYPOeO4OwbPp94fQo1/OouVQUpINrHLYMnKy3T51dxqapL113N8n+aQ5HgpNFWRQObtPPqWn0bu+9asvDN17Q04roK52XzFgZnf+9zicPF52Jj2XdISyyuf/jpaDydd7W7Nyd+ZlrieGxEAAEEEEAAAQQQQAABBBBAAAEEGiFAgFSjYtKSY3o+jEKRrMBHv4yvJjD5iasesfFUqaNn2/hNAZNf7TPjCx/vs8Sd37+Z7x9woYau39rHv/rpcLkz+6xXBRhLbnCVMy5IUtOSafopGqop7PGDk3CQOv8Rn3edwxU6/E4XtPlVRwpsjnEBkLlkDdITePWGPfpehJVc7rtl7dhpJ4VLBKoazAI7BURayi6pasgP0JLG0/3RvdPyi7ZMo6rI/m7ypML3zubGKwL1CGiJuMd/sKxiCFXz6BfwRZqCCr/S5ST3C/iJM46vOFSf/fMoRNJnLR0Wb+sferpiuTGFKydeMK0ijBmnpeLcsfdcclO0RJqWKZvRhGciaT7+9ckmPm9dnxzMTAFO0vXZdrtmXVvS0oDvnX5cGLLJST9aUlDVMUWbAq9Wt3suvbki/FEwNua4wwMtZVekydkPziZOPz509kNGfbdUcWb9FPrIPX4/ZKbxrGkuSVVhum8KK61a6lfuOznxzONTq8dsPF4RQAABBBBohcC27VuDlb/4z+DFl7YGu17fGew/8qDg0EP+Nhjjfg7Yb1RVU9i1a0c41raXtwYvbn8+GDJ4aDD2PeOCCeOPqnosnfiZ3/wi2LDlt33mNmH80cGQIcOqmlu9nZOubX/nc/xR76vp2uLjyf2AkaNqtkq6vo1/+G2w67Ud0a699x4WHPqev40+N/ONXd/GLevD71Ut34X4/IvMd8LhRyd203w2uu9SNS28J1X+b6Ca8emLQCMF9hwSBCMO7R1xx7Yg0E9aG+n67uGOqaZtXVustz/2W7uCYPuGYscV7eWPX/QY65fnon7x8Ytet52jllfdv9Hu7/APO6Dn562dQfDnF4Ng85PZ99E/V3ze/r6092nXFv8+pR3vby9i6/fnfWsECJBqdH7ud3+Mghv9wl3Bzd+5AKme5xvFp6Jf/PvLqilgUADlNwsHbJsqkPqrbXBVL9YUYOhZOUlthqtaWe2eNWTB1+plTxYOIRSIWNM5FFhZoGHbq3lVOOcbz/jCrEBLwzW7Pff73qoyhTMfmzM7PGWRAEmBl9/i4ZHt03dF+647f25oLW+Fb/HnRGnZQT/401J38e+Zjal5zvto73O9trr/HRQN/2wMXhGoR0AVL9b03J1TL50ZVrtYGGL70l437a4s0n4FIvHwyI7T9k3/tS76Zb1CgPgv/tXXKpX0Xr/4TwpYbJ/CHAu/FALscFUlw1wlTyPbr5a6/2e4u411gUjSnLVb21VpZWGE3sebAgprura0ZfdUbaQAxe6BxlQo4ocpNk78VYGNBV46h+6JjRPv28jPfuWQhT+qGCra/Dlqzie50DCp6fug76ydT9+p+D1RRZ0ZaIyk8Ejb5XnGlbOCH358nj6GTd/ntO+w9eEVAQQQQACBZgpsc4HRdbdfHax1IU1am/mBWcG5Z12YG9bol/OLly8MFt+3sCKw8MedOvnM4JyzLigUtig4WrDottS5DXFByMwzeubmn6MZ7/Ou7bYffzeY6EKLyy+4qtC12XgL/uO21OkWdU8dwO3Q/b34a+dUdJl68pnhPCs2NviDrm/B4tvC70La0EW/C/H5p41n2xXAzb8uecl8fT+zzG0M//WKC+cWuqf+MbxHoD8ERk0MglO+2BM82PlX/zgI9JPWPvBPlf3T+vnbbznD/9T3vcIPzUPzsaaAYmnvr6Jsc12vtczdTpjlotDk6E8GwcSZ1rvnNe+6K3tX90nnnHBWz4/ex9uJnw0CGT7y3fwgaYqzHzk2PkL257RrO8jdwzOuyj42vjfLNt6Xz60TGNS6U3XmmVSVcfkdc8PwqNFX6AcFCqmSApk3XCjgt6TqEn9/s94rgPBDCFu2Lu18qoSx5h9n25JetWyb9ZXH1NnTk7pVtU2VQNYUSI3avQScbWvmq6qOzp93cViRlhbYJJ3/ObecnLUjXAVQ1rHa51snBVTx79Cow3qWwbNz+K8az6+C09J2NARaLaBfpCvM0HJg1S6VptBJS7rpR7/4z2pa1s6aqnGSmuZi473XhShZbczxh1fs3vHiKxWfG/Fh+8begG2UWyYvq/nX5wcYdszLXli3n3PLCrvGHNdrpePfcsvb5bX40nUKVvY5YHjeYQ3b31Ppc34Y/hQJu+zE8cAnLViz/vpe2Hck6Txv7Xoz2q/QL8tZx/tGfqBq5+MVAQQQQACBVglscJUpF3/t3NSAxuax+P6FYT+FAmmtJ6g4N/zlvF/tEu//wIp7g6/MuyjQubOafsn/D/M+mzk3nUf9vnDlOUHW3LLOU2Sfru0rbi46V9a1KYSTZ961aa42Xtb5i7hnHa99sm51s++CgsSsVuS7oMq4RrZtriKOhkCnCShwOMH9T326+/vaCm+qadX2zxtbIchHbqoMj/KOKdN+hV6afzw8auYcdf907475hP7SYfqZNLeP/msQjEt+skV0YCPvqaqZaJ0hQAVSjfdRAYaWomtW9UWR6iNN3QIVvc8KErS/mU3BlSpXrPkhg22r51Ue/jN6sqpkip4nKZDynydVdJxa+h1x0qSwEqiWwM+WNNR5Dz2y8pe2SXPRd9SCI1UhvfL8yy4EGhF13cvdu2raGzt6Q8vhB/aOU80Y9EWgVoGR7vk6+oV91i/Z08ZWYFDN0mr+OEm/+Nf+tIoj/1h7/6Z7Dlyzmx9maEm2epoCNguhRo7teZ5T0fHechVIeU3LualSSc2qj/yl3PKOr2e/VR2l3dessdd5y80pGMr7Lo479chAP2ktb3/acdouNxoCCCCAAAL9IaBf8n/j+i9VBCLHHz3FLcU2JZyOlp97cMXPwgoWbdAv8v/5e18KvjXn1nB//B8ay/9lv6pxjnPjDR08LNj5+o7gqV88GoVB6qf+3//GgsSqpgfceVV5ZE3L1E096UPB2EPGuUqQg8Ll7Ja4UEvXoKbl7bLmZuPU+rpg0e3hOez4+LWpUmqluz41BUwKh3RtaUv/3brg2orx/Our1j08aco/FHj59ySlW8M3K7Tyzxv3qua78OJLlYGPxsprae46Tks0WlO/A9ySgXlNS9jRECirQFLVUdG57jG0suf2jfqLhJXbin5Kqjoqemyt/V52S+JlLc8XH9eviIrvU3CTVHUU79eMzwr//GUHVWm0aWXPvdA90rzH7P67rvps1UhJ1679fghVzz3VtfrfkTfdMoQyz2tJ88o7hv3NFyBAqtHYr+qocYjMw4pUH2kAhQHW/NBGQYiFSwopmr20XRggze4NkGxOaa9+5UqR4Mv3UCBSr39aINWqAEnL+DWiqYoprw0eOriiy4an1wXHHNRbAXawW/ZQ98+WFHx2xZrU74vcrJ8GPXTSuIqx+YBAswVauVyXlhuzpsqleps/nsYa1YRnIMWXR8uas1+94le12DFZoYf1sdeXN22zt+Hr0Jyl+eLPENKyba1saUvOFZnD9k29v4jwq7h0rAKxndteCV9VHVdLQJU1B1Vt+dVijfheZp2PfQgggAACCKQJKBTxf8n/Ly4Yij83RsvWaWk2VcKoqcJGP/Ff4ivwUYhj7dwPXxgueWef9arl2DSOxlPTubWcmM4Rb0vvvyvapF/yf2vOLeFzgWyj5qnxrr3tahdy3RtuTpubHVPrq8IhO4fGKHJtCpEUcF34iS/2Oa2s/PH0LCKFclqOz5qu7dYfXxv107UpzDtt8oesS+6rwjU/hMs9oEEddH3+9yrNS+GWzS/ru7DTe3aTjNICzKLT9yvIZjhnWdMQaFcBVazox5p+wf/Mosptti/pNb7M2b3/t/57KKln9jaFG1O+VBlcKABRqBQ/R/ZI1e297+vF+6tqxw+Q/Gf+aJ7x6i3tl4UFN8XPVF1PzcmvKNL9e+LWyjG0TX20LKCaQh1VSMX7ad8+++ufva3We2oj+OP9dnnyOa0vr+UWYAm7Et6fotVHmvorbuk4awoKVi97PLh29tzgmrO/HD6PSc9k0mc9t0bPHSpD0/X5zy3KCyF0Tf5ziux5QfVcy51XVi5dV28gVc9cqj3Wr1rS84vymp5T5LfXvQoi266lGK2pWsmvcrLtum/+M6hUhdesCjw7J68I9JeAnnFjzwfSHKoJU5LmrGXPVHFjTRUw/dkUROi5TtbqvT7/mUCqyskKTsKl65yvtVoryuz4Vr/6ywRaZZbu75I588PnE/3k0puDxbvf/9unr61wrmeuctM5rKn6KL50oO3jFQEEEEAAgWYLrPzlo9Ep9CyaeHhkOxUAqELGmqpH4s3fpsAnKRTSMfpl/WnuXNYefOxn9jZ61S/4/SXg9Et+PdMmqX32E1fkzi3puGq2KRCxVs21+cfZ8Xq9ywUn1jTe1y77TkV4pH0KSnRt2m9NgUs1TQGhNQV+8dDP9jX69aHdgZ7GPfSQv039Luh75c/JKrji8/GXnFP1Wb3tBW8JuyLVR/Wej+MRaKZAPBD5989nP+8oPpc9XNWNNVUe1RIe6XhVz1jVi6pP9Kyj+6+uvZrJ5tTIVz9oUzgUD5Bs2TcZPHlLzzUUqbapd46jT+gdQXZJoZB6rH+g8t76oVPvCJUVQ9pe6z21Mf0KJCqLTKU9X6lAKuF986tt9Ev6yWf3/nI/Pt0/vfBytGnDmvWBqkeSmqqR7p73w3C/Ahg/hEjq38xt8RAiK7xRaLH8jqXRdBqxdJ0CKQtIVMHTiGcpRRNswRtVk1kA92t3v/OqmWz5OpuaX0Fk20531WP6jihk1H6FjvZMqL1cMPm8C6EU4tmx+l5e5JZwpCHQCQKbnvpNYEuuveme3aNKIT88UsCR97wk3+Hljc8HVt2TNJ4ClnoqYPxz1fr+iduXRYcqiDj4iDHR52rfKDzyq2KOnTUlcwgFadZf566maipz4BbsVIjjtz2HDA50/X446O9X/4evXxRsfmpdcMplZ2UGa/5xqmTa7L6X1l5yz6Na/+Aa93/ge5f8a3XVls2FVwQQQAABBFTx4T8zKKuyRWGGlrZ78LGeSp+NXqWRSb7oxrOWNZb6KKiyChy/UsWO3xZbskwhRFrT3A50y4tt2P1spl2vu9+ANrht2rI+GvH4o94XvU96c/zR74uuTUGYjP3wbaN77pN/zQra0sIxXZvCM79iK6n6K2keCq/MWPsvv/Cq4DpXrdWK5leinXpyb1iYdO5TXZioa1KTTVLzv1tDnUk9ze6JjVHveDYOrwj0p4ACgl/8m6sQXVz9LIYd2HvMn1/sfV/rO1XKrP5x/aFFredPO05hiwVE6qM5JjWFSo98t7pl8ZLGqWabX6Hlh1pJY2z3lo9TsKNrioc6/lJ4Wr6u3uaP14jvSL3z4fjaBQiQardrypHx6iMFJllhj/1CX5Ox91rK7rDdz8Z57vdborBEfZ5d8csgmBcE5827WB9b3pbcuDBaWk8n/9hXs5ctUphmS/EptFDQUU/rE0idN6Nfnx1Vy7Xo+UkWIMlm6Q0Lg+kpS+L5z3nKO9fH53w6OMwtSbd8/tKg53v4eBD0/o45PFyB2+SPTA1DzazvZd652I9AmQTWLn2qIjCyuSnoURhS7VJzG11Y4Ffk+ONpybNWLsNn5/ZfNbeNXjihACfvOT7+8f57hWV+eBI+NyljaT4FKn7l06kuVGmntsMtT+e3Xy1dGV2Pqq7suVO6Tj+ElPeb17xR+BlcCjQfcsFTvOkcql7Tdyiryit+HJ8RQAABBBBoqEB3z1JsNubYjJDG+mS9Kgg47ugdYZfjdj9DKa3/0L3db70y2pAhlfv9JcwyDgt3DRlceWxe/yL7/WubMP7ozEPyAom163rCEhtkwuFH2dvE16luyToLkNRBlV5+1U7SQVq6zq9yUqVPWkiVdHy92/wl4fK8ipzLDxTr/Z76Y+nc9Y5XZP70QaCZAvUGHlY1pDnW+uwjHWtVR3kBiPr2R/OrjzY/WVl9pPno2lV1VEsIV+/1aKk/c7PXtDHfKrC8YKPuqc2h0ePZuLy2XoAAqfXmmWeMVx9lVedooGPPODHYcODIMGTRL/RPP396n2XFFDKo6kehgJpCJFWa5I0ddm7gPxRmrLjH1U3ubgrHspZAU0jiL13XiIqXeCCVVd1l8yzb6zEfPDFY8e8PRPfzMbfk3Os7Xw8mf/S06NlFslvx0wd7AkN3AfpuWMCYdj093k9G4yb10/J3+u4ozGv19ydpPmxDoJkCqvbY6KqRhu0/vOaAxZ+fqm5UmbRj26sNGc8fu+j7eLWMwohqqqv88ygk0VJt1lRNdOIF0+xj4qu/BFte2JQ4QMk2WhgmRwVxfqgjH12vVVspUFL/Wr3t0rc+uzn8/tQ7jo3HKwIIIIAAAtUKZC3FljTWiy6UsJb0S3c/NLB+aa/PeCHKWPf8n3hT2KGqHauQUsWTKqCSmsISf7m7tGX4ko4tuq2aa/Orb1RB5Fcf6Xx6npI1XXtesKMx9Iwku0Z/OTcbJ/7qP9uq2vscH6uWz2nLFyaNFfdI6uM/s8j3VMWS7dN30t+XNI62WX/bb8fou2aVdTJP+l7aMbwiUCaBtEqaonP0q1/8SpaRbkk6W95O2/19SWNrebWytnj1UdIScarUaUS1Ti0Gqtoq2vwqKoVeSffF7+Pvr/aeak7+WPps4ylU8iuT8oIvHUvrfwECpP6/B9EMkqqPop0pbxSA5IUg73IBk8KX686fG4UICmZaGQAoPFp+x5LoKvTMnbxqop/Mu6Oiv66jnhZ/llIjAql65lPrsQqDzrvm4vAZVxYKrQqfE+UqhlyLh0UK6lbd17v8XNJ5tczdElfJZE2VRkecdJQLpN4dbnrFhY/PPr4mDJcUSGo5RC2Z2IjnUdk5eUWgvwTCIOOI0eHpX3YBj0KeMOzRUnTuZ9PK3wQfvHJWMGJssXXTD56gsU4Jx3vztTeClze+EFajWPWNQgSFDVoar5VN5/WrhUa666l1KT0LR+JLqvkBSvzaFF5ZmBIuXdfi64/Pp1GfdR+TluHTNc6Yd35wzyU3RUvPqdqtSPCzh6s0su+HvkM7XeioAEreetVPtcviNep6GQcBBBBAAIFqBBTS2DJjOq6ekEa/qF+5+j+j0x96yLjovf9GIYRV3ujZPwpa4kvjaaxvXP+l6DCFJWlBU9SpyW+W3Nf732MnJIRe/nJseeGRTXXMe8ZFAVLaMm/WV4GMv3Tdt+a4v1Jf0qbvlR8gTUyp7vKrhhTuLFh0W7DYOcfDIFVmXXDuF8PALe2S/ecfKSTS+TWe//3WseH37eQPBTNPn1UomEo7H9sRKLtA/Pk2E9ziEqrW8atOdA16FpCqc8ocFKVZ+9VHmr+FIGn9y7zdvxZVLiU1P/TRtdZzT/2x7FzTvx0E/rO3tF3LKKqyS4FmO/vaNXbqKwFSie5stdVH1Uxd4YtCGwU5aqo2UfigsKHZLR4eHTH5qNzn9ugYf+m6vJAs7xpUOdPoZynlnbOZ+/UcpMvnz62oLLPzWaikzzO+MCsMGBUgWVP1kN8UXPrh0cFu7E+5JQ7jgZ2WyVMIaN8hhVYKmPS9oiHQzgLjTj2yz/TXP/R08PjtPw9/YW+VNp/44RUVFSZ9Dtq9QUvexZe9s8DFAhQFOQe70CreL23MercrPNKzeKxZuGGfq3mNX4tCIz2PJ2sZPB3jh1f1LJtXzVwb3VfBjt/kmLUkYbjfVSfZkoYKJItUoMk0HkrJ8FdLVgZr3bJ5aloWb9hCV/X1meyqL3++vEcAAQQQQKCVAgppvjLvouiU9YY0CxbfVvEMoHM+fEE0tv9GVT8KSywMufa2ucFKt3ybwquhg4e5apH1gZ7zYyGC5tXfYYmCLv/5RknX5gcYB7hnNxVpfj9//KRjr/WecyTDoiFV0ljN3uZXSqkSaMYZsxJP6V+zjO2exzsrBPrC184JtGRfWhWUH+ApmPqHeZ+NDxN+1jl1rgcf+1n4vdL3i4ZAJwr4AUG8Use/XlWbnPLFnqoTLfXWLi1+TfVWbPXndSs88u9X2rX4oWD8+v35F7mnVoWm41Tx9JGb+oaL2qfAUedSsHT/1101l/esJu2nlUNgUDmmwSxqqT6qVu3vJk+qOGTr77ZUfG7Gh3h4pHAir2pFFn61kipo4mFGtXNdfmdlIJVX/VTt+P3RXyZz7vl28PE5s8OlAPXsK/0oXDrZhTpzfvrtqDpNFUTWhh84wt6Gr0tvvDv6rHApKTyyDnLzlx3UffIDK+vHKwLtLqBQaZqrOrKmyo+17pf3tTYLbPwKnVULH611uKqOSwqPFPj4cyk6YHJ4dH5meKSx/fBKFThFqnCKzqmV/fYcOrjidPu5Kq48x/GnVf67VxVutTR9h1QxNva4w6PDFShZFVi0kTcIIIAAAgiURODWBddWhCL1hDT6hbwqR6zlPZvniguvCi6/cG5UUaIASVVJ194+N1h8f28FioKS739jQb+GJZqPKlmspV2bAjlrtnyafa731Q+wFHikBTL1nqcRx4fhzIp7o6HOnZn8nCY/PFJnC49UbTT15DPDirN4uBN+z9z9SGr+EoA2lu6DxtJP/PlSOr8CVP++JY3LNgTaVcAPJOy9lnJTpY4qXOLVJBNnBsEJvX+noPSX7VfstHP10ZjjeyrDDFzL3sXvje3zlyWs955q2TtrCqYUFKnaSN8NecaXrtP5pv9LZdBlx/Pa/wJUIPX/PQhn0MzqI7tELUvWyqZn5fhBkMIjLRuXV/V055Xfj6apvvFAKdrp3vjByIan10fnU2WMKp3UdLz/7KXhLnjx5xV22v2PV9zybH577KfLo/nq2UP1Bln+2I16f8y0k9xyhCelDqdqM78pYPKbnoll7dAjx+deo56zdfPuMRUeaSm7I2LhpI3HKwLtLKDqoJFjD3TL2PX8wl/PnqmnKQAY58ITqyCxJcnyAoh6zvmyq3jxwxvNIa9aKO18aeFR3tJ+qubStfrNr0byt2sJQWtvudDO7xevyLF+rXyVn99GjDnQ/9iS9xOnHxdWH9nJNrlKpHYN5OwaeEUAAQQQ6DyBPr/kd5UdtVa0POiqhfyARUvNpVWJmKSe+/OQCxns+T+2Pf668hf/GS4zljde/LhGfdb8bLk9jalnFrV6LloOzvfV+Wu9V41ySRsn/l2YOvnMYGZK9VHQHQRhNZp7DpYCnwlumTuFc1rKzm8K8Px7oO/u1JM+1Gf5OR2vMEhj6fXCT3yxz5KMCo20NKJ97/R58fKFLb+n/vXxHoFmCSiIGOr+c0i/+NcydaouUkDgN1WW+NUvCpG0XFk8PPCPKcP7ePVNWsVOGeaaNQdVCk3pXa01DI6SnuNkY/j3VCGT7mk8bCp6T3WPFRTp+6EfjaXwyG/aru+HxlRT0KRqtaVf7vnMP8sjQIBUgntRa/WRlmV7w/0C35qqT7Ka+reqKTzSc3KsqbKlSHik/n5Fi97bkmk2VtqrghILS451gYoFSPFQyO+XNpZt17OBrB06aVxuuGJ9m/nqh2Z7uYAtLxjUvbCm6iE/wLNlAm3/qMPebW9TX+PfM38+qQexA4ESCKhS462db0QzyVpyzTrtOaS34sSWn7N9tYy3TyyA0HyaFSApPFo8Z75NN2hkeKRB33/Zhws9FyrupoqoIk2+tvSb+pchQNI8/FBRoVpee3Pn6xVd9hyyZ8VnLWlnbY+he+V+H4YdMNy6h6/+d7piBx8QQAABBBDoJwH9At4PJPRL/FpDEf0iXkvQWVPFiKqLsppCBv8Y9VXoZM9fetEFJit/+Z+BghP9gl/zfdEtSXZ5zrhZ56xln67tK94yaLq2r132nVqGqusYf5lBBTLx50XVNXgDD47fV4VtF37iitQzyFMhT17T93PI3kOD63Yv4aeAKCn0mTr5Q4F+spqCt2/NuTW8rxYiqXKO5yFlqbGvXQWyggi7Jqvc0bNvrCksKHuA1AnVRwpn5G7PpFIQlBfMFL2nqjT76L/aHe0JgeJj6x7n3WfN6ZHv9gRHqpRS01J2ql5iKbsej7L8kwCpBHei1uojVdzcOefG6AquvOd/uiXMRkSf42+e/33lknXxSpR4/1o/1xMe1XrOgXTcErfknFUNKRD6nKvqSmsKDVUhZO3YaSfa28TXeKCU1CkeGOUFWEljsA2B/hBQNYtV/+j8n757Tu4v6/2AYJ/YL+63uqqaZdcsjC5l2pXnBGOOGx99TnoTX75MgUEzmoVHtrxZ48Ojs3KvtRnXVYYxx/z94VFVmqp/3tw1LfN7tM5VYPktXrF1z6U3RcvQqZLo/Zed5Xfv837HtlcqtsUDpYqdfEAAAQQQQKDFAvHw6DQXSBT5JX7SNJMCFi2DF68g8Y9VKOSHRwoRdEy8okZz8uf6gKtW2n+/g2oOuvw5FHmveSo8sqXQ0ubpj6VrUOCl1qhl0VR9Y2NqObakZy/5c+iv90lBosK2rO9CNXNVcPaQCx71LCQ1LXlYa+ipOV1w7hejcFD3eO26X4QhZjVzoi8CnSKgEEFVR6NP6LkiBQWPlPjiOqH6KC08ilcT1XobVHGmcNAqh/yl72oZU9VJFiDp+FETCJBqcWzmMQRIzdQtMHat1UcaWhUxflvhllubfsksf1P0vmcZuKXR53glSrSjzje/dsuhJVUeVbP028kfmVpRhZQ1JVUIWcWSrunQI3tMtISdNS1Zp+coFWmqVlrlVexMds8SsoqdeOVNkfGa0UfXaAGSVVPp2pNa/NlPY2PfGd0XXZ8ZKvw73T3nyK45aUy/okn7i1QtJY3DNgRaLaDn1fht9cJHghM/M83fVPFeS6/51TPx5cq0xJ3fFE5lBUgKo/xl8EYWeH6OP37R9zqPKo8aER5pDIVkvoMCjmqWTDt4wmg39VMKTV9L2G10oYyaKrMmTnf/dVGypmcaWWWUfLK+R7oXm/9rXXQFB7vvTLziTN8DW+JPgdSObadkPlNq7dKnovH0ZmQ/LKNXMQE+IPD/s3c3cJJV9Z3wbw+EKIw6GDFC1mFQHwyJomTA9QVlNNGYOPi2RgPqRvLEQV2zgprEjUkYfBI1eVTYjRsB/QhJfMnbKsiYRZMNA2qSR0B8RwnKMD4BFZQxDOgiTO35V8/pvn37Vt2q7uquW13f8/n0VNW95557zvcWxUz9+pxLgAABAvsFyoFMbIp7wjTNFuqFl8OjYQKWaOv9H373gibrwqNcIZYzi/va/P3+++ms1kyR2fAo3RsnBQtRBgmPot76Q9an/sazotvv2Wf9//x6muWUy8PSjJ1yiX5cUr6vVI97CZWPGcfz/F7I5x7UK9cf9PHxaZZaDpC+lWakLafEez8CuRz0le+ftJx2HUtgUgVi6bIcIMUyZRFwjCrMGLXJpM8+yuFRPEaJZQVjdtCovSMYzAHScq9p9C1+cp9j6T2lXQICpDFfj6XOPopux5f8ERzkZduuTGHKfdJ9jqphSez/yze/tyjPLnnyL/3copGXl8QbZGm0agP/+i+7U3j03rnNedm6YcKjOPjJL9y/+OVcS72fXHXZp+bCjwhWIvyoluhH3fZqvXgdVuUA6Sm/9Iyes7rKM3GW4lV3/kG2xb2YYlm/HPpc9NvvLJ6TgsPjS7OL4lpGeFS+99Pxz6y/h1OEZHmZwGjzXf/5j4qX/cGri3Arl9xm2SfqrNRMtvK5PScwCoFNaXZQfHmfg5XPXfJPxUHp9U8+7bgFX9jH/giDPp/2l8tjKmFGtBWBQP7yPx4vS2FLhFLV5fFittI//NeLFwQxcS+baolzl5ckq7ZTrV99HYHFJaXwKPYv9Z5H0Zdo67a0FF4uJ5zy1KHCozgugrZq2Jbbqz5GaJcDpLg2/ZatKy/9NqxT9bzDvI7ZXBFs5dls+X0UNuUy6DWPMC6/h8L84t9+b3fc1ZAuru2n3v0/53ziXA97/DGL3mvlPnhOgAABAgRWS6AaHsXyYr+7xOXYljI7J4/znz6zMz9Ny42dvGjm0dzO/U9iubYcIEWgE0vbreQSbjk8Ks/66Rdylft71JGPnLu3TjkYKtepPv/2/hlLsb06CyvCttyP2H/n9+9IAdwF8XRRKQcqX9/11bl60eZKeuXwaNiwbdEABthQns2UzzfAYT2rrL/vfIA0ivZ6nsgOAhMgMOrwYqWGPOmzj1YrPAr/UV/TcoC0UtdXu0sXECAt3W7ZRy5n9lE++Yt++1eLc07bPhcmfPy9lxRX/+2nul/qR8D0r2nZuptTsFMuETDl+wOVt3/kjz84F57EPYSi7UFLBA/npeAhhxpxXIzvzb/Ue3m1cttNy++V67bl+Tt+dd49lpHrNQto1P2N6xqB2CX/7YPdpsM8Zn3FtY9ZUvG6es1/4v/a2DNEi7a++Mlr546JY9/8wtnxzM5Qum9q8/vdWU/l6xtL18V9rRQCkyIQgc8vvPGUBfcFimXt4ieCoCjxBX4sERaP5RLhQF1IEbNxImTJM3Qi/Iif8uyiCGCq7UU4UA0I4nwRWuXZLdGn57z5tHI3Gp+X+5Ir//mvvSM/7fv43HSuctBz+bkfXhAexcHRt9y/fo3F2JqWYut3fNO+CFPK43rpe15be32a2lnq/gi2YmZRvu7xHvrK319bxCy3CL5iqcJy8BbnidDpqBT4VMsjf/ax3QAp3xsqxvYPyT7CongfRYlt+Vz5+Aiy+s2gy/U8EiBAgACBlRaIe9OUg4cIj+I+MOUv5AftQw5Y8hfuw842yTM+4nyxJF1TiZki5VIOVMrbR/E8jy2fI2aohFM12Ol1rodtnJ9BFG3ET79j43wRwOSS7wGVX5fDpdgWIeAg5Wu7ry/iJ0r4rVSANOs13DJ/5f7He2FvCsWiRJgT3v1Kfs/1qpOvW+zv556PL9fP2zwSWCsCcV+dmHWSS1OYcFCqXy537y2/as/zSZ591Cs8iuXmBinLvabVc+TZRLE9rnfMhOpXyu+ntr4/+vV/re8TII3xCv/lWxbO1inPIBm0W/EF/5kXbu+GNxHYRImZRuXZRuW2YrZJBAZ15bvf/M7c5kMf0vteSnOVSk8iWCiHC6Vda/Zpebz9lnxbCYC4jt0ZQWkmUi69rnsEWy9786tztdrHCMA+kgKp8uyi7vJ4tbWL7uykX0ltDju7rEdzNhNYNYEISCJE+tR7LlvwhXyeAVLtSIROER4d+5z6pdTiS/wIearBTTU8KLcbQcKJL69fOq8cNFWXzCu30et5NWToVW+Q7eW+DFJ/Nessvg/QhtU8fXcmW/W6R8gTP3Wl3zWP+hG2RfCUZzXFtvDv9b5czj2tom2FAAECBAiMSiDCo8X3HFpeeJS/eI8v/OM+N4N8WV83nnKYVLc/tg06k6fX8YNu7xUePbwUCjW19fQ0W+qC9719rlrY97tPT+wvlydsPqn8stXPs1cOdYYNEmNw77/4giKWJYwS76ELz5lf0r+7sfLHP6f7HuVSDRajH6ed+ey8Oy3NuL1vcPaF/fdSygcc+5MLg8q83SOBSRU4+hlF8aTT53t/4X/oHxAc9cT5uhE2NYUJ87VX79kkzz6qhkeh9rGzi2LQ8CjqL+eaRuBTDRFf8CexLH20XBRf+HBRfOr82ed1f0b/y/dRqrZVd4xtqysgQFpd77mzdb+cT8ul5VJddi5vH+QxvsSPmSAx8+jqtKRbDpLKx0aI8IzTnt13lkw5ELEsWVlv8fNYrq9cxuEVQWAsZ/eR//YXc/dEKvcpZiPF/aQGWRIwArAX/fb/3b2v1lX/8x/nlkUstxfPY5yPOvG4bpurHZpV++I1gaUKxCyQmNkRs0binkR1oUsER49M97p5zMlPaJzZEl/mv+Q9Zxax/Nrn0tJ3vcKjmFF0wilbFszyqY6hHEDcP7Wr1AuUw608e6y+5sptLV/3mJVV9z4a5JrnHkao+LC0zGLc4ygv45f35cdo74hHbeoGmvEeVQgQIECAwDgF6sOj85Y186gcHsXsnGEClrCIL/7zfWz+bn/A0m/mycUfmw0YsuNKfNGfw5A8tjjXa19+1tBjixld5fFFOPJzJ27t3kMp9z8/xjnLY4vjqkHcz6Yl/qqzkvLx1ce/v3LH3HJ3cU0ef/yWbpVqm9XjlvK66rXUIPGojY+cO33Yx/uiGgzlCvFeye+b2PZzyaZcwj7Gmq9hLHvYb+bVOy5I39zuLxF+Deqcj/FIoO0C1WDi0c8riqvfV9/rCAfyvXKiRtw7p41lUmcf1YVHl6ffNRjWeTnXNO5xVS3R3hHHzm6N6x/vj17BYdk+jqhrr9q+16srIEAasXfM5BikRKDztk/Mz0Aa5Jh+dSJEikAhfmIJsgiDYkbKTzxiY3dZs0G+7C/f0+fhx83/ZavfefO+OP8ox5PbbXp841/9UVOVofYPel1+kHxziWNGUZZiGMfE7KK43vm6R1/ydR+2X8enpQvjJ7cXx8f7KM4T4dEg76Nhz6k+gVEIvOrSNw3VTHz5n5dY+87+JeYilIgv5e/34EMbQ6O6k8VSZPET7eQ2o14EQet//NBu23XHlbfd8e3b514uJRgZ1mHuZDVPhl0+r6aJoTdlw6YDy/c/WspMrbr2Bz139dh8XHcGUlr+MB7j/fVjKaQcNuQp3y8q7qEUZTntVfvqNQECBAgQGJXAP6XZGotnHp23KKQY5HzVwCCOWUp4FMc9fvOWuSAgZo28+ndenNpK/Upf4pdLzE6KGSr5/kexr+6L/vIyaN06KUQYptSNLWavPCH1cynl1OdtS+M7vXtojO8Nb37FovHlc+bZO1G5GojEtpjRNGiJGTU5PHnYpkf2nPm0El5LfS88Mc24uiDNYssz0f6fc19fnP6S1y0KfuK9XJ7ZNfs++JlFNBEY5aUaI2yK9ra9+LUL3ltxrne8++w5q2ikX9C06CQ2EJgQgQgnYpZIhBdRIgCIWSifv3j2df4zAoSnvi6/mn3sFTQtrDXYq2GXXevVavQ/jyXqjLKPvc4Z25fb/17h0Vf/rt9Z6/fFNY2fHPos95qG4bP3f2Uby9PF88vS1zbl2UUx/s0vXRgwRt/Ldep7a+tqCwiQVlt8Fc6XZ8M8fIhzxaylPAMp7pcjKOiPd/O/fGOuQszIGXeJ6zWqICvGUm5vmPfRuB2cn8BSBOKL/lGWCA3K9xIapu3bvv7NbvXZAOIhwxw6VXX/Nc0cyyVm7bShxDWLn1GVpb6HRnV+7RAgQIAAgV4CEUyUZ1hEvQgtykt89To2tsdSYuWZK7//X1+/4Av3qPPrbzw1HhpLdSmx5/78KUUsRZZnk0Tocdprn92deRLBwCH3XV/c+f29xT9evbMoBywxyyWCpmr5/Fdmg4LYHrNQ/vr8y6tV+r6uG1sEb+XwrVcDL37+tkVBTcygiTHm2UXV8cV1yGPP7Ub91Qox/u6TO+bCmIele2G98/c/kLsx0GMEYjmoygcs9b0Q1ysCnnP2zwaafd9u797rKfq2Pl3zz395PhjL5+uGQjVB4XOfmd5bn9k5d1+pCJ7ipzu7K723wj7uOVV+X8X9wPotM5jP6ZHAJArELJccEET/n/iKooiZSDHzJGaaxJJkP1b5QilChVGGA3G+PHslwo+PDPY7/Qu4I4Qpz5BazQAjfLJhBHDvfcGCrjW+CPNy8BUHRGBXDe3qGoprUQ3KYpm56E9eem451zSuR8wkOmr/3QBirC/+09mQKt4DcY7DHzN/ruhjbK/2qa7vtq2+gABp9c1becbb0yyTXB722OFmH+Xjpunxa5/96txwh52tNXegJwQIECgJlJe+W8rso1JTa/5peaaWoGXNX24DJECAAIGWCexNAVL5S/Lldm/vnelbsxGW3033TTr/fe9YMLuoG6pU7kuTTxnBUq97LX3rtltytSLCgGHLqMcW59+WZtFEySFSPO81vph5lOtHvZUu5fdFOSQc9LzV8GjQ43rVe3oa/5137Z0LtaJenKPuPBEinv7i1/WcHRaBVLxPuiFXCoty6WUfwVK8FxUCa1UgAoLL0mqNTyqFGBFmVAONPP5/TBl9dYZS3rfUx5jZkkt1Cba8velxnPc+Klv927eberp4fw56Fu9Z2pYwvDx9bA16TetCqPKZI2S8O02aLQd0eYZTuV48j3NXZyhV63g9PgEB0vjsW3Xmr107H4ic8AtPalXf2tiZWNYtygPTfYbyjK829lOfCBCYHIHv3Jh+3WZ/ifs0Kb0F8kyth3HqjWQPAQIECBCYUoH4ov+1287qLtEWS45VZ+Rklgg4YmZOzCyJY+pKORB5WLr3T1tKhEJHHfnI4gNpfDHzpVriPkXPeeapqzbzKJ+/HLjFLJ82lJiB9YS0nN37P/TuBaFi7lsER09P95J6TnofNIVesf/Cd3ykiHsm9bKP4CiCu9Wa9ZXH4ZHAOAR2pRkm3/n67CygTU9cOJsk+hMzkSIYiJktSw14+o3r/g+e37uUmU0R4JTDjdWcfRQ9LwdIe785P5ZxPmu6ptG3CA8jPIrHfiVmVeX7McVssZiVVi1x3cL9Cx/ufY+k6jFer76AAGn1zVt5xjyjRiDSfHnK9wf66RYsX9fcYzUIEJgEgVvTvZiixBJ4H7VaWgAAQABJREFUR7VkWbY2uuV7A0XfNnFq4yXSJwIECBBY4wLxJfrf/vnVIxtlLGm3EuXR6Yv8tx6TvrVMJe7hE+Vbt96S7llzePHg9NMUFkT9r6clyXJ5WApshi0rNbboR9zDKH6+vvv6boh05/6ZXA/bdHQx6rAr7kM0SPl2Kcw69ic3D3LIgjqjfF+VG45rHaFi/OT3Qsyki9lnP/6gw3sGiOU2ys+zfcxk+nZ6T0Vb61MIOej7qtyW5wTaJnDeM4frUQQAERIU6SeWKYtZMQelnzvSjJoIRSJEWkoZZDm69aVV32/+wvBnib6//1eGP26QI5pm50Qb5QAplnsbtgxiNGybUX/U1zQCoviJ90a8R+L9cXd6X8R54kdpv4AAqf3XaFV6eMQjHlo88CEPSvfRGf4vxavSwRad5Pt33FWc8Asndnv05Bc+vUU90xUCBCZZIIKjn/zZ44oHHVX6W/AkD2gF+x5OUczUWkFkTRMgQIAAgTUkEGFSlEcfM9ygvp0CglwefczP5KeteoywaNSB0VIH+LUUZuWSzfPrtjyOsl8RTA0SRLZl7PpBYKUFVmKWUb8+5xktEULclmY6TVopB0hNs3nGNbZRXtMIE9s6znH5Tsp5BUiTcqVWuJ/P+c+nrPAZ1k7zMUvrRb/9q2tnQEZCgEArBE449amt6EfbOxH3PHLfo7ZfJf0jQIAAAQJrQ+Br+2cgxXJsgoL+1zSW0rvzzju6lZ6weUv/yvYSIEBgmQI5PIpmJjWUiNk4UczEmXXwZ3sF1rW3a3pGgAABAgQIECBAgAABAgQIEFh9gbzUWZw57mmj9BeIpfRyESBlCY8ECKyUQA5fov2lLP+2Uv0atN0IwGJJtyi7/nH20Z8E2iogQGrrldEvAgQIECBAgAABAgQIECBAYCwC5eXYnrD5pLH0YZJO+oWvzN5nKvrc1uX+JslTXwkQ6C9wxLGz++/eO5kBTDkA++rf9x+rvQTGLWAJu3FfAecnQIAAAQIECBAgQIAAAQIEWiVwyMH3K57+lJOLQw5eb/m6Aa7Mg9P9gMLrqIda7m8ALlUIEFimQCz79tW/K4pR3qNnmV0a6vAIvqL/USbx/k2zPffntAgIkKblShsnAQIECBAgQIAAAQIECBAgMJDA05+8tYgfZTCB5/68+yoPJqUWAQKjELj6faNoZXxtxLJ7k7j03vjEnHmcApawG6e+cxMgQIAAAQIECBAgQIAAAQIECBAgQIAAAQIEWiggQGrhRdElAgQIECBAgAABAgQIECBAgAABAgQIECBAgMA4BQRI49R3bgIECBAgQIAAAQIECBAgQIAAAQIECBAgQIBACwUESC28KLpEgAABAgQIECBAgAABAgQIECBAgAABAgQIEBingABpnPrOTYAAAQIECBAgQIAAAQIECBAgQIAAAQIECBBooYAAqYUXRZcIECBAgAABAgQIECBAgAABAgQIECBAgAABAuMUECCNU9+5CRAgQIAAAQIECBAgQIAAAQIECBAgQIAAAQItFBAgtfCi6BIBAgQIECBAgAABAgQIECBAgAABAgQIECBAYJwCAqRx6js3AQIECBAgQIAAAQIECBAgQIAAAQIECBAgQKCFAgKkFl4UXSJAgAABAgQIECBAgAABAgQIECBAgAABAgQIjFNAgDROfecmQIAAAQIECBAgQIAAAQIECBAgQIAAAQIECLRQQIDUwouiSwQIECBAgAABAgQIECBAgAABAgQIECBAgACBcQoIkMap79wECBAgQIAAAQIECBAgQIAAAQIECBAgQIAAgRYKCJBaeFF0iQABAgQIECBAgAABAgQIECBAgAABAgQIECAwTgEB0jj1nZsAAQIECBAgQIAAAQIECBAgQIAAAQIECBAg0EIBAVILL4ouESBAgAABAgQIECBAgAABAgQIECBAgAABAgTGKSBAGqe+cxMgQIAAAQIECBAgQIAAAQIECBAgQIAAAQIEWiggQGrhRdElAgQIECBAgAABAgQIECBAgAABAgQIECBAgMA4BQRI49R3bgIECBAgQIAAAQIECBAgQIAAAQIECBAgQIBACwUESC28KLpEgAABAgQIECBAgAABAgQIECBAgAABAgQIEBingABpnPrOTYAAAQIECBAgQIAAAQIECBAgQIAAAQIECBBooYAAqYUXRZcIECBAgAABAgQIECBAgAABAgQIECBAgAABAuMUECCNU9+5CRAgQIAAAQIECBAgQIAAAQIECBAgQIAAAQItFBAgtfCi6BIBAgQIECBAgAABAgQIECBAgAABAgQIECBAYJwCAqRx6js3AQIECBAgQIAAAQIECBAgQIAAAQIECBAgQKCFAgKkFl4UXSJAgAABAgQIECBAgAABAgQIECBAgAABAgQIjFNAgDROfecmQIAAAQIECBAgQIAAAQIECBAgQIAAAQIECLRQQIDUwouiSwQIECBAgAABAgQIECBAgAABAgQIECBAgACBcQoIkMap79wECBAgQIAAAQIECBAgQIAAAQIECBAgQIAAgRYKCJBaeFF0iQABAgQIECBAgAABAgQIECBAgAABAgQIECAwTgEB0jj1nZsAAQIECBAgQIAAAQIECBAgQIAAAQIECBAg0EIBAVILL4ouESBAgAABAgQIECBAgAABAgQIECBAgAABAgTGKSBAGqe+cxMgQIAAAQIECBAgQIAAAQIECBAgQIAAAQIEWiggQGrhRdElAgQIECBAgAABAgQIECBAgAABAgQIECBAgMA4BQRI49R3bgIECBAgQIAAAQIECBAgQIAAAQIECBAgQIBACwUESC28KLpEgAABAgQIECBAgAABAgQIECBAgAABAgQIEBingABpnPrOTYAAAQIECBAgQIAAAQIECBAgQIAAAQIECBBooYAAqYUXRZcIECBAgAABAgQIECBAgAABAgQIECBAgAABAuMUECCNU9+5CRAgQIAAAQIECBAgQIAAAQIECBAgQIAAAQItFBAgtfCi6BIBAgQIECBAgAABAgQIECBAgAABAgQIECBAYJwCAqRx6js3AQIECBAgQIAAAQIECBAgQIAAAQIECBAgQKCFAgKkFl4UXSJAgAABAgQIECBAgAABAgQIECBAgAABAgQIjFNAgDROfecmQIAAAQIECBAgQIAAAQIECBAgQIAAAQIECLRQQIDUwouiSwQIECBAgAABAgQIECBAgAABAgQIECBAgACBcQoIkMap79wECBAgQIAAAQIECBAgQIAAAQIECBAgQIAAgRYKCJBaeFF0iQABAgQIECBAgAABAgQIECBAgAABAgQIECAwTgEB0jj1nZsAAQIECBAgQIAAAQIECBAgQIAAAQIECBAg0EIBAVILL4ouESBAgAABAgQIECBAgAABAgQIECBAgAABAgTGKSBAGqe+cxMgQIAAAQIECBAgQIAAAQIECBAgQIAAAQIEWiggQGrhRdElAgQIECBAgAABAgQIECBAgAABAgQIECBAgMA4BQRI49R3bgIECBAgQIAAAQIECBAgQIAAAQIECBAgQIBACwUESC28KLpEgAABAgQIECBAgAABAgQIECBAgAABAgQIEBingABpnPrOTYAAAQIECBAgQIAAAQIECBAgQIAAAQIECBBooYAAqYUXRZcIECBAgAABAgQIECBAgAABAgQIECBAgAABAuMUECCNU9+5CRAgQIAAAQIECBAgQIAAAQIECBAgQIAAAQItFBAgtfCi6BIBAgQIECBAgAABAgQIECBAgAABAgQIECBAYJwCAqRx6js3AQIECBAgQIAAAQIECBAgQIAAAQIECBAgQKCFAgKkFl4UXSJAgAABAgQIECBAgAABAgQIECBAgAABAgQIjFNAgDROfecmQIAAAQIECBAgQIAAAQIECBAgQIAAAQIECLRQQIDUwouiSwQIECBAgAABAgQIECBAgAABAgQIECBAgACBcQoIkMap79wECBAgQIAAAQIECBAgQIAAAQIECBAgQIAAgRYKCJBaeFF0iQABAgQIECBAgAABAgQIECBAgAABAgQIECAwTgEB0jj1nZsAAQIECBAgQIAAAQIECBAgQIAAAQIECBAg0EIBAVILL4ouESBAgAABAgQIECBAgAABAgQIECBAgAABAgTGKSBAGqe+cxMgQIAAAQIECBAgQIAAAQIECBAgQIAAAQIEWiggQGrhRdElAgQIECBAgAABAgQIECBAgAABAgQIECBAgMA4BQRI49R3bgIECBAgQIAAAQIECBAgQIAAAQIECBAgQIBACwUESC28KLpEgAABAgQIECBAgAABAgQIECBAgAABAgQIEBingABpnPrOTYAAAQIECBAgQIAAAQIECBAgQIAAAQIECBBooYAAqYUXRZcIECBAgAABAgQIECBAgAABAgQIECBAgAABAuMUECCNU9+5CRAgQIAAAQIECBAgQIAAAQIECBAgQIAAAQItFBAgtfCi6BIBAgQIECBAgAABAgQIECBAgAABAgQIECBAYJwCAqRx6js3AQIECBAgQIAAAQIECBAgQIAAAQIECBAgQKCFAgKkFl4UXSJAgAABAgQIECBAgAABAgQIECBAgAABAgQIjFNAgDROfecmQIAAAQIECBAgQIAAAQIECBAgQIAAAQIECLRQQIDUwouiSwQIECBAgAABAgQIECBAgAABAgQIECBAgACBcQoIkMap79wECBAgQIAAAQIECBAgQIAAAQIECBAgQIAAgRYKCJBaeFF0iQABAgQIECBAgAABAgQIECBAgAABAgQIECAwTgEB0jj1nZsAAQIECBAgQIAAAQIECBAgQIAAAQIECBAg0EIBAVILL4ouESBAgAABAgQIECBAgAABAgQIECBAgAABAgTGKSBAGqe+cxMgQIAAAQIECBAgQIAAAQIECBAgQIAAAQIEWiggQGrhRdElAgQIECBAgAABAgQIECBAgAABAgQIECBAgMA4BQRI49R3bgIECBAgQIAAAQIECBAgQIAAAQIECBAgQIBACwUESC28KLpEgAABAgQIECBAgAABAgQIECBAgAABAgQIEBingABpnPrOTYAAAQIECBAgQIAAAQIECBAgQIAAAQIECBBooYAAqYUXRZcIECBAgAABAgQIECBAgAABAgQIECBAgAABAuMUECCNU9+5CRAgQIAAAQIECBAgQIAAAQIECBAgQIAAAQItFBAgtfCi6BIBAgQIECBAgAABAgQIECBAgAABAgQIECBAYJwCAqRx6js3AQIECBAgQIAAAQIECBAgQIAAAQIECBAgQKCFAgKkFl4UXSJAgAABAgQIECBAgAABAgQIECBAgAABAgQIjFNAgDROfecmQIAAAQIECBAgQIAAAQIECBAgQIAAAQIECLRQQIDUwouiSwQIECBAgAABAgQIECBAgAABAgQIECBAgACBcQoIkMap79wECBAgQIAAAQIECBAgQIAAAQIECBAgQIAAgRYKCJBaeFF0iQABAgQIECBAgAABAgQIECBAgAABAgQIECAwTgEB0jj1nZsAAQIECBAgQIAAAQIECBAgQIAAAQIECBAg0EIBAVILL4ouESBAgAABAgQIECBAgAABAgQIECBAgAABAgTGKSBAGqe+cxMgQIAAAQIECBAgQIAAAQIECBAgQIAAAQIEWiggQGrhRdElAgQIECBAgAABAgQIECBAgAABAgQIECBAgMA4BQRI49R3bgIECBAgQIAAAQIECBAgQIAAAQIECBAgQIBACwUESC28KLpEgAABAgQIECBAgAABAgQIECBAgAABAgQIEBingABpnPrOTYAAAQIECBAgQIAAAQIECBAgQIAAAQIECBBooYAAqYUXRZcIECBAgAABAgQIECBAgAABAgQIECBAgAABAuMUECCNU9+5CRAgQIAAAQIECBAgQIAAAQIECBAgQIAAAQItFBAgtfCi6BIBAgQIECBAgAABAgQIECBAgAABAgQIECBAYJwCAqRx6js3AQIECBAgQIAAAQIECBAgQIAAAQIECBAgQKCFAgKkFl4UXSJAgAABAgQIECBAgAABAgQIECBAgAABAgQIjFNAgDROfecmQIAAAQIECBAgQIAAAQIECBAgQIAAAQIECLRQQIDUwouiSwQIECBAgAABAgQIECBAgAABAgQIECBAgACBcQoIkMap79wECBAgQIAAAQIECBAgQIAAAQIECBAgQIAAgRYKCJBaeFF0iQABAgQIECBAgAABAgQIECBAgAABAgQIECAwTgEB0jj1nZsAAQIECBAgQIAAAQIECBAgQIAAAQIECBAg0EIBAVILL4ouESBAgAABAgQIECBAgAABAgQIECBAgAABAgTGKSBAGqe+cxMgQIAAAQIECBAgQIAAAQIECBAgQIAAAQIEWiggQGrhRdElAgQIECBAgAABAgQIECBAgAABAgQIECBAgMA4BQRI49R3bgIECBAgQIAAAQIECBAgQIAAAQIECBAgQIBACwUESC28KLpEgAABAgQIECBAgAABAgQIECBAgAABAgQIEBingABpnPrOTYAAAQIECBAgQIAAAQIECBAgQIAAAQIECBBooYAAqYUXRZcIECBAgAABAgQIECBAgAABAgQIECBAgAABAuMUiABp1zg74NwECBCYUoE9M8XMrikdu2ETIEBgnAJ7xnly5yZAgAABAgQIECBAgAABApMikAIkX2BOysXSTwIE1pTAZ9Nodq2pERkMAQIEJkBgpiji81chQIAAAQIECBAgQIAAAQIEGgTWFZ19VzTUsZsAAQIERi9wSafT8fk7elctEiBAoL9AZ+aS/hXsJUCAAAECBAgQIECAAAECBEJgXXHP3eeiIECAAIFVFjhg5uIfFvf4/F1ldqcjQIDATPHDiykQIECAAAECBAgQIECAAAECzQLrnnfoU/ekZex2NldVgwABAgRGIZDufXTR8+77hF3bjzot7oO0cxRtaoMAAQIEBhCYmbnovxx12q4BaqpCgMC0CsxYYnhaL71xEyAwVoH03aTP37FeAScnQGAqBdIS7/H527ekeyClckBxWlF0Giv3bclOAgQIEGgW6HT2dA4ozs4VZzo/TJ+/zR/Wub5HAgQIEFiywJ51+3449/m75FYcSIDA2hbo+AJzbV9goyNAoKUCn50RILX00ugWAQJrWaAz03yP4G6AFL8Jn2Yh+Qf1Wn43GBsBAu0QmJk5e/Yzd7Y78Zvw6V5IPn/bcXX0ggCBNSzQ6cycbfbRGr7AhkZgRAKdTnHFiJrSDAECBAgMKtApLklfYvr8HdRLPQIECIxIIP3dt/EewbMzkNIJn7f+iecWvsQcEb1mCBAgsFhgX/qM7X7WVnb9zlH/8dx9nflZSZXdXhIgQIDAMgX2dfad/TtHveTcZTbjcAIEpkDgngMLnxVTcJ0NkQCBdgkccGBx8Q9+4PO3XVdFbwgQmAaBmZni4qZxzgVIUfF593vS9vRwpuXsQkMhQIDAiATSsnWppTP/w+xnbG2jv3vUS7enmUjp89dydrVANhIgQGBpAnvSzKMzf/eoX9m+tMMdRYDAtAkcddxM/L1t57SN23gJECAwNoGZ4qLDj5vZdebOmXSPYJ+/Y7sOTkyAwNQJpPDooldeNrOraeALAqSo3P3t+APWHVfsK/606WD7CRAgQKBRYGdx4Lrj6mYeVY+MmUjrOvccl6aP+vyt4nhNgACBIQVmipmd8Zlq5tGQcKoTIFAc0L1HsF/q8VYgQIDAKgjsOWDd/GocaRm70zp+qXIV2J2CAIFpF4jP2vRz9iAOKdzvXT78/X/aVNzbeW66P9Jzis6+xxYzMxt617aHAAECBJLAru5Pp3NFsf7gc583c1z8FuvQ5S03XripUxzw3GJm3XM6ReexqQGfv0MrOoAAgWkSSIHRrjTeXfemz997i3vO3X7UaUv6/F1rZhs3bkz/LlAIrKzA7t27+/67cmXPvjKt//9Xdc4oZopzVqZ1rRIgQIBAV6BTnPnvTpg5t6xx/s93zthX+Pwtm3hOgACBUQukfySe+aqPLfz87XWONfcX/V4DtZ0AAQIECBAgQIDAtAkIkKbtio9nvGsxQArJb1zV2Z6W9jhrPKrOSoAAgbUtkFbeOPuhJ8xsrxvlu57Z2V50fP7W2dhGgACB5QrsmynO/k+X1X/+1rW9aAm7ukq2ESBAgAABAgQIECBAgACBaRLofrGZfjs+jdmMxmm68MZKgMBKC+xJ4dCZvcKjOHm6J8f29IXlmek35H3+rvTV0D4BAlMjEJ+pMfNomPAocARIU/MWMVACBAgQIECAAAECBAgQGEYgllZK90Q6Lh3zp8Mcpy4BAgQI1ArsjM/U6rJ1dTVPT0srpVmgx6XlRH3+1gHZRoAAgSEE0ufpzvhMHXTZunLTlrAra3hOgAABAgQIECBAYA0JWMJuDV3MFg9lrS5hVyW/5drOpnvvKdI9KovnpH2PTT8bqnW8JkCAAIGSwEy6R3Cn2JWWq7vingOLc486bmZJM4rSknabUhvPXZc+f/d1isemLzN9/paYPSVAgMAigfT5mz4rd6UZR1fc5z7FuaddvLTP32hXgLRI1wYCBAgQIECAAAECa0NAgLQ2rmPbRzEtAVLbr4P+ESBAgAABAgQIEBi1gCXsRi2qPQIECBAgQIAAAQIECBAgQIAAAQIECBAgQIDAhAsIkCb8Auo+AQIECBAgQIAAAQIECBAgQIAAAQIECBAgQGDUAgKkUYtqjwABAgQIECBAgAABAgQIECBAgAABAgQIECAw4QICpAm/gLpPgAABAgQIECBAgAABAgQIECBAgAABAgQIEBi1gABp1KLaI0CAAAECBAgQIECAAAECBAgQIECAAAECBAhMuIAAacIvoO4TIECAAAECBAgQIECAAAECBAgQIECAAAECBEYtIEAataj2CBAgQIAAAQIECBAgQIAAAQIECBAgQIAAAQITLiBAmvALqPsECBAgQIAAAQIECBAgQIAAAQIECBAgQIAAgVELCJBGLao9AgQIECBAgAABAgQIECBAgAABAgQIECBAgMCECwiQJvwC6j4BAgQIECBAgAABAgQIECBAgAABAgQIECBAYNQCAqRRi2qPAAECBAgQIECAAAECBAgQIECAAAECBAgQIDDhAgKkCb+Auk+AAAECBAgQIECAAAECBAgQIECAAAECBAgQGLWAAGnUotojQIAAAQIECBAgQIAAAQIECBAgQIAAAQIECEy4gABpwi+g7hMgQIAAAQIECBAgQIAAAQIECBAgQIAAAQIERi0gQBq1qPYIECBAgAABAgQIECBAgAABAgQIECBAgAABAhMuIECa8Auo+wQIECBAgAABAgQIECBAgAABAgQIECBAgACBUQsIkEYtqj0CBAgQIECAAAECBAgQIECAAAECBAgQIECAwIQLCJAm/ALqPgECBAgQIECAAAECBAgQIECAAAECBAgQIEBg1AICpFGLao8AAQIECBAgQIAAAQIECBAgQIAAAQIECBAgMOECAqQJv4C6T4AAAQIECBAgQIAAAQIECBAgQIAAAQIECBAYtYAAadSi2iNAgAABAgQIECBAgAABAgQIECBAgAABAgQITLiAAGnCL6DuEyBAgAABAgQIECBAgAABAgQIECBAgAABAgRGLSBAGrWo9ggQIECAAAECBAgQIECAAAECBAgQIECAAAECEy4gQJrwC6j7BAgQIECAAAECBAgQIECAAAECBAgQIECAAIFRCwiQRi2qPQIECBAgQIAAAQIECBAgQIAAAQIECBAgQIDAhAsIkCb8Auo+AQIECBAgQIAAAQIECBAgQIAAAQIECBAgQGDUAgKkUYtqjwABAgQIECBAgAABAgQIECBAgAABAgQIECAw4QICpAm/gLpPgAABAgQIECBAgAABAgQIECBAgAABAgQIEBi1gABp1KLaI0CAAAECBAgQIECAAAECBAgQIECAAAECBAhMuIAAacIvoO4TIECAAAECBAgQIECAAAECBAgQIECAAAECBEYtIEAataj2CBAgQIAAAQIECBAgQIAAAQIECBAgQIAAAQITLnBgv/53bjxjQ3HPXa8pOjNbik5nU6obPwoBAgQI9BTo7Clm1n222HfvJUXnwItnjjlvV8+qfXZ0rt20oSgOTp+/nfT52/3s3dSnul0ECBAgUMykz9/OZ4vOukuKdfdePHPcV3ZBIUCAwCgFtt94+4a7frDuNZ2is2Um/du449/Ho+TVFgECa1GgU6S/nxWf7XQ6lxw4U1z81mMO3bWUYW64sLNh3z3FazqdYstM+vexz9+lKDqGAIEpE+h+/qbPzEvW7Ssu3vPKmV1LHX/6e+/i0rnuFZuKAzoXdr+4XLzbFgIECBAYVGBm5qLi3pmzBw2SOtf+5KYU2qfP32LLoKdQjwABAgTqBNLn77p9Z097kLRx48b0HYtCYGUFdu/eXfvvypU96+q1/obrbt90b5H+flb4+9nqqTsTAQJrU2DmogOKfWcPGiRteFdn070HFP59vDbfDEZFgMBqCswUFx1wb3H2UoKkRUvYda5/+WvSb21eKzxazSvoXAQIrFmBTudl6QvMaztf2XZG0xg71x7zmmLfuvT568uJJiv7CRAg0CyQPn/3zVzbueaYxs/f5rbUIEBgWgV+4yvfe829nZlr0/i3TKuBcRMgQGB0Ap2X3Tszc+1vfvn2xr+f3f+CzmvuXVf49/Ho8LVEgMA0C3SKl8Vn6v3P7zR+/laZFgRInX/Zdlb6zfdzi2JmQ7Wi1wQIECCwZIENadr+Od3P2B5NpJlHZxX7ivT52/H528PIZgIECCxBID5Tz+lc+1NnLeFYhxAgMOUCv3nd99K/jzvnpr/H+fvZlL8XDJ8AgREKdIoNnZmZc7qfsT2avf+7O2el5erSv499/vYgspkAAQJLEdiQlqc4Jz5jhzl4LkDqzjzaV2wf5mB1CRAgQGAIgfQZWzcTaXbm0cz2IVpSlQABAgSGEdjX2W4m0jBg6hIgEDOPOkVnOwkCBAgQWBmB+Iytm4kUM486vp9cGXStEiBAIAnEZ+wwM5G6a1V373kUy9aZeeRNRIAAgZUW2JOWqTsu3xOpe8+jWLbOzKOVdtc+AQIE9hTrOsdN2z2R3APJG381BNbaPZC69zyKZevMPFqNt49zECAwzQIzxZ4DOp3j8j2Ruvc8imXrzDya5neFsRMgsDoCew7YVxw3yD2RZmcgHRDTlixbtzrXxlkIEJhygQ3FAZ0L5wz2rUufv5atm/PwhAABAisnsCEt1Tz/+bty59EyAQITLnBvkf5+Jjya8Kuo+wQITIRAWs7u3mL+72f3HlCkfx9btm4irp1OEiAw6QIb0mfuQP8+npmdfbTvxkkfsf4TIEBgogQOOvjQYs9lG9IN3n3+TtSF01kCBCZeYN33D505bteeiR/HgAMwA2lAKNWWJbCWZiB1Zx8V/n62rDeEgwkQIDCkwCH36Rx67mUbNqQbvPv38ZB2qhMgQGA5AgccVBy657SZvv8+XlfM3PPc5ZzEsQQIECCwBIG77zojhUc+f5dA5xACBAgsS2DfwWcs63gHEyCwpgXu6RT+framr7DBESDQRoG7flCcsW+dz982Xht9IkBgbQvsu7to/PfxgcW6A55TdDprW8LoCBAg0DaBmZmT0tIoafW6tnVMfwgQILDGBWY6J63xERoeAQLLEJiZmXnOMg53KAECBAgsQaBTzJzU8e/jJcg5hAABAssTSJ+9jf8+PjCFR49d3mkcTYAAAQJDC3Q6m9K9ODZIkIaWcwABAgSWJ9ApNi2vAUcTILCmBTrFY7u/5LOmB2lwBAgQaJ1A+vexex+17qroEAECa19ggH8fH5gU0heYCgECBAisssAm4dEqizsdAQIEZgU2gSBAgEBPgRn/Pu5pYwcBAgRWTmDTyjWtZQIECBDoI7Cpz77urnVNFewnQIAAAQIECBAgQIAAAQIECBAgQIAAAQIECBCYLgEB0nRdb6MlQIAAAQIECBAgQIAAAQIECBAgQIAAAQIECDQKCJAaiVQgQIAAAQIECBAgQIAAAQIECBAgQIAAAQIECEyXgABpuq630RIgQIAAAQIECBAgQIAAAQIECBAgQIAAAQIEGgUESI1EKhAgQIAAAQIECBAgQIAAAQIECBAgQIAAAQIEpktAgDRd19toCRAgQIAAAQIECBAgQIAAAQIECBAgQIAAAQKNAgKkRiIVCBAgQIAAAQIECBAgQIAAAQIECBAgQIAAAQLTJSBAmq7rbbQECBAgQIAAAQIECBAgQIAAAQIECBAgQIAAgUYBAVIjkQoECBAgQIAAAQIECBAgQIAAAQIECBAgQIAAgekSECBN1/U2WgIECBAgQIAAAQIECBAgQIAAAQIECBAgQIBAo4AAqZFIBQIECBAgQIAAAQIECBAgQIAAAQIECBAgQIDAdAkIkKbrehstAQIECBAgQIAAAQIECBAgQIAAAQIECBAgQKBRQIDUSKQCAQIECBAgQIAAAQIECBAgQIAAAQIECBAgQGC6BARI03W9jZYAAQIECBAgQIAAAQIECBAgQIAAAQIECBAg0CggQGokUoEAAQIECBAgQIAAAQIECBAgQIAAAQIECBAgMF0CAqTput5GS4AAAQIECBAgQIAAAQIECBAgQIAAAQIECBBoFBAgNRKpQIAAAQIECBAgQIAAAQIECBAgQIAAAQIECBCYLgEB0nRdb6MlQIAAAQIECBAgQIAAAQIECBAgQIAAAQIECDQKCJAaiVQgQIAAAQIECBAgQIAAAQIECBAgQIAAAQIECEyXgABpuq630RIgQIAAAQIECBAgQIAAAQIECBAgQIAAAQIEGgUESI1EKhAgQIAAAQIECBAgQIAAAQIECBAgQIAAAQIEpktAgDRd19toCRAgQIAAAQIECBAgQIAAAQIECBAgQIAAAQKNAgKkRiIVCBAgQIAAAQIECBAgQIAAAQIECBAgQIAAAQLTJSBAmq7rbbQECBAgQIAAAQIECBAgQIAAAQIECBAgQIAAgUYBAVIjkQoECBAgQIAAAQIECBAgQIAAAQIECBAgQIAAgekSECBN1/U2WgIECBAgQIAAAQIECBAgQIAAAQIECBAgQIBAo4AAqZFIBQIECBAgQIAAAQIECBAgQIAAAQIECBAgQIDAdAkIkKbrehstAQIECBAgQIAAAQIECBAgQIAAAQIECBAgQKBRQIDUSKQCAQIECBAgQIAAAQIECBAgQIAAAQIECBAgQGC6BARI03W9jZYAAQIECBAgQIAAAQIECBAgQIAAAQIECBAg0CggQGokUoEAAQIECBAgQIAAAQIECBAgQIAAAQIECBAgMF0CAqTput5GS4AAAQIECBAgQIAAAQIECBAgQIAAAQIECBBoFBAgNRKpQIAAAQIECBAgQIAAAQIECBAgQIAAAQIECBCYLgEB0nRdb6MlQIAAAQIECBAgQIAAAQIECBAgQIAAAQIECDQKCJAaiVQgQIAAAQIECBAgQIAAAQIECBAgQIAAAQIECEyXgABpuq630RIgQIAAAQIECBAgQIAAAQIECBAgQIAAAQIEGgUESI1EKhAgQIAAAQIECBAgQIAAAQIECBAgQIAAAQIEpktAgDRd19toCRAgQIAAAQIECBAgQIAAAQIECBAgQIAAAQKNAgKkRiIVCBAgQIAAAQIECBAgQIAAAQIECBAgQIAAAQLTJSBAmq7rbbQECBAgQIAAAQIECBAgQIAAAQIECBAgQIAAgUYBAVIjkQoECBAgQIAAAQIECBAgQIAAAQIECBAgQIAAgekSECBN1/U2WgIECBAgQIAAAQIECBAgQIAAAQIECBAgQIBAo4AAqZFIBQIECBAgQIAAAQIECBAgQIAAAQIECBAgQIDAdAkIkKbrehstAQIECBAgQIAAAQIECBAgQIAAAQIECBAgQKBRQIDUSKQCAQIECBAgQIAAAQIECBAgQIAAAQIECBAgQGC6BARI03W9jZYAAQIECBAgQIAAAQIECBAgQIAAAQIECBAg0CggQGokUoEAAQIECBAgQIAAAQIECBAgQIAAAQIECBAgMF0CAqTput5GS4AAAQIECBAgQIAAAQIECBAgQIAAAQIECBBoFBAgNRKpQIAAAQIECBAgQIAAAQIECBAgQIAAAQIECBCYLgEB0nRdb6MlQIAAAQIECBAgQIAAAQIECBAgQIAAAQIECDQKCJAaiVQgQIAAAQIECBAgQIAAAQIECBAgQIAAAQIECEyXgABpuq630RIgQIAAAQIECBAgQIAAAQIECBAgQIAAAQIEGgUESI1EKhAgQIAAAQIECBAgQIAAAQIECBAgQIAAAQIEpktAgDRd19toCRAgQIAAAQIECBAgQIAAAQIECBAgQIAAAQKNAgKkRiIVCBAgQIAAAQIECBAgQIAAAQIECBAgQIAAAQLTJSBAmq7rbbQECBAgQIAAAQIECBAgQIAAAQIECBAgQIAAgUYBAVIjkQoECBAgQIAAAQIECBAgQIAAAQIECBAgQIAAgekSECBN1/U2WgIECBAgQIAAAQIECBAgQIAAAQIECBAgQIBAo4AAqZFIBQIECBAgQIAAAQIECBAgQIAAAQIECBAgQIDAdAkIkKbrehstAQIECBAgQIAAAQIECBAgQIAAAQIECBAgQKBRQIDUSKQCAQIECBAgQIAAAQIECBAgQIAAAQIECBAgQGC6BARI03W9jZYAAQIECBAgQIAAAQIECBAgQIAAAQIECBAg0CggQGokUoEAAQIECBAgQIAAAQIECBAgQIAAAQIECBAgMF0CAqTput5GS4AAAQIECBAgQIAAAQIECBAgQIAAAQIECBBoFBAgNRKpQIAAAQIECBAgQIAAAQIECBAgQIAAAQIECBCYLgEB0nRdb6MlQIAAAQIECBAgQIAAAQIECBAgQIAAAQIECDQKCJAaiVQgQIAAAQIECBAgQIAAAQIECBAgQIAAAQIECEyXgABpuq630RIgQIAAAQIECBAgQIAAAQIECBAgQIAAAQIEGgUESI1EKhAgQIAAAQIECBAgQIAAAQIECBAgQIAAAQIEpktAgDRd19toCRAgQIAAAQIECBAgQIAAAQIECBAgQIAAAQKNAgKkRiIVCBAgQIAAAQIECBAgQIAAAQIECBAgQIAAAQLTJSBAmq7rbbQECBAgQIAAAQIECBAgQIAAAQIECBAgQIAAgUYBAVIjkQoECBAgQIAAAQIECBAgQIAAAQIECBAgQIAAgekSECBN1/U2WgIECBAgQIAAAQIECBAgQIAAAQIECBAgQIBAo4AAqZFIBQIECBAgQIAAAQIECBAgQIAAAQIECBAgQIDAdAkIkKbrehstAQIECBAgQIAAAQIECBAgQIAAAQIECBAgQKBRQIDUSKQCAQIECBAgQIAAAQIECBAgQIAAAQIECBAgQGC6BARI03W9jZYAAQIECBAgQIAAAQIECBAgQIAAAQIECBAg0CggQGokUoEAAQIECBAgQIAAAQIECBAgQIAAAQIECBAgMF0CAqTput5GS4AAAQIECBAgQIAAAQIECBAgQIAAAQIECBBoFBAgNRKpQIAAAQIECBAgQIAAAQIECBAgQIAAAQIECBCYLgEB0nRdb6MlQIAAAQIECBAgQIAAAQIECBAgQIAAAQIECDQKCJAaiVQgQIAAAQIECBAgQIAAAQIECBAgQIAAAQIECEyXgABpuq630RIgQIAAAQIECBAgQIAAAQIECBAgQIAAAQIEGgUESI1EKhAgQIAAAQIECBAgQIAAAQIECBAgQIAAAQIEpktAgDRd19toCRAgQIAAAQIECBAgQIAAAQIECBAgQIAAAQKNAgKkRiIVCBAgQIAAAQIECBAgQIAAAQIECBAgQIAAAQLTJSBAmq7rbbQECBAgQIAAAQIECBAgQIAAAQIECBAgQIAAgUYBAVIjkQoECBAgQIAAAQIECBAgQIAAAQIECBAgQIAAgekSECBN1/U2WgIECBAgQIAAAQIECBAgQIAAAQIECBAgQIBAo4AAqZFIBQIECBAgQIAAAQIECBAgQIAAAQIECBAgQIDAdAkIkKbrehstAQIECBAgQIAAAQIECBAgQIAAAQIECBAgQKBRQIDUSKQCAQIECBAgQIAAAQIECBAgQIAAAQIECBAgQGC6BARI03W9jZYAAQIECBAgQIAAAQIECBAgQIAAAQIECBAg0CggQGokUoEAAQIECBAgQIAAAQIECBAgQIAAAQIECBAgMF0CAqTput5GS4AAAQIECBAgQIAAAQIECBAgQIAAAQIECBBoFBAgNRKpQIAAAQIECBAgQIAAAQIECBAgQIAAAQIECBCYLgEB0nRdb6MlQIAAAQIECBAgQIAAAQIECBAgQIAAAQIECDQKCJAaiVQgQIAAAQIECBAgQIAAAQIECBAgQIAAAQIECEyXgABpuq630RIgQIAAAQIECBAgQIAAAQIECBAgQIAAAQIEGgUESI1EKhAgQIAAAQIECBAgQIAAAQIECBAgQIAAAQIEpktAgDRd19toCRAgQIAAAQIECBAgQIAAAQIECBAgQIAAAQKNAgKkRiIVCBAgQIAAAQIECBAgQIAAAQIECBAgQIAAAQLTJSBAmq7rbbQECBAgQIAAAQIECBAgQIAAAQIECBAgQIAAgUaBAxtrqECAAAECBAgQIECAAAECBAgQmBCBb33ps92eHnTI+uLQTY9Y1Ovbd91Q3H3n3u72H//px87t/2Ha9t20b6nl0KMeURx08PoFh5fPtWBHnxflPuVqg7bzwDTeH0njHrRkq0Hrl+tVxztoH8ttxPNe16lcL67NDTsvK+689ZvF3Xv3Foc8+CFFjPUh6foNM95ym54TIECAAAECzQICpGYjNQgQIECAAAECBAgQIECAAIEJELj9xhuKj511Rrenx2x9QXHCy169qNeXvv7XutsifHjG2efO7Y/wKB87t3GIJ8//k79YFCBd/ke/U+z99jeHaKUo/uPf7FxU/6oL31l8c38wtmhnZcMDU5AVYzvmF1/QDVoqu+deRr+WM96fT3blsGspY43OPHzLM4snvfoNc/0qP4ng6KqL3lnccPll5c1zz9enICmOf8wLXza3zRMCBAgQIEBgdAICpNFZaokAAQIECBAgQIAAAQIECBAYo8DeNEMll/WHPSQ/nXuMgCmXmEGz0mXY8GgU/fluGmP8fHnH33SDlUkNV+6MgGv7GX0DuPD93F9d1J2Z9MT/VB9CjcJUGwQIECBAYFoFBEjTeuWNmwABAgQIECBAgAABAgQIrDGB8hJ0scRZtfQLmGL5uZi5M2iJtvoFRHmZvNxe9CeWa1tuiTaqY4tzRX+q54xwJZaWe2Ka4VNdXi/6Mcx4o+2yb79x1PWxV/2YMVVXquFR9PWhjzuxaxizsWL5vewfM5TinMfXzDira9s2AgQIECBAYDABAdJgTmoRIECAAAECBAgQIECAAAECLReIsCSXuhlG5QCkGsJE/fKSdrmdXo8fT0vl5QAjllKLn3Ip9yW2P+NN59aGOOVjBnke/e7Vz+jP19K9guIn9233pz9ZHJSWwKvO0In+9mqnrh//+N/fOhcgxbHl5euq9fv1sVq37nUEX7n/sb+6HGEsWxf7P16aoRQzrh56wol9+1V3LtsIECBAgACB3gLreu+yhwABAgQIECBAgAABAgQIECAwOQI5dIjZKHUzbsqhTl3ANOhIY/ZL+Z5EdcvElWcD9erPoOcbtF4EO9GXZ2w/d0GgFTN0vpGCpKWWWE6ufB+iuvEute3qceEWAVguMaa6e1l1A7A0zrDNJYInhQABAgQIEBidgABpdJZaIkCAAAECBAgQIECAAAECBMYokGcYVWcX5S7lUGe5gc6n0mycXCLIiBkx1ZLDrNgedVaz1IUrV130ziV34XN/fdHcsb3GO1dhmU++cdUnF8w+elKfextV+xKh3t137V1mDxxOgAABAgQIZAFL2GUJjwQIECBAgAABAgQIECBAgMBECcSMk7pZJxEk/NkLtvQcSwRJ5f1b3/aeRfcV6nVweXm4qNNrNk45yKibDdWr/VFtj3DlmGe9YM4nAq2YOdVv6bm6c6/m7KM4f3mmVIyhqb8b032Rrvvo38x1PY6vC/TmKnhCgAABAgQIDCxgBtLAVCoSIECAAAECBAgQIECAAAECbRIoL0m3nH71mrFU12Y5sKrOgCnXL/ftkMPmZyDF9ghy4ifCmZUsESCVl3jbnWb3DFtWc/ZR9K08c+vQdL+nphIBU3mMeRZa03H2EyBAgAABAs0CZiA1G6lBgAABAgQIECBAgAABAgQItFAgAoY8u+e7N91QfPfGG7q9jFkpeXvu9t5bvzl336KHpNBh/f5Qpxw+5Lq9HgedfRTH5+Xy4nkETdft+Jsiwpjy9tj3wKMe0Z0ptBKzZmJsEY7l+zXdvt8nzjtIWe3ZR9GncgA0aLAX1/K7d85e+3IANcgY1SFAgAABAgR6CwiQetvYQ4AAAQIECBAgQIAAAQIECLRYoLx83M4/+p25AOmJr37DogApApwcpMRxTUuj1Q170NlHcWwEVrlUg6e8PR4j9PrUO99axMyk41/26vKukTyPkC2Pu9ynQRpf6uyjWL5vkNlVEXD9SPrJpRr+RPA2SDk0hXA5eCrP/BrkWHUIECBAgACB3gICpN429hAgQIAAAQIECBAgQIAAAQITIpBn9kQoUZ19FEP41pc/OzeSCByGLdUQqBxe1bVVDkPy85hREz8RsETgkbfH8V9OAVeUUYdI5RlW5fN1T9bnj+XMPopQ7H+86pf7tD67K2ZdPSmFfQoBAgQIECDQTgEBUjuvi14RIECAAAECBAgQIECAAAECQwjkGSi9lj1rCpiaTjXM7KNo65itL+jOwonQJgKrE9LsonKYE3UilIp2c7ATIdJDTzhxSbOjor1RlqXOPhplH7RFgAABAgQIjFdAgDRef2cnQIAAAQIECBAgQIAAAQIElikQ9/bJAVGv2UVNAVO/Lgw7+yjaisCoqcQMnLh/z8fOOmOu6g2XX7ZiAVI1wJo7aeXJt7702SL6kUvTbKtcLz92Z4GVlqbL26uPB62fX76uus9rAgQIECBAYPwCAqTxXwM9IECAAAECBAgQIECAAAECBJYhEEvC5RKBTLVEuJQDpvI9d6r1er0edvZRr3bqtse9mB7+1GcWX9sf2Hzjqk/WVVvytvI9gQa9p9ByxxuzwJ5x9rlL7vOwB5bvt1R3/YdtT30CBAgQIEBgVkCA5J1AgAABAgQIECBAgAABAgQITJzAjtf/Wvc+QtWOX3XhO4v46VW+8elPFn/2gi3d3Q9MS8tt/X/f06tqd/tSZh/1bbBm50NSiJQDpAi6Ykm7QcOemuYWbMrL48XGQ2rCtQWV04uYffTN9JPLsLOP8nFLeYwxx+ylHPbFrLGHD9BQrh9VlxIQDnAKVQgQIECAwFQKrJvKURs0AQIECBAgQIAAAQIECBAgMNECeUm65QxikEBlubNxBunfSs2aiZk5ZacIqprKaoy3Xx/KFrE04SClPMZRBW+DnFcdAgQIECCw1gXMQFrrV9j4CBAgQIAAAQIECBAgQIDAGhOIWTXlMCQChDwLpbw9D3vvrd/szuqJ17G8Wr4X0MbHnZir1D4udfbRD0tL5kXDh6SZNf1K7nuuM6p7A33ury/KTXYfH3pC//GOc/ZR7mgs6ZcDoe51TcsTHnRw73slRZ/Lpe76l/d7ToAAAQIECAwuIEAa3EpNAgQIECBAgAABAgQIECBAoAUCMcukfI+dv/iVrd1eRXhQ3p67+vGzzugGSBEcbX1b/yXr8jHxuNTZODek+xldddH8Mnq//Gc7+oYg5fsedZdx6xOYlPvX73ks1Rf9yCXus9Q0O2ep483nGMVjhHrXffRvuk1FsBZL+x3zrBf0bDpCvnKJAEohQIAAAQIERiNgCbvROGqFAAECBAgQIECAAAECBAgQGINAhAx5Bk+v+9/kGS0x+2jQstTZR9F+3FupXK7bMRuIlLfl57HMXDnoGUUAEuf71H9/az5F9/Exv/SyBa+rL9ow+yj6FOPPM8TidYRJd6dZSHUl+ly2i5Cs32ylujZsI0CAAAECBHoLmIHU28YeAgQIECBAgAABAgQIECBAoOUCt6fl63KpW75skIApH19+XM5snAhBYrZPLLUXJdqKUKQ6kyYCkGGDnghTInSqltj+zdRezDyKx3I54bRXT8Tso9znx7zwZcVVF87O4ArDmEH21N/4/QVLAS7FLrfvkQABAgQIEBhMQIA0mJNaBAgQIECAAAECBAgQIECAQAsFvnvjfIBUN8OoHDDV7a8b0nJmH+X2nvqbv19c+vpfyy+7gUjMpunegyktUffdm24oyn2PihGcNC0zF8f8j1f98ly7TU8iPKoGV9Vj2jL7KPcr+lsOwvKYIyBcf9hDlmyX2/dIgAABAgQIDCYgQBrMSS0CBAgQIECAAAECBAgQIECghQJ7b52fjVO3hF05pKkuLddrOMuZfZTbPDQtlxchUtwLKc9Eisf8PNfLj4MEPbnuII8RtkQgNciSeKMY7yB9GqbOlmQXM4/y8oNxbHVmVW4vxhk/CgECBAgQIDBaAQHSaD21RoAAAQIECBAgQIAAAQIECKyiQJ5hFEvE1c0wKgdMh6TZK01lFLOP8jke+rgTiwiSPvfXF3Vn1OR7NeX9uc/Hp1lCdX3P9QZ5jJlLMTvn0HT/pY0nnDhQcBTtlmf6xOu2BDFhs/Vt7yniekTAVRe8DROSxdgUAgQIECBAYDiBmc5Xt3WGO0TtNgnccecPi+tv/F63S4c/+ODiiPRTLdd88bbupvsd8iPF0Uc9YMHu8vELdgzwItqKNnPJ58mvB32s9vvmb99V3JJ+mkr1/E316/bH+K/49C3FV3ftKfbu/WERfTn6qA3F0ZseUGtZ10Z1W7S54/KbiptvvWtBm1sed3i16kCvR93eQCdVaXUE9n5idc7jLCMXuPm2e4pbbr2n2+7RRx5U3O/gdQvOccdd+4rrb7q7u+3www4sjnjQwt/XKB+/4MABXmw+5j5ztcrnmds44JO6ftcdGue44uq7im6fb/thsf7gA7rjPXrjQcXmn7rPorHXtTHoeAftU9058rY4V+7v3rvuLQ5/UPp/3xB9ze3EY93Y41qedHz6/23lmpaP87z9AjObr5tpfy9H08ONGzf6u/5oKLXSR2D37t1r5r+p37huj/9m+lxru5YvEGFXvidTBD4RaEVQojQLhF2ESHGvp4PSEoARuB2SDJW1IXDelQu/r1obo5qeURyZPsY23n92vJ9PX0N+b/afw3MAGw4qikc/aPbl7n8ripv2zu3q+eTI+xXFs46cbTeOv+mOovjCd4pix66eh8ztKJ9vbmPNk+hn9Hc5JZ/rxPS1X/R5T2ozxvjJNDl2KW0vt73ytRh2XJ+4eeERTz5i4etBXw16jQdtT72VFbjj9Jm+f5df+I3WyvZF6ysgEEHF29/7+W7Lb/utJywKPSLUOf33ruzu3/aiYxYFSBGebP/jq5fUs4+c98wFAVI+z7CNRb/iJ5d3/+V1xaVpXIOUCMw2P+qw4uUvPGbR2PsdHyHVu/8qnecfep/n5KcdOVS70ebZ77ymuOaLt9aeOvq69alHLhhrbcX9G0fdXr9z2UeAwHAC73jfd4udV9/ZPejyC9LfaCvlg5f9W3HBh27vbj3/jYcvChve/aE9xaVXpr/9DlmOSGHUR8556NxREVKd/ge3zL0e5kn0qxxGVY+NIObs828trrnuB9VdC16f/JT1xcuff+iiMZYrDTPeGGP0q6nNcvvxfJD+bnv+hmJb6mtTieDog5d9r/jgx/6tuOPOfYuqv/193+n28azTD+s77kUH2kCAAAECBAhMvUDMRlKWJhB2/JZm594qeocAAEAASURBVCgCKy3wykcXxavST5QnfSgFPZVQ5tSji+KtT5zdf+rH+wdIEYC8a0tRnNgjvNid/in9lmuK4v3Xz7ZX92eEVR/dWrdn8bbv/e/ZYCra69fm4iPTmB9VFP9lc1E84Efr9qYgKfX1lVcURTWYqa89mvZOfeRsn3qdo9/2+18wv3djCsMGNZw/avbZK3ema9zn+lTre91ugYW/Mt3uvupdjUCEDLnUzT66Ps2syeXoTRvy0zXzGOOPEOjZr7isG97EbJ2mEse84vc+0Tc8ijai3Vek8K1s3Kvt3Gav8CiOizoXpHAsQqamMur2ms5nPwECwwncfOvsZ03MPKrOPoqWrt9991yDMatm0kqEJy9+4782hkcxrkuv3Fu8IoVYO9MspVGUm9PMrmjz2Wd8o4igJsKcphLeg/T3ghTcPfvMb/RtM4KoCOWibl14lPsSwVr0cccnhg8CcxseCRAgQIAAAQIECBAgsBYEjv2x+VFUw6PYE2FELv1mH0V49NGTe4dH0Ua0FQHTW5+QW1zeY4Q/EVZFm188Jc0iSn0YpLzrpNlQrFd4FG3kECZCpqbygWeMtr2m89lPYFABM5AGlWppvet3zS5fF92rLk8X28rhR13AFHXKJZZvKy9LV95Xfd6v3hEPPqS7HFz1mLrXRxx2SN3muW0xw6harr8xvthbGBZF4BMBznlvekrP2Ug5mLn523fONZlnBkWf77jz7mJnmpWVg6DZ+lcW73/7z/Z0qWsz+hzL4IVRLMd3zZduS9di9pzRz/Vp++tOO3auD+Ung7S389M3z42/qb1y254TIDAagbw83dFH1v+aUVPAVO3F5mPuW91U+zpm5/Qr0Z+6QKvumF71YuZUhCflcr9D1qVl4H60yOePkOea674/VyVev/7cbxXbT39QsfXJpX8ZzNVY+KRuvNfv/t+LApuYyXXFNXcV7/+Dn+g5rhz4lMOeLZsPKbZsnl3SNfZHyBN9jNLt6znfKmIGVl2JWVf5+sb+GHuM6ZFpGbwIsyKsKs8e237+bV2bSQwK68ZvGwECBAgQIECAAAECBIYVePT+AKkuPIq2mgKmqJPDo3LY9Mm0pNqOXbNL4kXIszUtAJIDm5jxtDsthfcnX4ij+5foV3VZvThP+VzRQrz+wqlp1tDO/rORIrx6cZrpk0vMYnr/v8zPvIq+vjjNusolAqR+y+9Fe1s35dqpr6X2HpB+JzVmVA3T3nxLaSm9ZDiKErOp4meQEtdFWTsC/b+JWjvjXLMjiSAlSgQ/daUpYKoe87bfenzP8KVat9/rrU/dOPBSbf3aiX3nv+nJtVUiaPlMWqLvgrQUXQ5nYtvr//Cfiw+8/Wm1x8SydbluVDjl5EcsCnJO2fqI4oOX3lC8/cLZpQGjzXek52e9On3a15Rqm9tTva1p+btyqYZC0f6WE45Iy++l/wNUyiDtvfzbx3RnUeWx9Guv0ryXBAgsU2CQ2UU5gOgVMJW7EKHM+W8czdrtr3vJA/suS1c+b93zHWnmTzU8OuWZD0jLvqVfLqjc5ymCmerSdG//8+8WP5PCsH73B+o33mjzM1/+QXHBh28fOPCJPpTDo7ql+aL/Z6eg59L9s4Vi9lD8VJfwi/GXl+yLUCjaq479lGfevztLKZ83Zkr1CqTqnG0jQIAAAQIECBAgQIDAWhGIgCOHOr1mFzUFTGHxhuMXBjqxTF385BLLy70lBTx/u3W+XgQvH72x/5J4cfwb/rn3MnJxn5//8jMLZz3FcnsR+Hw+/VRL1M/L9cW+CFV+ccfCcKXb19T3cl9jhtMnPrA4yBqkvThPWAzSXtQtl+jbKErTsoGjOIc22ilgCbt2XpeBehUzcPIsnCMOm/1N6+qBTQFTtf4kve7OHHraxjQ76GnFlselT+/9JcYcS8VVS1jFbJ1cTk73I+o1CyiCpQiSconjsnXeFo8RDJXbfN2vHrsoPIp60dfzKkHYzqsW/wrAqNuLcysECIxWIM9kiVbrgpJBAqbR9mh0rUVwUy7b0z1+IpSqBihRJ8Z+1rYHLbinUMzQiRk8Sy3R5tZ0T6XzUmhTntEToU7MRqorO6+Zn1Ea92OqhkL5mNe+NI0jzSbKZWea2VQtH/jY/Kze2aBrcXgUxxydZiO97Ywfnzs8B1JzGzwhQIAAAQIECBAgQIDAlAgcW/rd6AhdqmWQgClmH5Vn2OQAptpWhDVxT6FyifsvLafE/YkiZCmHVdHnWFKurrzyUfNbY6ZQNTzKe6Ovcb+nXKLN8qylvL3cXl0YlesN2l6u75HAqATmv0kZVYvaWTWB62+c/6Krbvm6QQKmVevsCp4olok769c3L5iF9cEdNywKfK750sIvNbemAKlf2faiYxYsW7fj8vnwKR8X58klQqJy6JS358fYH6FVLG/XXZavk/fMP8bso1xG0V5uyyMBAqMTyLOLosVyyJHPkGelxOu6gCnXa9tjzL4ph2Pbnn9oWrot/S2+ocTsni3Hz/8SQ4Qpg9y3qF+z4RYzevKSeVE3ltarththXdm73/J5EYLF0na53LJ/Sbv8urs83U1355fFtucdWhuc5QoRVJXDKvdCyjIeCRAgQIAAAQIECBCYJoFHP3B+tHUBUlPAFEc/a9N8G/GsHOYs3DM7kyhCn1wilIlwZrklzlleDi+WsyuHWrn9Jx+en6Xl9dJXhRHs9Coxg2nHrvm9z6r5KrLc3iduaW6vPPa69ubP5hmB0QhYwm40jqvWyum/94m5+/OUTxozbupm3eQ6cc+c45//oe7LWO6u1xJvuf6kPUaIFLOJTv+9K7tdj/AsAp9yoBP3IiqXuuXjyvujzcNT6HPH/qDumrRcXrm9qFsOpar7ym3l5xF09Stxjly2vfCY/LTnY1N7PQ+0gwCBoQSOf0maE19TTv+D9Le7PiWWNoufKBFevO3MB/epPd5d1dk3EQwNWk75+QcUO6+e/4y9Ij2PmUTLKRH4nLXtsO5ScdFOBDzVdtenOhF05VIX6OV91cdFYVQpPIq6g7QVSxTmJe9i/Gdtq57FawIECBAgQIAAAQIECKw9gW/8yvyydeXR9Zq1k+vEvYDiJ0rcmycvr7Z1U3dT94+4X1G/UCYqvfUzRRFLv0WJ8ChCqnKwMrtn+D8jRIrQKC/Jd2p6HrOhcolQKe+LbR/dlff0foxx5vFFn6O/+X5MS2kvzpnHXm2vdy/sIbB0AQHS0u3GcmRekm45J49gZC2WCISOePAhc/c42vnpWxYEPuUl6AY1uN8h6VN9f7l+18Kbykd75Vlgm3/6sFy1+xjL0eXQKmaINZ0z2sv3NIoGqve1Gra9BZ3xggCBJQuUl6RbciPpwEECieW0v5xj495D5ZlVEQgNU2ImTvkeQIen+zqNokS7sexcnmV0zVe+vyCYiplKwwRdX70prS+wvzRdj/Wl5e7yMdXH8tJ+EUiF4yTNOquOx2sCBAgQIECAAAECBAg0CUQAUg5Rmur32l++v1C+R1LUjVk4TeXz879/3a0ax48iQIpg50++OB9yjSKgyWFRHtPG+6f7K1X6n/dV6+bt5cdqnX7tlY/znMBSBUbzDc9Sz+64oQXK9/qJWUU5FIml0arlmi/dNhdIbPn3R6SleGaDo80/XVqctHrQhL8+6XGHF3lZuWrYFuFSLuEWP02hTg6A4rgIcMqlHB7F9ryMYMwE23H57jn7fEwsWxezpHK9vD0/jrq93K5HAgSWL3DyU9KvGe0vl155R/dZLK+2+Zj75s1zj3FPngg8ukumHT//uVNe7myuckuelMOj6FJTuFLX7ZUaX8zcyuZ5tk/d+Zu2xbHlcW7ZPL/sXhxbvj9SvL5+192NYVA1XNybrnuxdv8XGywKAQIECBAgQIAAAQJTLrAhBUgfKM3KiVk6UWLW0Cdrwp9YZi0HTuXjct3qLJzde2fb6/dnhChxvjg2SjmAmt2y9D9zv3ILESLt2DX7Ku55VC75/OVt1efVvh2blvzLAVK1vUGCsBNTf8ql3F55u+cERiUgQBqV5Cq1U16ybOdLb+6eNWaqlLfnrsRyd3lGy9t+6/F5c9/HcmDSr2Lcn6dfueOumE2zMHCpqx8BTlOIU3dcr22PTBa5VEOiww9b2OcImuI+R71KXQhUDp1uuXV+fOER+17/h/9cu8RgnOOaL95anPq6/9U9Z91569qLa1gNwnJ/m9rL9TwSILA8gaM3HpSWJptNBSIwyGHGSSnYeN1LSos97z/NztPv7D6L5c3ycU09iJkrTSUCqfKMl7r6cV+fmw9rbqs6S6YcrES7SwmQ6vozim3hn0v5Hk152yCPMTvo7Avm74M3G/7dZ8Ghh6fZTOXZTld85s4F93ZaUDm9iGu28+rZa533VZfFy9s9EiBAgAABAgQIECBAYK0I3JQCnlfsnB1NzEbKAVLMKMrby2P91PNTwPOjs6FJ3f4j539fs3tY3X2Uyu3l593wZf+x0Y9RlerspnJIVA2uIhwr3zep2ocI27Zuqm6df72U9sr3TJpvqfezqm+vmjfN/q5sr93dEHCQtpra6XkCO1orIEBq7aXp37EcjkStIyrBSD7yjjtTHJ9KdSm0vL/uMd9DqG5fedvVH0qf/n3KBy+9oYifprI93RNoa83sqabjBt1fDnyqS9xFgBTnrgvDIvyqu6dUub0czuW+vOPCz8+FRzHbKc/0Ks8Ei7rRboRm1Xsm1bWXw6OltJf75ZEAgdEJ5KXUosVqCBPbImDKdQYNYSIUefYZ34jD+5aY7XT+Gx/St872UkjSr2IsN9dvxlBTUNWv7VHvq/ZlKcvERXhUDp/OS+OvljhPGOdQ6NIr93aNtj658q+ZdGAERa8/51vVJrwmQIAAAQIECBAgQIDAVAnEvYdyqQt+Ith59P46ETyNspSXcougZlSl3G60WQ2n4p5I+T5OMTspnse9k+rKG9K+cgAVdaqvh2nvLU9YfHzdecvbvnBK+VX985jN9agP1u/LW9+azh0/TeVZO0aznGDTeexfPQEB0upZj/RM5eXO6pZEi6Aj1+kVMI20Qy1prDrLqNqt16Yl5F7/h//U3RxGr/i9K7szgk56XFriL4U6se2KdO+kCHki0Mnbqu1UX0fgdPM/3NStH7OLquHQjn/YXbz9ws91249jo/04Z114FfvL7cWyd1uftnCJwmHbizYVAgSWL1CeqVMXEOXwKM5UFzAtvwcr30I1sFn5M67sGS740O0pFJqfMbrt+Yf2vDavTTPKrrnu+3Mh4Pbz01KwKeDb+pT7zR0TS+G9/X3f6S6HV56xtLKj0DoBAgQIECBAgAABAgTaJ7Bx/Xyf6gKkpoBp/ujJeRYzjl71qPll+SJAilDorVcXRQ7JusHSzxRFLDeXl6nLy/hVA6rltjc5cno6qQICpAm9ctfv2jPX86M3zS/bljfm8Che1wVMuV71sXyfoOq+YV5H8HK/Q5rj//UHN9cZ5rx33DU766rXMVv+/eHdcCffJymCmu1/HL8mcM2isCjCnW0v+qm0P/0fYH/pFfjk/XVhT+zb+rSNxeGpvTzDK4KqD370hu49kfKxdY9nvfr4IvpcLUttr9qO1wQIDCdwzVd+MHdAXYDUFDDNHVx5csSDZu9RV9m84OUgwc4g7SxotOZF25dhG8QhDyvCows+NP//ywiPtj1/8f8zc/0I/bY979BuQJS3xfHxUxcWnbXtMDORMpRHAgQIECBAgAABAgSmTqB8f58cnpQRyrN36gKmct1JeR4B0Kl/VxQf3Trf4xcfXRTxE2FRDory3rd8Js1SSmFSLjlQmnu9zPZyO70eY3ZRUxmkTvS7Gn41tWv/2hAQIE3odYzgI5e6UKMcpNQFTPnY6uN5b3pyz1kx1br9XscMnLr7/PQ7ZhT7qvdwqrN53a8e2w2LqkvURaiTSxx33pueUnzmS7flTd1j5l7UPNmSZhRVZwqVq8USepsfddjcMndX/H839w2QTk7L69WFR7nNYdvLx3kkQGDpAnfceW/34Agx6oKM8r2M6vbXnTnux/ORc/5d3a6ht511evqcOWbhvX0GaaTa1wiRqtsGaWcl6pRNo/1B+1UNj05OS9H1C49y30955v27Tz/4se8tWPauPLsswqS3nfHjRdw3qVwG7Vv5GM8JECBAgAABAgQIECAwqQLH/th8z78w/xXa3MamgCkqVgOVcug019AqPqmevy5c+cTNRRFLtb3rpIVLypXDoxhXhEcxw6i89NvumqX8Rt1ematpabpy3X7P35AWdIrl9pTpE1j4zcf0jX9iRhzhxlNfemltf0993f+q3Z435iXb4vUpJz+ib2iRj5nUx7jfUC797v0U4Vbc/+jdaSm5r+76XrF3f3gUs4S2PG52llK0s+Py+RukV9urztaK45pK1Lnmi7M3ci+HgHFctb18D6V+bfZrr99x9hEgMJjAzmvuqp1hEgHL8S+5sW8jp77xX+f2R9iw5fiD51637cnhKcQql5hJtZQgqtzGqJ7HknK51M36yvvKj3XhUYRrg5YIkU5K12tHug9SLFl3S1rGLko4hUvsj7Ao9pXLoP0rH+M5AQIECBAgQIAAAQIEJkUglmYrz7wp9/vftpVfLX7+qdLt1E/9ePrObddsnZvuWFi3eo+ghXvnX5XDqc9/Z377cp/FGMulLvCJ/RH6/GIKkZ6cvg6M2Ue53xEc7bgpBUdfnA3HyiFbHLfn7vhzcRl1e4vPYAuBpQks/MZoaW04ahUEykvSLed0m3/qsOUc3vpjy06P3PSAvv2NWUZn/frmvnWuT+FSLtWlANcfsvA/n8MffEiu2vOx37J+o26vZyfsIEBgYIHyknQDH1RTMWYZtblUw6IIzqrbmvpfXioujh32+Lr2Y/ZROaR55JEH1VVbsK0aHkWoM0x4lBvrLmfXZ7m7qFd+fwiPspxHAgQIECBAgAABAgTWqsCjHziakZWXQovnEbrk2TvlYKjX2Y5cP18/6vQKeXod32/7szbN742+RbDTq8TspPfHz/W9aswHS1Ej2qubqZWPHnV7uV2PBJYj0O5vtJYzsjV2bMxAiuXPcsmzWOJeQ9WZMVHn+hv3pJuA/7C77Fp5f92SbrnNSX/ccfnu4uZvz88YOulxRywYUnjETy6DWGTnOKYavm3+6fnrEftvuTXO3f833O+4M/2fokcZdXs9TmMzAQJDCmw+5r7dI+646965wCACocNr7luUZ8vEEmdHb/zRuTO1PVyI2TQR+OSwZseVd3SXext0SbYInCK4ySVmXI2iRD/KZWtahq5fqQuPzn9j8+zQ3GZ5ubwYe9P4d14z//+c/D7JbXkkQIAAAQIECBAgQIDAmhOYKYpP7g9UYqm3R+//GiyCj/iplhP3fzUXAVH5Hkifn19AqHvIJ25J9w/fNHt0PL5y9mnPP3O7uUK57bxtKY8RTMVsolx27MrP5h+PLP2zNMbVa0ZRPqIcSNWFUaNuL5/XI4FRCQiQRiW5wu3EvXDy/XCu+eJtxen7l0Hrda+h45//oW6PIpR42xsev8K9G3/zsRzc29/7ubmORDiUvfLGuD9Sebm/7Wn2USxj16tEIJUDpwjq4p5D5TK7bf6eRpem+v3ai2N3fjr9H3F/KQd7sWm57ZUDxv/D3v0AW1LWd8LvOyJB/uigEB1SDmOFdwxGSXDExL+M2XrVCoNJjJtdNPu+urUBdNkKCirZpMJgxVfMQqQqrgJuRbZWIJs1rpFxC9xaGYHsZhPJKppMIFoOk8qMBv+MMkwMhrlv/86d59yn+3afP/f8mXvO/TxV13P6nO6nn/50c7z3fOf3dNqHRwIERhPI75lz+53fK65/+FudDq+++PQVFTYRvlzy3qXp1i7+hVM705yNtvfpbn3x608tx7/0GRVT9EUYc8UvP2OgQfzOx5ZcYuUI18YxXV+EOXlVU/Tbq6pp172PVtaP0C7Co34hUH6AbyqnHUz3OrrotU8rj7/9n9fVq6O2b1u7UxTmx+g5AQIECBAgQIAAAQIEVisQ9/OJn2gR9Nz26s7TIu6PUw9bYuq2+35x6f2o0Il12lqEUtFftAimYhq5prBlaY1qyBPBVa910zaDPH54e3WtD5fT0NVbTOGXpquL/ca9kNpaPZD69N6Va467v5V78AqB0QQ2jLa5rY+FwKOHl6tYtm7ZuGII+TRum545/19oRaB26W/e2w17AuTiXzp7hUtMQRchTWq37fpqZZv0ejxGIHVzeX+k1LaX1Uz5tsuvL//L9qhWirG0tdt3faV7/6NY540X/OiKVfP7KA3b34XbN6/ozwsECIxPoF6dUu951qczq087F4FZXlVUP95YjqDpmpseKfYfvUdQvNavSijW6dcijIswJ28R2rW1CI923rT8+Rth03Vvf+ZQ4VH0vXVz+ZfK0RbVT/k5T6/HYxz3pUfDtljuF27FOhoBAgQIECBAgAABAgTmSeDly1+JFQ8fWnlkKWSJd+5b/vfUK1csX4mAKap5UnvfS5aCpLScP0aFUF6BVA+u8nUHfb6x/FPwv5XBUN5vjKleKRX95dPVRdBVv2dSvs/3vXR5KYKufNv0Tj7+cfSX+vVIYFwCAqRxSU6xnzykaJqGbX9nKrWlAdWnXZviMMe2qwhz6j8RkkUgc0kZHF3ym/dUpq67+J+dXez4mebKoqjYSi2m+bvmg/d3+k6vxWMKpNJ0eGH8K2WfTS0qjs7I7n105fv/V7Hr7vJOebUWY73+9x7ovhp9vjCbkjC9Me7+Ur8eCRAYXeChh5d+m42KlqYp6fKwYZiql9FHNr4err7k9DIsX/7VICqAXvf2vyl23XOoE5qkPUWAEq9FyHPHvct/KUSQctFrn5pWa30Mq/pPBHARWkUVVPykSqDoJKqj2qqPmsKjG8vKo7iH0bAt9pNaCony8xrvLVWaHaiEZuOasi/t2yMBAgQIECBAgAABAgTWukAeEDXd1ye/l1Hc+6dXi/c/lFX7RPVSVANFBU/eokrp2jJcSi1CmXy79Hr9cXPZT0wVV//p9FeGPF+6qBoeRb/vu7/ey9JyPQT68PnL1VNpixh3VGdF/6m19Vcf/6j9pf15JDAugeG/XRnXnvWzaoGH9n63u21U1dRbXoHUVDVTX3+tL7/u0jsHHmKER/HT1uK9mEYuwqNou//3/s5PTCcXVjHNXQqOUh/veMtPlCFRcyVXbHPdu3+6E2Kleyzt/N37O9VLnT5PfHK5v/0rKp3a+kz9pan2os9R+kvH4JEAgdEFHtq39Bvv1jN/qLGzFDDFm00BU+NGa+zFCF1i2rc8wInqop03P1IUN5eVNkdDmXqoEocR4VEEN/3Cs+jvdZf/zcBHHqFOPpVgvmGMI688iveG6f9TNzy7e0yxbYRUMXXd7Xcu/f9s6ivOZxzXgXLs9WOP8c3q+Y5j1ggQIECAAAECBAgQILAagRTuNIVH0V8eIDVV8tT3GQHLBeW/Bz/ntKV3InyJn5jebl/57xajv7zPWCu2ibCnX6tPTddr/bif0kWfae839hfT8aUgK4K0CIvi9fh5WvmVQX2cMe1fPXhKYxh3f6lfjwTGJSBAGpfkFPt59LGjX2KWoUdT6xcwNW0z669FwHP1ZS9acZ+ipuOKwCemvMuDohQo1de/4l+es+JeSvV1IsS77t0vOVrN9Fjn7VQxVV83AqIIser3Z8rXS/39zkcf6I6xV39XvKX/GPP+PSdAYHiBqEZJFTFtAclywFTWvs9wi2ncbn3vj3SmaIsAJW/18CS9t+3spxRXX3JaJYxJ7632MfqM4Kit8ij6jUBn3C3d9yiFSNF/Pj1hvr9e4Va+nucECBAgQIAAAQIECBCYN4EXHA162qqLUsAUAUnbOnWTN/73pank8uqmfFq5fP0Ij9pCmXy9QZ/HFHpRDRQ/+XR6TdtHIBT3avq1bcvvxpjzcad3bn2w9/2fYr1x95f27ZHAOAQESONQnGIfUZGSKozOOL25KiYFI6mqZorDm9quIojZVE4dt+3HTyvi/kTbnn/0/7UGGEGETZ+68TXFrs/uK27+gz3dkCbfdFs5vVwEM00VXvl66Xns/8b3vKL4SHnfpPv/4psr+ozxRp/vKPtsq2ZKfcVjBEyx73H1l/ftOQECwwvkAUJToJEHTGectnyvteH3tDa2iEqjT33g2Z1p6m6763tlgFL+Jt3QBgl5GjZrfCmmzttU2oXv9m0n9gyOGjsY44sRIj23DNLajn2cxz3GYeuKAAECBAgQIECAAAECUxGIKeZSe6Cs2GlqKWCKAGnQFus+//alYCbuddQUyERF0vv+vCjuLR9HaRESRbAV92eKCqlb/7p/cJTvLwKsXeVdLN7/09Xp79I6Mc4IuAYNucbdXxqHRwKjCiwsPnjx4qid2J7ALAtEIBfB3IFHDhdbtzytDKZO7ExnN8oxpT6j3wiMRu1z3P2Ncmy2HaPAoXvH2JmuCExOIAKyCNHiMVpMV7epDJnaqrEmN5Lp9xxVV1HpFMcex5ums5v+SOxxnAIL2/YsjLO/tdzX5s2b/a6/lk/QnIxt3759c/Pf1Dv3HPTfzASvyx88dqj49t6vdPdw6nPOKo4/sXaDi+671SffKbd7vNw+tWf++E+mp93H+jrdNwZ4cvLpzypO+uFnDbDm4KvEeL7+F18oHnvk68Xjhw51+n/6lrOKZ5Vjf/JJgx13vrf68TUZpPUf+7uvF4fK/Q7TJmFQ339cA/v+7L6icyylyfEnn1ycGibP+8mx+NeNji+do/9BW318cU2cXP6Ma3yDjmM9rnfjPStv0bAeHRxzVeAVZyxV+kS1T4Q995ZhT7/qoGoP01mKaesiVEvjjCDs4SGCs/oox91fvX/LBHKBRy9Z6Pm7vAqkXMvzdSkwaJXRMDjj7nPc/Q1zLNYlQIBABCdNlVfrQSaqsdK9n9bD8TpGAgQIECAwKYE9uz5efPG/3FIJgV5zzQ1FrxAkxhJf6H/hD24p9nz645Wh/T8f311ZjoW7f/s3ikNlcLKa9hO/9OYifsbRIsT4s49+sBMeNfUXgcSPbn/twPsLgz/+99cW+/70vm530cfrP/T73eX6k6/svrP4Yuk2THvZZVcVP/rDrx1mk4HXbTuPeQdnvao0+advXnWQFKHZHVf+q7zLTlj36vI669difH9ZXmNxneVBZb7d83a8oTinvEYGDT3zbT0nQGB1AqNWGa1ur8NvFaHWOMc67v6GPyJbEFgWECAtW3hGgAABAgQIECBAgAABAgQIjFEgvtSP8CMqcYZt3yi3iW1XGwoNu79xrP/Vu+8s/uyWD7aGELGPOJ4Id/6mrMSJcKNXIPHVMgiKMKot1Ggb87DVR239jOP1uAbu2nl53/P4ldIurpNXveu3hqoaSmMM99W0CI9ifN/+2nJ1XFM/f1mGoDG+fuesaVuvESBAgACBWRUQIM3qmTNuAgQIECBAgAABAgQIECCwhgWaqo4GGe4g1SpN/cT0cDEN26BtNaFWr74jKKmHRz9aVtXElHXRIjiKQCgFYhFYfL4Mh176r69a0e0owVt0FtunFtVKg7gMsk7qc5jHengUHs9+8cuLmF4ugrG/KSur0rkIm6gk23Hdf+gZrNX3H655hVb9/V7Lsb88PIpxxXmL66npnO1+/290QqRefXqPAAECBAjMi4AAaV7OpOMgQIAAAQIECBAgQIAAAQJrROAzV1/eDQViSGnatn7TqjVVq6R7BkXQ0KttLytXBm0ROKTQIraJKeVGbfkUfRFCRKVKhBB5i2ny/mdZVRXVNtHiMfadT+UXlVcRauRVR2GwWN6h4BtfHqySK9829jmO48uPY9DneWAW2zRNFXj2BW/oVGSlayNCmwgfB51SMK6ZtG3sIwVT8bxfq18HEWy9rAz0oo/UYnxxzlJAFddNbHesTNO4PBIgQIAAgWkIbJjGTuyDAAECBAgQIECAAAECBAgQWD8CeThzdnnvmB3/7j90K3F6KcTUa6lCJ77EP+8tlzUGMb36GOS9PHCIapMIuEZpEdikUCj6idChHh6l/l/05ssqAcW+ciq7vIVBCoDCIO5NFGHUMBVC3y7vw5TaMNulbcb1GFP6pfb055zVGgpFWJQqtWL9CGgGbRHcpWsmzmOEQIO2/DqIbevhUfQT5yCqxPJrpH5PrkH3Zz0CBAgQIDBrAgKkWTtjxkuAAAECBAgQIECAAAECBGZAIL5wf00ZfJxXC0wGGXqECRE6RRAz7raiKuafvnnkXXwnC2yis14hRgQSeVjy+KFDjfuPPl7/od8futIlhU+p0yeX+ztWLQ+y+lXsRJCXWgqE0nLbY1Sl5cHdq3fe0Lbqitej0ivfT4RYcW6aWrx+9s8uX4sx5V1srxEgQIAAgXkXOG7eD9DxESBAgAABAgQIECBAgAABAtMViKqjnyiDmbYv5NtGc/yJS1VHkwiO0j7zqpNxVB9Fv1Hlk0+5llerpP22PT5+uBogRV8RvOXT2rVt2/R6fv+jeH+YsTT1N8pr+XnMQ7NR+sy3jXtOpRbX3DDHmqakS9s/83lL96pKy/XHuFby/UWV3WrPUb1vywQIECBAYK0KCJDW6pkxLgIECBAgQIAAAQIECBAgMKMCUXW0mnZqOc1Z/EyqTaL6KMZ6UlltlQdI/cafV+bUQ49RQ4k8kIoAL0K5aD8op9lL+43XT63dn6nfmFfz/jAmeUVPTHfXr0UQmCqIwjACy2FaXjUW+6ufh3pfYRbTEibD9FhfzzIBAgQIEJgnAQHSPJ1Nx0KAAAECBAgQIECAAAECBAi0Ckyi+qh1Zy1v1EOszecNfs+eli4rL8f0aqlFKBLBTBx3fl+qeD/ei2nlonInhUxpu2k/RtVUPr5+IVqsn5/LXtPPtR1LPtXfSWXV1yAtws0UHOUB1CDbWocAAQIECMyigHsgzeJZM2YCBAgQIECAAAECBAgQIEBgKIF6cDNsxcpQO2tZuR58xLRu/cKSlq5aX84rkKJC566rL6+EM2nDeC9CmF1X/quiPu1dWmdaj1/8L8vVRFHpk99vqGkMd+28vPtyTC3X7/5K3ZWzJykIipeismiQFtMLppaqn9KyRwIECBAgMI8CAqR5PKuOiQABAgQIECBAgAABAgQIEKgI5BUr47r3UWUHAyz88b+/tjvtWqz+0n991QBbDbfKoUe+3t0gVdlEKHNWWW0UP/V7EXVCpjKQyYOnbgdTeBLn5St339ndU1QT9ZpObs+uj3cNY71jEQR2B+sJAQIECBCYcwFT2M35CXZ4BAgQIECAAAECBAgQIEBgvQusheqjP/voByuVQOe95bKeQclqz1kERHG/owiPIhSK+1HVq5wiNNr927/RnY4tliOYGeaeRasdX77dV8vgqB7snX3BG/JVKs87FVxltVJqsW6vsCmt55EAAQIECBBYnYAAaXVutiJAgAABAgQIECBAgAABAgRmRKAeUkw7dIj97/n0x7taEdT0Ckq6K67iSUzn1m9Ktzj+V19zQ/GZcnq7NJVbjG+a90OK8CgqslJ7enl/oQi7erWY6i5VVcUxTMqw1xi8R4AAAQIE1pOAKezW09l2rAQIECBAgAABAgQIECBAYJ0JHOvqowiP8gArQpppV/o0nfKY1i6qoFKLYOY7X/tKWpzo43f2fqUSHkUYtP2dv1XEmNpanMd8qrtX77yhbdWBXs/3Nej0fSm8ih3k2w+0QysRIECAAIEZFBAgzeBJM2QCBAgQIECAAAECBAgQIEBgMIE8vJn2vY/q4VHsv1+VzWBHNZ61Tt1yVqWjVI1UeXHMCxEe3VVWPqXWqYYqw6B4bGudqevKIC61fvdJSuv1eswDoMcPHeq1ave9x7L7S/Uab3cDTwgQIECAwIwLmMJuxk+g4RMgQIAAAQIECBAgQIAAAQLNAsey+qgpPHrZv76qeaDH6NUIUSIIiXsgRcsrbCYxpBQepf0MEh7FOP6ynF4vjTGNKw8G02vxmFdRHSoDn7Re7Cuf2i/uC3Xo7+7sbPqNv/xC3kXr83wMJ53eHni1duANAgQIECAwYwICpBk7YYZLgAABAgQIECBAgAABAgQI9BeoV61Ms/qoHh7F/X2mFR7Fcad2Uo+qnrROHorkVTnp/XE9xrii8mjY8Cj2X59iLoVC/cYWx5bWfVYZGOUB0tPPPKv46tEOYr346VVVFOPPK7SiP40AAQIECMy7gCns5v0MOz4CBAgQIECAAAECBAgQILAOBb5S3jMnD0d+4p++eSoKTeHRqPfrGXTgcbx/+LZ/3v2JCqxe7Rt/Ua28eXptSrte2w7zXic82rm68GiY/Qyz7rNf/PLK6v2s9pRVUHl79nnV7fP3PCdAgAABAvMioAJpXs6k4yBAgAABAgQIECBAgAABAgQ6AhFY5IHAtKqP9uz6eLfiJQYSlUcRHk2ysic/5VFBE/tKVT5fvfvOStVNvm48/+N/f233pdg2pnUbd0vhUQrzYnzb3/VbPat96mPYXIY1Jw84Zdzf/Ol93UqhfNq6enVRLEcV0dePhmgREJ21/bVFU9VWHEMEkqnFdvX+0nseCRAgQIDAPAkIkObpbDoWAgQIECBAgAABAgQIECBAoPNlfwosgmOQ6qMfPHaoG7xEyPHk8meYFmHNn93ywe4mETBsf+dvTS08Sjs++4I3dEOsCEd2//ZvFOe9+bJKMBLHenf5em6UT++W+spN4rWmcCWt2/RYD49inVdfc0MxbKVTVAvVK4aa9hevxX2P0lRzETr9xC+9uW3VzntfL6fVixah211lldRrysAvP864b1NYpVAu1u3VZ7yvESBAgACBeREQIM3LmXQcBAgQIECAAAECBAgQIECAQLHa6qMICVI1SgQEw4QEETLk1TxxGiKc+UQ5ndwg7fUf+v2xVbREgBTVVykc2ldW5MRPp2qmDFRSwJIHIlEp1XS8X8lCsVhnx7/7D4McTnedCGTSONKLu678V+lpz8eXXXZVz+qpnhsP+GZUXIVXmp4uxhpTAOZW6ZpIXZ694w0TqdRK/XskQIAAAQJrSUCAtJbOhrEQIECAAAECBAgQIECAAAECIwms9t5H9UBlmEHk2w6z3STWjeqpmDbvM7Xwph6EpH1HWBJTyjW1xw8f6r580oBTyHU3KJ/Uw6P8vbXy/Ly3XNYZSgqRYqHNKqZCjGoujQABAgQIrBcBAdJ6OdOOkwABAgQIECBAgAABAgQIzLnAaquPgiUqc1JbTViStl0LjzF9XlQ1RSXSF//glsYgJ4KjCESapq5Lx5CbDDvtXOpjFh4jRIoKqzareC8qlXpZzcJxGiMBAgQIEBhWYGHxwYsXh93I+v0F7v/yN4uH9h4sHvrad4uTT35yccqJTy62/fjpxbbnn9Z/43KN/X93uDhQ/gzTtj7nacUpJz25cZMYzzAt+on+Jt1GdaqPLz/OpmN49LEfdM5JfbtBl3sZD9pHfb36mIbZR1xf9//FI8X+Rw4Xhw79oNj0wycOdZ3VxxJ+0V9ce3HdnnH6icXWLRsHvm7r/VnuI3Do3j4reHscAo8ePlJ87vOHi/3f/MfiwDd/UJx84pOK524+vnjh804ozjhtsH9H8dDDjxfRzzBt29knNK4e/UR/w7RNpx838FiH6Tdft8kpfM5/0Ymr2nfq78F9jxeHDj9RbDqt/P+V0n3rluMH7q9zzh75x3yYfZ9vPfP48v9zN/Rdb9wrNI217Rpo2nd9+2N1HE1jm8fXFrbtWZjH42o6ps2bN/tdvwnGa2MV2Ldv39z8N/XOPQf9NzPWq2N2OosKot//f3d0BhwVPP/8P+6ancEPMNKoBHqsDMjiOOP44t5A+X1+2rr4THl/oFSN85ry3kUx5du8t5iOMLxS9dWznveTA1nNu8ukj+/Geyb/HdSkj2HW+j+n/Iryaccvj/re/cvP+z17xRlF8YKnF8XmpxbFxrKPhx8tii99qyh27e235WTeH+ZYYrwvGOzr2e5g932vPMZD3cXWJ9H3BVtKl1OK4szy52D5p39s++m9g23f2vEq3xj1PI3bqn6eBjmsYa7LQfqzzkqBRy9Z6Pm7/GDfnK3s1ystArvu3ldc/3tfLCIUWNn2FGeUX/Bf/M/OLna86syVb2ev3L7rK0X8DNNues8rG7/oj7Fc8pv3DNNV2c/pxU3vecVQ2wyz8u4/PVD8zu89UAZljzVsNrhT2jiCj+s/+kAZDh1MLxUXlsZX/5tt3eV4EoHLsBZ5B5+68bWtIV2+3qDP4xzf/J/3VK6XQfYRAeM1H7y/uP/LjzTsani/pnHkHQ963ebbeE7gWAtEgHH7nd8tbr/re+V/Y83hz4WvPLn4ldef2jfQuOT/O9DaR9txfv5jz2l8a9c9h4rrP1b+Zj1Eu7gc48Wv3zjEFoOv2s8pxrp924nFO/7FM/o6xV6jv5s/8Z3SvvwtuaVd9Nqnlsdzat+g5yOfOFjccU/5l8gQ7aZf31QME9wM0XXrqhH+XPreA2WYvxx2nVGGfp/6wLNbt0lvJP+by2PN26dueHZfn3x9zwkQIECAAIHRBCI0SG0eQ5KoSIqfYdu359ylyePULWcV8aMRmFeBCAWuKr8ue9sLqkf41Jury01Lb9paFL9WbhsBSVPbV/75dutDRfG++5veHf9rqzmWl5fh122vHm4scTy9junMk8v3X1oUO7Y093tt+d6uvaXd/5xOkBTB0a+9sCjiWJtanKcPfbn8+VLTu8uvRRj24e3Ly4M862V12//dfu209T3Iddm2rdfHIyBAGo9jp5cIAuKnV4sv/nf+7v2dCqMIktragbKiZFwtQpO11MbpFOFY9Dds2HasPeKc7CwDoDzwGnRMKQRrDimXehn0Oou1I4i647MP99z9MP317MibBKYk0PSFftOu7yjDnN1ldVKEDlHx0dbaAqi29Xu9HmNbK21Qp933Hy7u3/P9vk7R35Uf+EbfCqsIl1J/vaqF9j/S9I8x1ore8jgiqMzDo+V3ej8Lg2tujirStXNN9B6xdwkQIECAwPwKfPtrywHS5he/fH4PdIgji+kA072dns1kCDmrEli7AhEsfPj84b/EjyOK7d703N7HFsFSJ2AqA5W3fq73uqO+u9pjecEzRt1zdftznl5WGF1YVnP9UPX1+lKESzHmC+4oige+VX93fMtve35RRGDVq8V5uvYlS1Vkvc5TW1DYq+9e7427v1778t74BARIY7JMFRypu5g+LaqMnvucpX8xHpUid9y9/CV9hB5R1dFWiZSHA2f88EmdqclS322PbdPXPXr48comUV3Ur23dMpnS4ajQykO2QZxinYt2rPzXP1F1FOFHcxVT8xFGX4Mcf9o6pnIbpv+0Xa/HQQK0tu0jyLny/X9SqVja/lNnlNPWnVZWRh3fqUiqX2dtfrGPGEseHqV145qL1nTdDjMVY6cT/0PgGAhcc1P1S/ltZz+lU0UTYUVUfCwFIn/fGVksX1JWj7RVfDxUTsGWt61n/tBIlSEHsgApqlRiard+bdCp9vr1U3+/n9P9f/X9MmBbqhTt5xR9R3/59HynnLSh2PGKUzpTBka4tOveR7thSawXYVOEd20t9pnaoFa9AqnU1zgf47h6VVs17SuOq1+VVtN2XiNAgAABAgQmJ/Cdh5cDpGeWU5ZpRZFXHwnVXBEEZlugrVJn0KOKUCgPj777D2Wl0V+X09Z9c6mHmBJuRznZUgoIYt195ZRvvap2Bt13fb1RjyWfti+OI6be69eiYqepReVRPTy6b/9StdF3y68SYl+d0GjL0taxHNVPL/vDooj3x93OKcOxPDwa5DzFOK76X80jSecz3h3VKu8r+otrZxIG0bc2XgEB0pg8b9/11W5PEQzdev0/qUx1tuNVm4tfKSuOLv3Ne7uBxPXlFG5tAVJemfKOt5xTbP+p9i/YujtueZLfS2lrGWhNcmq6liF0X87Do3C6sZx2Lx5Ta3KKbeoBUgR24Ze3iy48q7j9juVf+vP30vO4v9Awx/+6S+9Km3aCp3ys3TcGfBKh4Juu+Gz3/Mdm0d/5Lz5j4Aqqj/zBnsr2UcWWV7K1+cV1FuFQ3iKMys9Hujby9Zr6i6kCb7v+Z/KuPCewpgRiirio7Eitafq3mEItvvRPU8nFF/qx3DRNXL366Lb3npG6XtXjo4890d0uwpWmfXZXmOCTVFWUdjGqU919e3nvpKsvPr0StoV7VNxE1Ve0OE+x3Y5yKsGmlodt73jTM4roc621mLpumBbX2pt+/W+7QVpsG9VvEZAll2H6sy4BAgQIECAwHoFUgfSs8h4/q5nqbTyjWFu9pHsfxaiEamvr3BgNgWEEIrS47xeXw53YNkKTuG/Rji39e4qQJAKk1GLbiz5TBkTl9t320NJ0aDFFWdznJlpMkRdTpI0zJEiBTR5GRGAT9xoa5FhiXPm2Md1eW3gS6/ZrV72oWnn01t1LU/jl28VUceGXDGP/YTOJcC2qxFKL8/OzuwY7TzGWpvMU3qnFcYwy5rgnVN5e9ol8yfO1LDD9u0yvZY1Vjm33n+6vfKkfoUj+JXzqNsKCqy8rPzGOtggUooqmqeUVSE19NW3T9to4+2rbxyCv152ue/dLKuFR6mMQp3xavgg+bisDuyvKoG2cLaql8uqji3+pfcrBQfYb5yHvLwKvCBpTlVq/PiLwyauF4h5PeXiUtm/ya5ri78//onrtXffunx7ouo1wM8aiEVirArv/fPn6jC/l2wKaCDMufOXybzAxDVlTO5BNLxb9jdoOPLIcIE2qsmiQMX6unJYutXE43fxfv5O664Qh9fAo3ozqoHg9d7ztrmb3CFry8C6qmdZaiyqiNP1cHFPcU6tfi2NK28S6Edzd9t4fKbZu7jPfQb+OvU+AAAECBAiMJPD08p43Z21/bXH2BW8YqZ952vjk05/VMTnvLZcJ1ebpxDqWdScQU6ul0CSqSCIEeNkfDlZ5E1hxH5y8rQiPjr4ZgcWv/cnymhFc7diyvDyOZ5ufWj2WCH8iJBmkiijtPyqYUosqqVFa3BMqtQij4qephfm9ZdCVWlRrjbtF2BOVYKnFPish39E34rU3/ve01tJjXl2WvxPnMLWmgCm9N8jjOPsaZH/WGZ/A6N+EjW8sM9tTHmZE2BNf4Le1bc/P/ksuVzrwSEwNVH2t/uX8ph79te0nf/2hvctfzp1xevvY8m0m8bzuFNVAbS2cwjKFX01O8X5UJjWFKG39DvN6Xp0T097Vz90wfeXrLgU8Lxq6v6g+yltUtLW1GGuMOaagixYBUt3pwTIISi1CuF7Xbf1c/flfPFKuP4H/t0sD8khgBIH8vjnnb1uajrGtu20/dkJxxz3lb09li8CiqcUUZakNMt1cWrftcf83l+/rs2kMgVTbfvq9/uDD5V8OR1s/p/O3nVhxCqt8qrioJKqEIr9wauX9tJ94jO0ues3TutVfMZVdbL/t7BPy1Yq8+ije6HWPqsqGU1qI6+LmTyx/jl5cHnN+rfQbRkyreMW/eHoZHGW/kffbyPsECBAgQIDAxAReetlVE+t7Vjs+e8cbZnXoxk2AQINAVOpcWt6XqClUaFi9+1IEULFttAe+3Xv7PCSJ9VNwFc/H2VZ7LDGG/B5Iw1rkxxDHllzi9Q9/OX935fP7DixNZxfv9Ltf0sqt+7+Sh0ex9q697dvEcccUcmmbzS3/FjI/f8OEdE17zt3T1IdN63lt7QkIkMZwTuKeMBf/s6WOxhHQ5FPORa+9vtgfZPgphIl1Rw2jBtlf2zrjdIp7NEWAMqpN21jHXX2U9hMhTj3ISe/1e8wDnwiH+h379hdv6gZIcQ1EgJcHQXE+UnVbv+s2rZfGePKJvvBMFh7XnsCF5bRwj25bCoPqoUR9tIMEOHmwlIcm9b4GWc5Dllh/1P4G2WfbOsM49RtnPmVg7O+Fz6uGQfUxxJR1afrAeK8pQMqrj2KdfmOIdabZ4n5PqUXlURxTHiil95oer/jlZxRRAacRIECAAAECBAgQIEBgGgJRqRPTya2mRSXL+1azYbnNqFUr9d1GBdUoxxL95eHNKOOLECaqn9ZKi/HEuUqt37H1ez8qhnKrmCZwlJZXII3a1yjjsO3wAgKk4c1WbLFU7VGtIlqx0tEXVlQXnb7yX8c/enj5v8g8JIhtU7gUX+jnYUDb/uL1tE08T/1FoBCvp3Ap+qqHBLH+ONuwTmlsMYZNNaeY/m2SbRLVR2G/2vAojjWv4Nr24/2vt7i3Un6fqIf2HqxcM3FfrUHvrVWfajFdR5M8B/omsFqBYb6Yj+qX1PJp1dJr8fhQVqmTV8HEtilcitcHCTjaqmqinzSW6CffTz6WcT4fxal+rPfv+fvu0GLs/abmS8eYjjk9djspn7RNHRhVPum91E++3TSe5/d7iqn1fqWchm7QFtfZMPaD9ms9AgQIECBAgAABAgQINAlEsLDa8Kipv16v7dhSfXfUqpVqb2UF1LeWfuqvD7qcV9TENnEfqGgxrV2qxonleiVVvDZqy6e7u7esRhp3G9amUhFUutZb/Z5F+763tMZqrXL7uCZTi3tmpXAp9vHwofSOx7UiIECa8pnIpyGLL+GbpkXLg4JNP3xS5z5JN5fTl6XpyNKQY/sdLffBSevEY37fnagciXAkpjTLA5pYL6pa4h5NayEcGMQpxjyJNqnqo1HGWg9wtm7Z2Le7OI8RCqbz/GA5leGOvls1r7Br98PdN6LfQcPL7kaeEFijArdn999pq1ZKIVEcQgQWcd+b2+/6XvnfVnXKu9g+qnqiEqWt1ft6aN/jxfX/6VudCpx8mwgZor8IJvqFMfl2k3rezyk/rjNOe/JAw3jumT/UDc0e2rc8nV7aOJ8OLqYOjCqlsK9XO3UCmdc8tQxl2qdFTX2O47EzdV12v6eYjm8tnKNxHJs+CBAgQIAAAQIECBAgsFqBuAfPtS9Z3vrTeycTxCzvYfhn9VBkYbEo/lv5ZdnLz6j2FZVOu8qvwq79/HgCjV/bVp3OL68Uqu55OksRZuXVRU2BVv5+jKpzfl+6eqv6vafC5G3Pr44j9hOhYwSebfeTinW06QoIkKboHcHQHZ9d/iI+wp+mlr7wj/ciNLrk6H1s6utGRVKEQbvufri48T2vbAx+8r5i+yvfX9astrTY1+suvbNTJTNKpUxL9wO/PKjTwB0OueIkqo+GHELf1QetFjvlpOO7AdKhQ8v3Xem7g2yFCNTy6/biX2q/91K2macE1rxAhBH5lHJtVSR51VBsk4cl+UFGsBE/cY+ji1sqUlLlTNrujf/2b9PTymOMa/8jhzr93fjrm45pQDGIU15BNGj11KbTln8Fyc9DgsjdI2C65L3N/0Qrtr3+Y9/uhHrTsPpIed+jNN4Iry5+ff9APx2TRwIECBAgQIAAAQIECMyDQIQJeegS1Ttv+r+Ww4CoMHl3+1eQx4wgVbrEAGIKt/t+cXnM+aAiPImQ5RWbiuKNnxmu6imqsNJ+ouom+smrbyI8yitw8v1O43mcuwhvUougpmk8m8v1UgurT1/Y3+qCO9oDt7ziKYKj3CTtJx5jvQ9vX3r/WAdt+bjW8/Plb2/Ws8IUjj3Cnivf/yfdPUUVR1tIc+CRw9310pMzykqkNG3Z/vL9vBop9X3Te16xYhq6vJop9bU0/d3GIu57EwHTQ2VlSl6lFAHK1udsLOIeOtNu6VjSfns5pXXG+bgWq4/i+OrXxKD3sor10rmth4mDuMX5uP73vthdNa6LHT/THHx2V/KEwAwI3H7ndyv3q4nAp6mKJMKivNIohUdby+qZ55ZTtcVyTHGXAoU49LgPziknPqlxmrK8qib1FVOgbTv7KZ3qpugnnw4uli8tg5Nb3/sjA02RN276QZ3Gvd/ob/8jy6F3OgdR3bTt6P2Vmqyu/MA3ittKq0m1mLrujnse7XYfgZVGgAABAgQIECBdBNHcAABAAElEQVRAgACB9Sawubyla3zJX29RufOhLy/9xPO11vIQI4U8Mc77yn+vGCFJhCZ5MBYhRwQnL/94ezBSP8aowmoKR+7bX96j6M+PbVVWVAHF8aTxRXDUFtKkdeL4hrFqC5HyiqbU95e+WVYcfXup/zg36fXYZwq52sYX62jTERAgTcE5voS/9Dfv7X6RH6FIVAy1te3lvWuKsoTy0cNLX55FxUd9qrt6nw997WBnWrp6KBUBwkU7zuqERBEgRCgUy/UKlgiN8sqba37388W2G1+7Yr22MY/j9foxxRh7OY1jn/U+coOY0q/uXl9/lpbT9TTomNP5SMFTXLfXvfunB93cegTWrMDuz5fBaFmxklqEN72qSGJqtKiwicAnppWLdev3AIpg4fpbv9UNm67/2LeK81904opQKraPypoIRKK/K3756Z0+01jiMUKm3ym3j3F2lssQKZavvvj0zvK0/ieqqXKnqCzq5TTuccV0gKec9KSuaew7/PIWVhGwpQAvzlMEeJMYZ5yvm/Op68rroil0zMfnOQECBAgQIECAAAECBNabwDllELCj/LfHa3EKsghxbitDoQiKIqyIcKI+zng9wot0z6IITz60vSgu2DXamYwAJUKSY3mfnziOPKS5qqwSa6o+iiONqeRuK6uTwirGHuvW7w0VfUVgtmNLbLHUd5NVx/DLS9PgRX8xZV6EafWQMcyjvxQ2xXmIqRDj/k7asRMQIE3YPr58z8Oj2N3Vl72ocbq5NJQdr9pc3ttoc1psfIwv82+9/meKN13x2W4wFfc1qgdIsd4V//Kcxj7yF2O7U058cnH9Rx/ovBzjjqnxImyaRov9RYVWqpaJffZzGve41mr10biOM87voC2FR+l8RJh33btf0vO6HbRv6xE4lgJxz6FrPvJIdwgxBdl1b//h7nL9SQRFEfL0a3Hfo01lX/k0a7ff+b0V227fdmIRP71ahBLXXf7MTl/pfj93lAHVO375GSuCq179jPJeOF15wze6XSw5PbO7PI0nYdrrflIxhrCK6qw3/frfdkOkqJqaRIAU/aagytR107gC7IMAAQIECBAgQIAAgbUqECFIqgyJL/vPKf9sjsqdeH7BlqWfCEsidFhLLYKLpvv95GOMQOWtu5eqYlIw8ory2OKnHqDk26Xncf+eFIBEmJYqa+IxwpGYvq2tSif1MYnHD5+/HPRE/3H+du1t31O81+v92DKsYoq/T+9Y8onXwikCo6joSi2eX/U/01L7Y2c6vUNL/aW13liGSg+ssesojW29PG5YLwd6LI4zQpFLssqjGMPOy7aNraolvtTPA6PYX9OUdYMe+0UXViuT7v/yNwfddKT1klNUUaUWodf2n9qUFqfyuJarjzaV0w3m7UBZ1TZIy9erV521bV8Pj2K9CPO2Pmc6N6hvG5fXCYwqEKFIBDzd6dDKwCemIKtXE612P1Edk1fIfO7+x1bbVWe7+n2UPne0ImmkTgfYuM2pV7VNTMOXWpqaLy23PebrjXIOYtuLXrP8+RT95vdkatv/MK9HpVNUNqV28S+cOrbrJvXpkQABAgQIECBAgAABArMi8HD5JX8EEPETwcDP7iqK599eDRze9oIyLCl/ZrXVw68IgAZpMYVfsrmoDFfCJQKpVG0TVTud+wmVIcu0WoRHb3ru8t7S+JZfGe3ZtWU1Ud7yfeWvD/I8Qro8qBulr0H2Z53+Asvf+PRf1xpDCDSFIhH2jPv+MeeXU9Ll7aG9y19w5a8P+nzHq8oa06Nt1L5SP70e25ymVfmUxrbWq4/q9zw68MhgX0ynCqI4znof6djzxzgf9UqwCD2nHeblY/KcwDgEVhOKrGa/27ed1N0sVat0XxjySYRReTCT3z9pyK4GXj320RSy9QqPovNTnvKk7j4OHX6i+7zXk5jKL7Wo3hql1SuVxh0gxTR5qV04QGVUWtcjAQIECBAgQIAAAQIE1otAqkbJv/yPKcjS/XNmzSGOJ35SGzRASuvnj1FZ89bPLb8SIdK0gpHOdHwTDI/iqOKc51YxTd0oLabOSy2un1m9htIxzPrjaN/YzPrRT3D8UXmUV9REeJRXC41r14NWlQy6v3H312+/13zw/qk49RvHWq4+irHHVIRxbiLgifbg3u8WZXVoz1avRtu6ZWPP9ZvCvAiPxh169hyENwlMQCBCkSs/8I0VlUf9QpHVDKVeSRP7HmU/EcykiqkD31z673814xpkmxhrBCVpfzFNW1RoDTL+bc87odh/z9L40rR7/fa5/5Hl4znjtMGn2Gzqt+7etM5qX4v7W9XDwLwaKe/3/j1/310Mx3y9SUyr192ZJwQIECBAgAABAgQIEFgjAvHlf0xjFi2++N/81PJ+OtOZ5Ghpp2P83whF8nsGjdL1rr1LVUhperuXlzUBMd3dJFuER/GT2rgrj1K/8ZhbpWPM3x/m+b6ywi1v0V8+JV7+nueTFxAgTcB4lFAkvsRPIUEMLYKDXi1ft2m9mI4stQgg+gVEeX8nn1R+yk+whdPu/11G1EfbpEK21H/b41qvPkrj3vqcjcX9X166d0s9HErr5I8PlSFT3npNQRfnvSn0FB7lgp7PokAKRVIAEBU9g4YicbwxHVo+1Vq/MCVfN7avrx/jSS1Cj37Bx6N/v1zNs2nEkCXtt+mxyem6tz9zxfibto3Xtm5e/v+LsI7+6seebxvv51VC+dR/sd6o7ieXtuNq+TmLPuN+VIO0OIabP/Gd7qoCpC6FJwQIECBAgAABAgQIzJDAmWW1TGoxDdvBx9NS82P9y/+4P9JaCZCGPZZelS8byz+D86Dk4UebPfJXv/StpXtFxWux/SRbPTy69cGlqfUG3ecoVmm6vrSvYa3qFUz1/lK/HqcjIEAas3OEInd89uFur8OGIvFF/usuvbO7/XXvfknP6cM+96fL0+rERptOX54+KZY/8p/3FHfcvTSeCCBuu/5n4uXWlvd3Ru2+O60breKNUZ1WscvWTdZ69VEa+LYfP60bIEWQFPeo2vb809LbKx7z44pz3yuMbAqPJlExt2KQXiAwQYGmUOSmAStq0rBuv/N73RAgwp67b16e5jOtkz/GVHmpbT1z5W+Dr7v8b9LbxRW//IzioteW/xSrpUVfqRooVslDmpZNVvVym9Mw+zt/24nF9R8rfxM+2qJqp1dgcvud1YD7/BdV/7FETG/3xn/7t6m74rrLn1lsr63TfbN8Ur8/VFRPaQQIECBAgAABAgQIECAwmkAEKF+6aLmPqJip3xto+d2lZ/Uv/+uBUn39aS7f9/rl0KffsZxZTsP2guxrtwh/8va+l5bT0G1deiWqY55/W/8qmXFVM+XjaHreFB7lU+g1bVN/LbfqV7nUz+qtL1iuhAqrZ99S31t1+eVnLC9HZZPqo2WPY/FsfP9E91iMfo3tcxyhSJqqLB3a7Z/+Snq64jHCpjwkiG3rgUJedRJT6kXo0NZu3/WVIr9nzvYXl7WUE2jX/94DI4Vs4xzSrFQfxTHHfaHyCrKb/2BPK0X9uN54wY+2rhvX7TSmW2wdgDcITEBgHKFIDCuvjImKkgiU2loEPnfcs/xPjp7bECDlU7Xdftd3K9VN9X7z6pV4b+uWlYFUfZthl+tOsX2EbMOER7FNBDa5VQRE0XdTi9d33btcxbPt7KesqFbadNpxlfs/hVVb61T6/NflSp8YS1N417Z9v9fjuC5+/akD/eQGETjm2/Xbj/cJECBAgAABAgQIECCw1gTii/v4Aj+1uG9PhAVtLSpN8inTYr0H2r+KbOtmYq8/kIVAcSy9KoyuelF1GLv2Vpfzqqrop989jd72/Op0eLuW6w+qHY+4VA+P7ttfvf/SoN1XrLYOZ3Vvtd6huC9bDqu3lYFSW4vrKwVzsU69r7btvD45AQHSmGwjyBml8igfRgQFqUWlyfUffaAMdpanoov3YjmqRvLA5+JfOjtt1n3c8aozK6HDNR/8fLG7VrUUK0d4FMFOahFGNU1fFvtNP/l0d2m7fo/hFPtK7cJyfMey0iUP4LY9//QVAVwaZ/6Yjj8ep9kiPKpfG1e+/09WXBtxfq//vS92h9Z2LmOFcYSe3R15QmCNCDSFIlf/yulDhyJxOBEI5NUsEeo0hUhx359LyvsHpRZT5f1KGTrU245XLv+mHVO9xb2Z6kFLBCLX3PRIsfvzy58xF732aStCllgvtk0/9X31W25y2nnJ6pxiXxGWpBZji/sp1Y8tQrb8PktL2628P1uELxe95mmpuyJ8o8Kp3l8sh3uaorDT3y8sjyN1kFvF82HaUoC0sTy+/j8RhqUW10C+TXrdIwECBAgQIECAAAECBGZJ4NaHlkcbX/5/+sLlexwtv7P0WryXV9nEtvXqkQiZYnq09JP3Menn1/758h7SsdQDsRjftS+phhhxHHmQFr10ju0flvuLbSK8aeovXr/2pcvrxpRs9UAq3k0m8RjjGLbVw6Oomrrovw/by9L6cS+r1OKcxrltOrZBrO7dX/WLbZpCpLh3Vuwnb1H9pB1bgYXFBy9ePLZDmP29R7XHzt/9/KoOJEKLm97zisq2Ecy86YrPVsKhCA8605CV08rtf+RwdyqztGFTP+m92+8ow6EyhMpbmtLslBOfXAZK+yv3XYr1bnrPKxvDlBe9/hPdbtrW6a5QezJup1r3ncV8fBFOXf1vyk/ollYfzyDHE/ceeuMV/6Pb493/6cJKQNd9Y4gn9XF86sbXtk431+/aeLC871FeTRTDaJsGMcKzPEAbYsjltbHyuh1me+seFTh0L4oJCLzx1/+2cn+dYXax8+LTizzkiW3r4VC81qlyKe/7EyHB/X/5/RXBRq/p6SLwiD7zloKqCELqU9fFvm5974+suF/S7vsPdwKo6GeQ6fXy/cXzUZyWKmtWBj/Xf+zbZcD23cqu8mOrH3cEY1f88tMr66eFCHreVJ7LPBwK76iOCpN4vd7fha84pbj6kmyOgaOd3fyJg92pCCPkuenXn5V2M9bHfD8xxk994NkD959vGxt96oZnrwgNB+7Min0FFrbtWei70pyssHnzZr/rz8m5XMuHsW/fvrn5b+qdew76b2YtX2zGRoDA3ArceM/yPyCb24NcYwdWDxueenP7AGM6s3Nqf2pFoJJClQgY8uAoeor3fnbX8jqp905IsGNpaZDpzNJ2vR6HOZbbXl0UO7ZUe4sqnZhqL0Kll29anuYu1mo7jngvKmU+vD2eVVv0Fy3ukRRT+uX3SorXYxrAmEKv3v64dE7T5rWtU98mLccxxbGttjWd/0+X5ynOV976Wb2s/Oq46Z5F+XlP/YVthFxxHbzgGUs/6b14HNYg39bzwQUevWSh5+/ybhIwuGXrmnkVUOtKQ7wRYdGNZah0aVZhFMFB5743Df3El/nXvfunG95ZeumiC88qp0mqTncXIUM9aIi1Y99XX/aixvCoXnGUT4/XuvPsjXE7ZV2v6mkenoRhffq/pk5zg7CKn2m2Ya+NnZdta72H1oEpV1BN08m+1rfAocfG+71PBCBXl8HS79z6re49iSK8yIONJN6pOikrYHrd2+i6tz+zE/zk4Uc8v79hVsoIOyIQiYCo3g6UY0ht65nlb6VDtnE7xe5TGJSHSG3HFmFPWr9p6HHMN5bT6XUqmY4ea9wTqq2/sHrHv2gOo+KeSqmNc3q71KdHAgQIECBAgAABAgQIzLPABWUQFBU0+dRiTaFRMoiQ4dLPrQyP4v38Hkn7vpe2mN7jW3eXgUXtWPJ77uQj6RUexXpRhRTh0K+9sBoStfUXwcr7yiqopvAo+stDuPo9l+L9Xi3Cr3G3N35mKSDLA7e2Y+tUO5XrN4VHMa6oQur0d/6yVa9rSHg07rO5+v4ESKu3m+iWMe3Yp258TbHrs/uKuNdNU/gSocdFF5zVGhDkA4xp4mI6u4/EVHt3P5y/1XkewURMj1a/z06+Yh44HIvwJB/LqM+j6ic3bZr+r2kfjx5+vPtyVHEdixbXxq3X/0xnKsD6caTxxLVxxVvOKavW/AueZOKRwCgCF5ZTz2173gnFR8pKlt33P9YNklKfERxt+7GlAOOM8v49vVoEI3GfoV33HCpuu+t7ZbVU+RtkrUUgdOErTu4ZROVTsa2lUCRCoeeWVUI3l/clagrZ4tje+Jqnrqj0qhF0FsMyqnhi2sC4D1JTfxEcxVRxEfS1tf2P/KD7Vr/z013REwIECBAgQIAAAQIECBDoCESFSAQvEQxFiNQWIsT7EarET1vLQ5KHy6qfabf8WOK+RKniJx9HhCAf+vLST1sgktaPMGjX3qXp615RVi/lx5fWiT5u/eul4ChCqbaWVyqthXtHhVWEPnHO26zieOJ8DzLVXDjFvZWiYmzHmctBUvIIpwii3l1WaA0boKU+PI5fwBR24zedSI8xdVpUvxwop6/bVE5jF8HAaqtfop/UXww2AolBgoaY6u7Ka/+kc3zbX3xGcd1V7VVPE0FYA53m075FZVeENMe63f/lb3auixjHyeWUhFFJtdpr41gfy7rbvynsZvaUp+qhCHFiqrJNZdDRVCU0yAHGfXyimij6ij42lf0NEnJcecPflfdJeqyzi+suf2ax/UUnDrK7qa4T0/FF6HOorByK9sIyhBvk2NoGmab3C69wiuBsEPd8ur7byukA11Lg1nasXp+sgCnsJuur9/UnYAq79XfOHTEBAgTGLWAKu3GLTra/CDrOecbSPqKiKL7sjzCoX9gSW+RTyEUo1StsWtrDZP83HUtU8ERgEoHIw+XPalu4RJ/D9hfb3feLS3uNMTz/9tWOYHLbTdKq4z7gNTS5I1yfPZvCbk7O+yABz6CHGuHCINO11fuL0Cm17S8uI/V12B4q7zGU2vbzzkhPj+njas7lMR2wnROYA4Fe1S7DHl4EKqsJVfKqmq1byt9012CL+xXFz7hat6+zh+vxoYfLvwLKFmGf8Gg4O2sTIECAAAECBAgQIECgLhBBUUxJtpq2MfsT8d4Dq+lhvNuMcixNI4kKm9W0vHJpLbg0HcNasWoam9cmJ7DypgqT25eeZ1wgD09eWE6Rth5bmvZutSHcejRzzAQITEYghSIxhdtqAqjJjGrt9RpVS6mNM/hLfXokQIAAAQIECBAgQIAAgcEFXlBW2kT70jeb75G09O76+9/kEkf+6b3r7/gd8doVECCt3XOz5kaWKpDi3j8x7d16a2nqvzjumMJPI0CAwLESSFPoxf63b1t/n8fDuD+0dzlAOv+FJw2zqXUJECBAgAABAgQIECBAYIwCaXq36HKtVtmM8XCH6irunxQtptHbtbfz1P8QWBMCAqQ1cRrW/iAiPEnVNxe+avPaH/AERpgCtOj6fAHSBIR1SYDAoAKp+ijWP38N3vto0OOYxnr3/9X3O7uJeyWtxftETcPAPggQIECAAAECBAgQILAWBPIqm1v/ei2MaO2MIdkIj9bOOTGSJYHjQBAYRODA3x0uLnzVmZ1V13N4kgy2/9T6vAfUINeKdQgQmLxAhCEXvvKUYlN5Tx/T1/X23lTeYyqsuvdP6r26dwkQIECAAAECBAgQIEBgQgJRXXPbQ0udxxR22pLA08r7Qn364aXnyYcNgbUisLD44MWLa2UwxkGAAIF1JXDo3nV1uA6WAAECa0VgYduehbUylkmPY/PmzX7XnzSy/ot9+/bNzX9T79xz0H8zrmkCBAgcA4Eb73naMdirXRIgQIDAo5cs9Pxd3hR2rhECBAgQIECAAAECBAgQIECAAAECBAgQIECAAIGKgACpwmGBAAECBAgQIECAAAECBAgQIECAAAECBAgQIEBAgOQaIECAAAECBAgQIECAAAECBAgQIECAAAECBAgQqAgIkCocFggQIECAAAECBAgQIECAAAECBAgQIECAAAECBARIrgECBAgQIECAAAECBAgQIECAAAECBAgQIECAAIGKgACpwmGBAAECBAgQIECAAAECBAgQIECAAAECBAgQIEBAgOQaIECAAAECBAgQIECAAAECBAgQIECAAAECBAgQqAgIkCocFggQIECAAAECBAgQIECAAAECBAgQIECAAAECBARIrgECBAgQIECAAAECBAgQIECAAAECBAgQIECAAIGKgACpwmGBAAECBAgQIECAAAECBAgQIECAAAECBAgQIEBAgOQaIECAAAECBAgQIECAAAECBAgQIECAAAECBAgQqAgIkCocFggQIECAAAECBAgQIECAAAECBAgQIECAAAECBARIrgECBAgQIECAAAECBAgQIECAAAECBAgQIECAAIGKgACpwmGBAAECBAgQIECAAAECBAgQIECAAAECBAgQIEBAgOQaIECAAAECBAgQIECAAAECBAgQIECAAAECBAgQqAgIkCocFggQIECAAAECBAgQIECAAAECBAgQIECAAAECBARIrgECBAgQIECAAAECBAgQIECAAAECBAgQIECAAIGKgACpwmGBAAECBAgQIECAAAECBAgQIECAAAECBAgQIEBAgOQaIECAAAECBAgQIECAAAECBAgQIECAAAECBAgQqAgIkCocFggQIECAAAECBAgQIECAAAECBAgQIECAAAECBARIrgECBAgQIECAAAECBAgQIECAAAECBAgQIECAAIGKgACpwmGBAAECBAgQIECAAAECBAgQIECAAAECBAgQIEBAgOQaIECAAAECBAgQIECAAAECBAgQIECAAAECBAgQqAgIkCocFggQIECAAAECBAgQIECAAAECBAgQIECAAAECBARIrgECBAgQIECAAAECBAgQIECAAAECBAgQIECAAIGKgACpwmGBAAECBAgQIECAAAECBAgQIECAAAECBAgQIEBAgOQaIECAAAECBAgQIECAAAECBAgQIECAAAECBAgQqAgIkCocFggQIECAAAECBAgQIECAAAECBAgQIECAAAECBARIrgECBAgQIECAAAECBAgQIECAAAECBAgQIECAAIGKgACpwmGBAAECBAgQIECAAAECBAgQIECAAAECBAgQIEBAgOQaIECAAAECBAgQIECAAAECBAgQIECAAAECBAgQqAgIkCocFggQIECAAAECBAgQIECAAAECBAgQIECAAAECBARIrgECBAgQIECAAAECBAgQIECAAAECBAgQIECAAIGKgACpwmGBAAECBAgQIECAAAECBAgQIECAAAECBAgQIEBAgOQaIECAAAECBAgQIECAAAECBAgQIECAAAECBAgQqAgIkCocFggQIECAAAECBAgQIECAAAECBAgQIECAAAECBARIrgECBAgQIECAAAECBAgQIECAAAECBAgQIECAAIGKgACpwmGBAAECBAgQIECAAAECBAgQIECAAAECBAgQIEBAgOQaIECAAAECBAgQIECAAAECBAgQIECAAAECBAgQqAgIkCocFggQIECAAAECBAgQIECAAAECBAgQIECAAAECBARIrgECBAgQIECAAAECBAgQIECAAAECBAgQIECAAIGKgACpwmGBAAECBAgQIECAAAECBAgQIECAAAECBAgQIEBAgOQaIECAAAECBAgQIECAAAECBAgQIECAAAECBAgQqAgIkCocFggQIECAAAECBAgQIECAAAECBAgQIECAAAECBARIrgECBAgQIECAAAECBAgQIECAAAECBAgQIECAAIGKgACpwmGBAAECBAgQIECAAAECBAgQIECAAAECBAgQIEBAgOQaIECAAAECBAgQIECAAAECBAgQIECAAAECBAgQqAgIkCocFggQIECAAAECBAgQIECAAAECBAgQIECAAAECBARIrgECBAgQIECAAAECBAgQIECAAAECBAgQIECAAIGKgACpwmGBAAECBAgQIECAAAECBAgQIECAAAECBAgQIEBAgOQaIECAAAECBAgQIECAAAECBAgQIECAAAECBAgQqAgIkCocFggQIECAAAECBAgQIECAAAECBAgQIECAAAECBARIrgECBAgQIECAAAECBAgQIECAAAECBAgQIECAAIGKgACpwmGBAAECBAgQIECAAAECBAgQIECAAAECBAgQIEBAgOQaIECAAAECBAgQIECAAAECBAgQIECAAAECBAgQqAgIkCocFggQIECAAAECBAgQIECAAAECBAgQIECAAAECBARIrgECBAgQIECAAAECBAgQIECAAAECBAgQIECAAIGKgACpwmGBAAECBAgQIECAAAECBAgQIECAAAECBAgQIEBAgOQaIECAAAECBAgQIECAAAECBAgQIECAAAECBAgQqAgIkCocFggQIECAAAECBAgQIECAAAECBAgQIECAAAECBARIrgECBAgQIECAAAECBAgQIECAAAECBAgQIECAAIGKgACpwmGBAAECBAgQIECAAAECBAgQIECAAAECBAgQIEBAgOQaIECAAAECBAgQIECAAAECBAgQIECAAAECBAgQqAgIkCocFggQIECAAAECBAgQIECAAAECBAgQIECAAAECBARIrgECBAgQIECAAAECBAgQIECAAAECBAgQIECAAIGKgACpwmGBAAECBAgQIECAAAECBAgQIECAAAECBAgQIEBAgOQaIECAAAECBAgQIECAAAECBAgQIECAAAECBAgQqAgIkCocFggQIECAAAECBAgQIECAAAECBAgQIECAAAECBARIrgECBAgQIECAAAECBAgQIECAAAECBAgQIECAAIGKgACpwmGBAAECBAgQIECAAAECBAgQIECAAAECBAgQIEBAgOQaIECAAAECBAgQIECAAAECBAgQIECAAAECBAgQqAgIkCocFggQIECAAAECBAgQIECAAAECBAgQIECAAAECBARIrgECBAgQIECAAAECBAgQIECAAAECBAgQIECAAIGKgACpwmGBAAECBAgQIECAAAECBAgQIECAAAECBAgQIEBAgOQaIECAAAECBAgQIECAAAECBAgQIECAAAECBAgQqAgIkCocFggQIECAAAECBAgQIECAAAECBAgQIECAAAECBARIrgECBAgQIECAAAECBAgQIECAAAECBAgQIECAAIGKgACpwmGBAAECBAgQIECAAAECBAgQIECAAAECBAgQIEBAgOQaIECAAAECBAgQIECAAAECBAgQIECAAAECBAgQqAgIkCocFggQIECAAAECBAgQIECAAAECBAgQIECAAAECBARIrgECBAgQIECAAAECBAgQIECAAAECBAgQIECAAIGKgACpwmGBAAECBAgQIECAAAECBAgQIECAAAECBAgQIEBAgOQaIECAAAECBAgQIECAAAECBAgQIECAAAECBAgQqAgIkCocFggQIECAAAECBAgQIECAAAECBAgQIECAAAECBARIrgECBAgQIECAAAECBAgQIECAAAECBAgQIECAAIGKgACpwmGBAAECBAgQIECAAAECBAgQIECAAAECBAgQIEBAgOQaIECAAAECBAgQIECAAAECBAgQIECAAAECBAgQqAgIkCocFggQIECAAAECBAgQIECAAAECBAgQIECAAAECBARIrgECBAgQIECAAAECBAgQIECAAAECBAgQIECAAIGKgACpwmGBAAECBAgQIECAAAECBAgQIECAAAECBAgQIEBAgOQaIECAAAECBAgQIECAAAECBAgQIECAAAECBAgQqAgIkCocFggQIECAAAECBAgQIECAAAECBAgQIECAAAECBARIrgECBAgQIECAAAECBAgQIECAAAECBAgQIECAAIGKgACpwmGBAAECBAgQIECAAAECBAgQIECAAAECBAgQIEBAgOQaIECAAAECBAgQIECAAAECBAgQIECAAAECBAgQqAgIkCocFggQIECAAAECBAgQIECAAAECBAgQIECAAAECBARIrgECBAgQIECAAAECBAgQIECAAAECBAgQIECAAIGKgACpwmGBAAECBAgQIECAAAECBAgQIECAAAECBAgQIEBAgOQaIECAAAECBAgQIECAAAECBAgQIECAAAECBAgQqAgIkCocFggQIECAAAECBAgQIECAAAECBAgQIECAAAECBARIrgECBAgQIECAAAECBAgQIECAAAECBAgQIECAAIGKgACpwmGBAAECBAgQIECAAAECBAgQIECAAAECBAgQIEBAgOQaIECAAAECBAgQIECAAAECBAgQIECAAAECBAgQqAgIkCocFggQIECAAAECBAgQIECAAAECBAgQIECAAAECBARIrgECBAgQIECAAAECBAgQIECAAAECBAgQIECAAIGKgACpwmGBAAECBAgQIECAAAECBAgQIECAAAECBAgQIEBAgOQaIECAAAECBAgQIECAAAECBAgQIECAAAECBAgQqAgIkCocFggQIECAAAECBAgQIECAAAECBAgQIECAAAECBARIrgECBAgQIECAAAECBAgQIECAAAECBAgQIECAAIGKgACpwmGBAAECBAgQIECAAAECBAgQIECAAAECBAgQIEBAgOQaIECAAAECBAgQIECAAAECBAgQIECAAAECBAgQqAgIkCocFggQIECAAAECBAgQIECAAAECBAgQIECAAAECBARIrgECBAgQIECAAAECBAgQIECAAAECBAgQIECAAIGKgACpwmGBAAECBAgQIECAAAECBAgQIECAAAECBAgQIEBAgOQaIECAAAECBAgQIECAAAECBAgQIECAAAECBAgQqAgIkCocFggQIECAAAECBAgQIECAAAECBAgQIECAAAECBARIrgECBAgQIECAAAECBAgQIECAAAECBAgQIECAAIGKgACpwmGBAAECBAgQIECAAAECBAgQIECAAAECBAgQIEBAgOQaIECAAAECBAgQIECAAAECBAgQIECAAAECBAgQqAgIkCocFggQIECAAAECBAgQIECAAAECBAgQIECAAAECBARIrgECBAgQIECAAAECBAgQIECAAAECBAgQIECAAIGKgACpwmGBAAECBAgQIECAAAECBAgQIECAAAECBAgQIEAgAqS9GAgQIEBg6gIHyz3unfpe7ZAAAQIE4vNXI0CAQJvA3rY3vE6AAAECExJYKA4u+Pt4Qri6JUCAQE+Bvn8fbygWFvb27MKbBAgQIDB+gYWFLxQLAqTxw+qRAAECfQQWii/0WcPbBAisb4G96/vwHT0BAgSOgcBi8YVFfx8fA3i7JEBg3QsM8PfxhmJx8XPrHgoAAQIEpi1wZPGPfP5OG93+CBAgUAosFn/EgQABAm0CC4W/j9tsvE6AAIFJCSwsLv7RwmLh+8lJAeuXAAECLQLlZ2/fv483FMc/fkPL9l4mQIAAgUkJLG74ZLHhBJ+/k/LVLwECBNoENix+su0trxMgQODx7xd+P3MZECBAYMoCGxaKT2443ufvlNntjgABAsWGI0Xfv483LDznloPlNHa7eREgQIDAlAQWFm5ZOPvGvQvnfqH8/C12T2mvdkOAAAECRfn5e+5f7QVBgACBNoEbzj31YPne7rb3vU6AAAECYxbYsHDLtWefuvfgWxb8fTxmWt0RIECgp8BCccvBt/a/vdGGTidPLLylfIxflDUCBAgQmKzAweKJhWu6u1hYLD9/y1+UNQIECBCYsED5WbvhyPLn74T3pnsCBGZX4ElF+fvZor+PZ/cMGjkBAjMjUH7WPunI8u9nT3qi8P3kzJw8AyVAYMYFDpafuQP9fdwJkOJfwpe/IA+0wYzDGD4BAgSOrUD5Wdv5zD06is6/hD/yhM/fY3tW7J0AgfUgcGTxGtVH6+FEO0YCowvEv4RfLBb9fjY6pR4IECDQUyA+a+MzN60U/xL+SOH7yeThkQABApMSiM/aQaqPYv9LFUjlk4Ufu/mG4ogP6UmdFP0SIEAgPmM7n7U1ioXzHiw/f31JUWOxSIAAgfEJHFm4ZuG8PTeMr0M9ESAw7wLXPe/UG4RI836WHR8BAsdSID5j47O2PobHLlm4YdH3k3UWywQIEBibQHzGxmftoB12A6TYYOHsm3eWlUhvL5+aTmlQQesRIECgv8DB+GztfMa2rLtw3l/tLI4cKT9/TWfXQuRlAgQIrEKg/Ew9Un7+nveXO1exsU0IEFjnAtedferOxcXFt5e/x/n7eJ1fCw6fAIExCpSfqfHZGp+xbb0eeuvCzvJfx/t+sg3I6wQIEFidwMH4bI3P2GE2rwRIseFSJdKGc8un/3GYjqxLgAABAg0CCwu7iyMbzm2qPKqv3alE2nDk3PJLCp+/dRzLBAgQGFZgodhd3vPoXJVHw8JZnwCBXCD+dfyTFhbPLf+lvN/PchjPCRAgsDqB3fGZ2lR5VO8u/nX8k44Uvp+sw1gmQIDAagTKv4/jM3WYyqO0m4X0pOlxcc+lW4qFIz9fbFj4uWJx8SfLdTY2rec1AgQIEOgK7C0WFvYWTyx+rjjhxBsWnnPDqv7F6uL/+bEtxZGFny8WivLzd6H8/F30+dsl9oQAAQKNAuXnb7H0+Xvc929YOHfvqj5/G3ue4Rc3b968OMPDN/QZEdi3b1/Pvytn5DD6DvOqPd/Z8o+Lxc8vLMTfx8VPlp85fj/rq2YFAgTWs0D5fw57y19Eyp/Fz518QnHDzuecuqrfzzZ+eHHLkQ3Fzy92/j4uP399P7meLyvHToDAAAKdz9/y7+PFJ4rPHVd+/h58y+pnPFoXv+gPYGoVAgQIECBAgAABAnMnIECau1O6Jg9ovQRIaxLfoAgQIECAAAECBAhMUGDFFHYT3JeuCRAgQIAAAQIECBAgQIAAAQIECBAgQIAAAQIEZkBAgDQDJ8kQCRAgQIAAAQIECBAgQIAAAQIECBAgQIAAAQLTFBAgTVPbvggQIECAAAECBAgQIECAAAECBAgQIECAAAECMyAgQJqBk2SIBAgQIECAAAECBAgQIECAAAECBAgQIECAAIFpCgiQpqltXwQIECBAgAABAgQIECBAgAABAgQIECBAgACBGRAQIM3ASTJEAgQIECBAgAABAgQIECBAgAABAgQIECBAgMA0BQRI09S2LwIECBAgQIAAAQIECBAgQIAAAQIECBAgQIDADAgIkGbgJBkiAQIECBAgQIAAAQIECBAgQIAAAQIECBAgQGCaAgKkaWrbFwECBAgQIECAAAECBAgQIECAAAECBAgQIEBgBgQESDNwkgyRAAECBAgQIECAAAECBAgQIECAAAECBAgQIDBNAQHSNLXtiwABAgQIECBAgAABAgQIECBAgAABAgQIECAwAwICpBk4SYZIgAABAgQIECBAgAABAgQIECBAgAABAgQIEJimgABpmtr2RYAAAQIECBAgQIAAAQIECBAgQIAAAQIECBCYAQEB0gycJEMkQIAAAQIECBAgQIAAAQIECBAgQIAAAQIECExTQIA0TW37IkCAAAECBAgQIECAAAECBAgQIECAAAECBAjMgIAAaQZOkiESIECAAAECBAgQIECAAAECBAgQIECAAAECBKYpIECaprZ9ESBAgAABAgQIECBAgAABAgQIECBAgAABAgRmQECANAMnyRAJECBAgAABAgQIECBAgAABAgQIECBAgAABAtMUECBNU9u+CBAgQIAAAQIECBAgQIAAAQIECBAgQIAAAQIzICBAmoGTZIgECBAgQIAAAQIECBAgQIAAAQIECBAgQIAAgWkKCJCmqW1fBAgQIECAAAECBAgQIECAAAECBAgQIECAAIEZEBAgzcBJMkQCBAgQIECAAAECBAgQIECAAAECBAgQIECAwDQFBEjT1LYvAgQIECBAgAABAgQIECBAgAABAgQIECBAgMAMCAiQZuAkGSIBAgQIECBAgAABAgQIECBAgAABAgQIECBAYJoCAqRpatsXAQIECBAgQIAAAQIECBAgQIAAAQIECBAgQGAGBARIM3CSDJEAAQIECBAgQIAAAQIECBAgQIAAAQIECBAgME0BAdI0te2LAAECBAgQIECAAAECBAgQIECAAAECBAgQIDADAgKkGThJhkiAAAECBAgQIECAAAECBAgQIECAAAECBAgQmKaAAGma2vZFgAABAgQIECBAgAABAgQIECBAgAABAgQIEJgBAQHSDJwkQyRAgAABAgQIECBAgAABAgQIECBAgAABAgQITFNAgDRNbfsiQIAAAQIECBAgQIAAAQIECBAgQIAAAQIECMyAgABpBk6SIRIgQIAAAQIECBAgQIAAAQIECBAgQIAAAQIEpikgQJqmtn0RIECAAAECBAgQIECAAAECBAgQIECAAAECBGZAQIA0AyfJEAkQIECAAAECBAgQIECAAAECBAgQIECAAAEC0xQQIE1T274IECBAgAABAgQIECBAgAABAgQIECBAgAABAjMgcFyvMS7evbixKA79arG4uL0oFrcUiwtbeq3vPQIECBAoDhYLxRfKz80/KjYc/8mFVz1l72pMFnd+bWNx+IRfLRbi87fYcvSnfNAIECBAoEXgYPl6+flblJ+/C59cuHbT3pb1vEyAAIGJCHzta1/beMIJJ/zqYufvZ7+/TQRZpwQIzJvA0u9vRfFHCwsLn9y0aXW/v+3cuXPj4cOHO5+/ZT9bys/hLfMG5XgIECAwZoHO52/5eflHxx133CevvfbavW39LzS9sXj335dh0Q8+Wv4Bvr3pfa8RIECAwMACtxQbnnzNoEHS4lUHys/fxY+WvW8feA9WJECAAIEGgcVbioUN16z3IGnz5s2LDTheIjBWgX379jX+XTnWnazhzg4cOBBfVvr9bQ2fI0MjQGA2BMrP0ls2bNhwzaBB0lVXXbXliSee8Pk7G6fXKAkQWNsCtzzpSU+6pilIWjGF3eLdZcXRkR/8H+HR2j6jRkeAwMwIvDk+Uxf/x3cv7zfixXd/PSo+/0+53vZ+63qfAAECBPoJLLw5PlMX37W/7+dvv568T4AAgTaBr3/96/Ev3v3+1gbkdQIECAwhUFYPvTk+U/fv7//72zvf+c5fLcMjn79D+FqVAAECPQTeHJ+p73rXu1b8/VwJkBbvfvTq4siRG8qONvbozFsECBAgMJxA+Zm68IHOZ2zLdovvOnB1Ufj8beHxMgECBFYrsLGcVvQDS5+xq+3CdgQIEGgWKCuPrj7i7+dmHK8SIEBg9QLxneQH4jO2rYvyC854z/eXbUBeJ0CAwOoENpYh/geOfsZ2e+gGSEuVR4s7u+94QoAAAQLjFTiyuLOpEqlTebTg83e82HojQIBAJlB+xqpEyjw8JUBgZIGjlUc7R+5IBwQIECDQKFB+ibmzqRIpKo/ivcaNvEiAAAECIwvEZ2xeidSZq7pzz6OYtk7l0cjAOiBAgEAfgYPlPZHOTfdEOnrPI5+/fdC8TYAAgTEIHCwWFs5db/dEcg+kMVw5uugrsN7ugXT0nkd+f+t7ZViBAAECIwscLKe1OzfdE+noPY98/o7MqgMCBAj0FThY3hPp3Lgn0lIF0pEfROmnaev6ulmBAAECIwtsLBZ/8NFuL4uFz98uhicECBCYqED5+du5yf1Ed6JzAgTWhYDf39bFaXaQBAisAYGYTqn793N5fw6fv2vgpBgCAQLrQmBj+Znb+fxdOFp99LV1cdgOkgABAmtFYMMTpxZ3fT++zPT5u1bOiXEQILA+BJ7yD6cu7HzOwfVxsEWhAmm9nOlje5zrqQLpaPWR39+O7SVn7wQIrDOBf/iHfzj1pptuii8zff6us3PvcAkQOLYCJ5100qkbiiOP//yxHYa9EyBAYB0KHNlweXFk0efvOjz1DpkAgWMs8P3jLz/GI7B7AgRmWKD8l/B+f5vh82foBAjMpsDxxx9/+T/+4z/6/J3N02fUBAjMsMDhw4cvP66cC/7nisUZPgpDJ0CAwCwKLCycX3TuQjeLgzdmAgQIzLDAYvn5qxEgQGD1Aj+3+k1tSYAAAQKrESjvg3R++bOaTW1DgAABAiMIlP946vzjyvDoJ0fow6YECBAgsBqBxWJLudnG1WxqGwIECBAYSWDLSFvbmACB9S7g7+f1fgU4fgIEjoXAlnKn/n4+FvL2SYDAehfYclwp4AN4vV8Gjp8AgWMhsOVY7NQ+CRAgQKAT4GMgQIDAagX8/bxaOdsRIEBg9QJbVr+pLQkQIEBgBIEtG0bY2KYECBAgQIAAAQIECBAgQIAAAQIECBAgQIAAAQJzKCBAmsOT6pAIECBAgAABAgQIECBAgAABAgQIECBAgAABAqMICJBG0bMtAQIECBAgQIAAAQIECBAgQIAAAQIECBAgQGAOBQRIc3hSHRIBAgQIECBAgAABAgQIECBAgAABAgQIECBAYBQBAdIoerYlQIAAAQIECBAgQIAAAQIECBAgQIAAAQIECMyhgABpDk+qQyJAgAABAgQIECBAgAABAgQIECBAgAABAgQIjCIgQBpFz7YECBAgQIAAAQIECBAgQIAAAQIECBAgQIAAgTkUECDN4Ul1SAQIECBAgAABAgQIECBAgAABAgQIECBAgACBUQQESKPo2ZYAAQIECBAgQIAAAQIECBAgQIAAAQIECBAgMIcCAqQ5PKkOiQABAgQIECBAgAABAgQIECBAgAABAgQIECAwioAAaRQ92xIgQIAAAQIECBAgQIAAAQIECBAgQIAAAQIE5lBAgDSHJ9UhESBAgAABAgQIECBAgAABAgQIECBAgAABAgRGERAgjaJnWwIECBAgQIAAAQIECBAgQIAAAQIECBAgQIDAHAoIkObwpDokAgQIECBAgAABAgQIECBAgAABAgQIECBAgMAoAgKkUfRsS4AAAQIECBAgQIAAAQIECBAgQIAAAQIECBCYQwEB0hyeVIdEgAABAgQIECBAgAABAgQIECBAgAABAgQIEBhFQIA0ip5tCRAgQIAAAQIECBAgQIAAAQIECBAgQIAAAQJzKCBAmsOT6pAIECBAgAABAgQIECBAgAABAgQIECBAgAABAqMICJBG0bMtAQIECBAgQIAAAQIECBAgQIAAAQIECBAgQGAOBQRIc3hSHRIBAgQIECBAgAABAgQIECBAgAABAgQIECBAYBQBAdIoerYlQIAAAQIECBAgQIAAAQIECBAgQIAAAQIECMyhgABpDk+qQyJAgAABAgQIECBAgAABAgQIECBAgAABAgQIjCIgQBpFz7YECBAgQIAAAQIECBAgQIAAAQIECBAgQIAAgTkUECDN4Ul1SAQIECBAgAABAgQIECBAgAABAgQIECBAgACBUQQESKPo2ZYAAQIECBAgQIAAAQIECBAgQIAAAQIECBAgMIcCAqQ5PKkOiQABAgQIECBAgAABAgQIECBAgAABAgQIECAwioAAaRQ92xIgQIAAAQIECBAgQIAAAQIECBAgQIAAAQIE5lBAgDSHJ9UhESBAgAABAgQIECBAgAABAgQIECBAgAABAgRGERAgjaJnWwIECBAgQIAAAQIECBAgQIAAAQIECBAgQIDAHAoIkObwpDokAgQIECBAgAABAgQIECBAgAABAgQIECBAgMAoAgKkUfRsS4AAAQIECBAgQIAAAQIECBAgQIAAAQIECBCYQwEB0hyeVIdEgAABAgQIECBAgAABAgQIECBAgAABAgQIEBhFQIA0ip5tCRAgQIAAAQIECBAgQIAAAQIECBAgQIAAAQJzKCBAmsOT6pAIECBAgAABAgQIECBAgAABAgQIECBAgAABAqMICJBG0bMtAQIECBAgQIAAAQIECBAgQIAAAQIECBAgQGAOBQRIc3hSHRIBAgQIECBAgAABAgQIECBAgAABAgQIECBAYBQBAdIoerYlQIAAAQIECBAgQIAAAQIECBAgQIAAAQIECMyhgABpDk+qQyJAgAABAgQIECBAgAABAgQIECBAgAABAgQIjCIgQBpFz7YECBAgQIAAAQIECBAgQIAAAQIECBAgQIAAgTkUECDN4Ul1SAQIECBAgAABAgQIECBAgAABAgQIECBAgACBUQQESKPo2ZYAAQIECBAgQIAAAQIECBAgQIAAAQIECBAgMIcCAqQ5PKkOiQABAgQIECBAgAABAgQIECBAgAABAgQIECAwioAAaRQ92xIgQIAAAQIECBAgQIAAAQIECBAgQIAAAQIE5lBAgDSHJ9UhESBAgAABAgQIECBAgAABAgQIECBAgAABAgRGERAgjaJnWwIECBAgQIAAAQIECBAgQIAAAQIECBAgQIDAHAoIkObwpDokAgQIECBAgAABAgQIECBAgAABAgQIECBAgMAoAgKkUfRsS4AAAQIECBAgQIAAAQIECBAgQIAAAQIECBCYQwEB0hyeVIdEgAABAgQIECBAgAABAgQIECBAgAABAgQIEBhFQIA0ip5tCRAgQIAAAQIECBAgQIAAAQIECBAgQIAAAQJzKCBAmsOT6pAIECBAgAABAgQIECBAgAABAgQIECBAgAABAqMICJBG0bMtAQIECBAgQIAAAQIECBAgQIAAAQIECBAgQGAOBQRIc3hSHRIBAgQIECBAgAABAgQIECBAgAABAgQIECBAYBQBAdIoerYlQIAAAQIECBAgQIAAAQIECBAgQIAAAQIECMyhgABpDk+qQyJAgAABAgQIECBAgAABAgQIECBAgAABAgQIjCIgQBpFz7YECBAgQIAAAQIECBAgQIAAAQIECBAgQIAAgTkUECDN4Ul1SAQIECBAgAABAgQIECBAgAABAgQIECBAgACBUQQESKPo2ZYAAQIECBAgQIAAAQIECBAgQIAAAQIECBAgMIcCAqQ5PKkOiQABAgQIECBAgAABAgQIECBAgAABAgQIECAwioAAaRQ92xIgQIAAAQIECBAgQIAAAQIECBAgQIAAAQIE5lBAgDSHJ9UhESBAgAABAgQIECBAgAABAgQIECBAgAABAgRGERAgjaJnWwIECBAgQIAAAQIECBAgQIAAAQIECBAgQIDAHAoIkObwpDokAgQIECBAgAABAgQIECBAgAABAgQIECBAgMAoAgKkUfRsS4AAAQIECBAgQIAAAQIECBAgQIAAAQIECBCYQwEB0hyeVIdEgAABAgQIECBAgAABAgQIECBAgAABAgQIEBhFQIA0ip5tCRAgQIAAAQIECBAgQIAAAQIECBAgQIAAAQJzKCBAmsOT6pAIECBAgAABAgQIECBAgAABAgQIECBAgAABAqMICJBG0bMtAQIECBAgQIAAAQIECBAgQIAAAQIECBAgQGAOBQRIc3hSHRIBAgQIECBAgAABAgQIECBAgAABAgQIECBAYBQBAdIoerYlQIAAAQIECBAgQIAAAQIECBAgQIAAAQIECMyhgABpDk+qQyJAgAABAgQIECBAgAABAgQIECBAgAABAgQIjCIgQBpFz7YECBAgQIAAAQIECBAgQIAAAQIECBAgQIAAgTkUECDN4Ul1SAQIECBAgAABAgQIECBAgAABAgQIECBAgACBUQQESKPo2ZYAAQIECBAgQIAAAQIECBAgQIAAAQIECBAgMIcCAqQ5PKkOiQABAgQIECBAgAABAgQIEPj/2bv7YDuqOt//zdRogZxUSWYKkij8ASGUT4Rr8JbJJNfgDAyOSQwFSEXB6J0yydWxxmtSeBm9hPDTYaQ4ouUdJok1V4NgCsJUUkm4KiiESSSWkhlgEMvw8AeRJFBjsCbhoZw/+PWnD98+371OP6z9dM5+eK+q4967e/XqtV69OYn9yVqNAAIIIIAAAggggEA7AgRI7ehxLAIIIIAAAggggAACCCCAAAIIIIAAAggggAACCCAwgAIESAN4URkSAggggAACCCCAAAIIIIAAAggggAACCCCAAAIIINCOAAFSO3ociwACCCCAAAIIIIAAAggggAACCCCAAAIIIIAAAggMoAAB0gBeVIaEAAIIIIAAAggggAACCCCAAAIIIIAAAggggAACCLQjQIDUjh7HIoAAAggggAACCCCAAAIIIIAAAggggAACCCCAAAIDKECAE6tH0AAAQABJREFUNIAXlSEhgAACCCCAAAIIIIAAAggggAACCCCAAAIIIIAAAu0IECC1o8exCCCAAAIIIIAAAggggAACCCCAAAIIIIAAAggggMAAChAgDeBFZUgIIIAAAggggAACCCCAAAIIIIAAAggggAACCCCAQDsCBEjt6HEsAggggAACCCCAAAIIIIAAAggggAACCCCAAAIIIDCAAgRIA3hRGRICCCCAAAIIIIAAAggggAACCCCAAAIIIIAAAggg0I4AAVI7ehyLAAIIIIAAAggggAACCCCAAAIIIIAAAggggAACCAygAAHSAF5UhoQAAggggAACCCCAAAIIIIAAAggggAACCCCAAAIItCNAgNSOHscigAACCCCAAAIIIIAAAggggAACCCCAAAIIIIAAAgMoQIA0gBeVISGAAAIIIIAAAggggAACCCCAAAIIIIAAAggggAAC7QgQILWjx7EIIIAAAggggAACCCCAAAIIIIAAAggggAACCCCAwAAKECAN4EVlSAgggAACCCCAAAIIIIAAAggggAACCCCAAAIIIIBAOwIESO3ocSwCCCCAAAIIIIAAAggggAACCCCAAAIIIIAAAgggMIACBEgDeFEZEgIIIIAAAggggAACCCCAAAIIIIAAAggggAACCCDQjgABUjt6HIsAAggggAACCCCAAAIIIIAAAggggAACCCCAAAIIDKAAAdIAXlSGhAACCCCAAAIIIIAAAggggAACCCCAAAIIIIAAAgi0I0CA1I4exyKAAAIIIIAAAggggAACCCCAAAIIIIAAAggggAACAyhAgDSAF5UhIYAAAggggAACCCCAAAIIIIAAAggggAACCCCAAALtCBAgtaPHsQgggAACCCCAAAIIIIAAAggggAACCCCAAAIIIIDAAAoQIA3gRWVICCCAAAIIIIAAAggggAACCCCAAAIIIIAAAggggEA7AgRI7ehxLAIIIIAAAggggAACCCCAAAIIIIAAAggggAACCCAwgAIESAN4URkSAggggAACCCCAAAIIIIAAAggggAACCCCAAAIIINCOAAFSO3ociwACCCCAAAIIIIAAAggggAACCCCAAAIIIIAAAggMoAAB0gBeVIaEAAIIIIAAAggggAACCCCAAAIIIIAAAggggAACCLQjQIDUjh7HIoAAAggggAACCCCAAAIIIIAAAggggAACCCCAAAIDKECANIAXlSEhgAACCCCAAAIIIIAAAggggAACCCCAAAIIIIAAAu0IECC1o8exCCCAAAIIIIAAAggggAACCCCAAAIIIIAAAggggMAAChAgDeBFZUgIIIAAAggggAACCCCAAAIIIIAAAggggAACCCCAQDsCBEjt6HEsAggggAACCCCAAAIIIIAAAggggAACCCCAAAIIIDCAAgRIA3hRGRICCCCAAAIIIIAAAggggAACCCCAAAIIIIAAAggg0I4AAVI7ehyLAAIIIIAAAggggAACCCCAAAIIIIAAAggggAACCAygAAHSAF5UhoQAAggggAACCCCAAAIIIIAAAggggAACCCCAAAIItCNAgNSOHscigAACCCCAAAIIIIAAAggggAACCCCAAAIIIIAAAgMoQIA0gBeVISGAAAIIIIAAAggggAACCCCAAAIIIIAAAggggAAC7QgQILWjx7EIIIAAAggggAACCCCAAAIIIIAAAggggAACCCCAwAAKECAN4EVlSAgggAACCCCAAAIIIIAAAggggAACCCCAAAIIIIBAOwIESO3ocSwCCCCAAAIIIIAAAggggAACCCCAAAIIIIAAAgggMIACBEgDeFEZEgIIIIAAAggggAACCCCAAAIIIIAAAggggAACCCDQjgABUjt6HIsAAggggAACCCCAAAIIIIAAAggggAACCCCAAAIIDKAAAdIAXlSGhAACCCCAAAIIIIAAAggggAACCCCAAAIIIIAAAgi0I0CA1I4exyKAAAIIIIAAAggggAACCCCAAAIIIIAAAggggAACAyhAgDSAF5UhIYAAAggggAACCCCAAAIIIIAAAggggAACCCCAAALtCBAgtaPHsQgggAACCCCAAAIIIIAAAggggAACCCCAAAIIIIDAAAoQIA3gRWVICCCAAAIIIIAAAggggAACCCCAAAIIIIAAAggggEA7AgRI7ehxLAIIIIAAAggggAACCCCAAAIIIIAAAggggAACCCAwgAIESAN4URkSAggggAACCCCAAAIIIIAAAggggAACCCCAAAIIINCOAAFSO3ociwACCCCAAAIIIIAAAggggAACCCCAAAIIIIAAAggMoAAB0gBeVIaEAAIIIIAAAggggAACCCCAAAIIIIAAAggggAACCLQjQIDUjh7HIoAAAggggAACCCCAAAIIIIAAAggggAACCCCAAAIDKECANIAXlSEhgAACCCCAAAIIIIAAAggggAACCCCAAAIIIIAAAu0I/GE7B3Nsbwgc/u2R5Mhvj2admfP2c5Npbxlp6NjxV44nB3/zdLZt5h/NSGb90cyG/f74hh0RH+bN+S8NtQ4c/NeGz7Efwn4d/M1TyfFXTtQerrFqzDElpm/NtGfn9L62LfY19AuPU58PPv90cvjfjyYnXj2RyGnO22Yniy9YFFblMwIITLHAwZeeSY7//uVk2ptOTeZMP2dCb2y/dsw74/wJ+w+88PiEbTEbZp56RjJr5Iy86uETLyRHXn4h/9zMG+uXxqH+tlrmnHZOMu3Np2aHt9MfNWB9sr50ysnaC1/V/sFjz6Q/zyYjbx5JbU9P5s04P9GYKAgggAACCCAwGALPPPNM8vLLLyennnpqcs45E/+Mt/0a7fnnT/x72+OPt/b3trLzhapqX3149tlns11nnHFG1o+ivhQdG26L+axz6Keu+L6NjIwkp59+embY732rGzf7EUCgswKnnXZaoh+Vw4cPJ6+99lrDCU4++eRk1qxZhftnzpyZnHLKKQ31Yz+8+uqryZEjRxqq+3M17Kj48NJLLyX6sdJKG3asXu33vd929tln+49R78N2WmnDThSOUdv9dbN6da9F17fuGPb3lgABUm9dj5Z6s/WBe5KtD2zLjv3+l/5vGiDNbmjnwFOPJus2finbdsuar04IkHb/7IfJ5t3faTgm5sOsNMzY+ZW786qH0xBr9a1/nX9u5s0NK69r6Nfotv+TxAQ+OodCn8VzFyWf/vAnG9rw52+2bwp2ls6/NFny/g/5ZgrfP/T4vuSGLTcV7qvb+Mg//HNhFY19873fLTWQ/ZL5H0pWffhThcezEQEEJl/gYzs/m51UYcOmP795Qgdu2Pf1LJiYloYSD664Z8L+1T+8dsK2mA2rLrg6WTX36rzq7mfuTzY/ekf+OfaNQqidl2/Jqis8arU/akDtWIDUan/Uju+TPiuMarVfNyxcm7Z3sZopLHsO7U++/vON2TmKKqgvG9Pr6sO6onpsQwABBBBAAIHeFlBw9NnPjv29bcGCBcn1118/ocNf//rXswBHN95uu+22Cfuvvba1v7ddfPHFydq1aye0ZxsUGm3atCkpC6gU8Fx99dWJ2ikqL7zwQtJq39SufsqK+nTHHXdU9m3NmjXJ/PnzC5vodt9GR0cTnaOoyO3mm2+OCsiKjmcbAgh0XuCqq65KLNwo+r21aNGi/Hfdxo0bGwKWj3zkI/mxzfbskUceSe6+e/xepo6/8MILk2XLljXV1P3335/ox8q73/3u5KMf/ah9bPo1NFBApt+pzRQFPjfd1Hh/stk2/PnkJC9fli5dmmiszRT1KQwImzmeulMvwBJ2U38N2u6BzS5SQ3Pe3hgeaduBg4/qJSvh7CPb3s+vmqm0a/8PkmVfvirZnb52oijAUSi07MsfLQ1xOnGeojY0BgVxVQGaAjGFfqoXM1Or6DxsQwCBzglotoqVotlH2qdZLSpzpjf/r4iyA/mfrglsfuyOZN0DG0rDI51Y4dWyf1qZ7H56/P8kdK1DNIwAAggggAACXRNQSGPFbl7aZ3u1OjNmzLBNXX/VjUgFW2XhkTqggERBiYKcySzbt2/Pgqm6vm3YsGHS+yYL3XgtC4/MbeXKlQ03eyfTj3MhgMBEAc3YUdHslKKiWUZWyurY/nZfW53N1O55q4632VlVdaZi31ve8papOC3nnGKBP5zi83P6DghouTeVOWcWL+VWFzCFXahbVs3qaxZMVVFYpSXXYsrM6eX1pr1lWmEwpnY1Ni0hZ+WG22/Kzlk3hqK+HU+XiDt4aMzS2rOZS2uv/Fyy4oNX2ubKV12Haac0LiNYeYDbqeUENQYrGvuS91+anPdGMPjrdLwPPbYvUT2VbKbS//tOsvaKz9khvCKAwBQIHHZLxs074z0TehATMPmDNMtlpluWzu8L389Kl7CrKpoRFVP8zJppbxrJlm2LOU51jqThigKWoqL+xfZBxyto0xJ6MaUZJy31V1S2/mp7w4wtzZxafNaC3P/A0ccT/Vi54aejWQhYFhRaPV4RQAABBBBAoDcFNAPJSlGA5Jf/iVnSTXVi6umcRefTdguG9N6KloSzZeEUaO3fv992ZSGNlsO77LLL8m1Fb5rpW9kYdF7NivLF902hkg+WFOj4/f44/74TfVPo5sM0mcydOzd3Dvum8E3nNVffH94jgMDkCSiwseXpjh07Vnji6dOnZ9uLlj97/vnnC48p21j2u9fq+7CmaIk7q+df/fJ12q4ZNv7PD1+36P1b3/rWxMZYtN8CNtsX03aRZcxxdo5wGT5ZhCUM9mJmFhW1E7bL594WIEDq7etT2zuFHjYDZVZJCHP81bGApSxgCk+y6X9+M9zU0udVSz4ZtQRcXeOaVVXVJ83E2Xzv+BJ8WvptU/BspvAcVX1TKKNl/TSrycrotm9lIVZdMKX6t6zWMoHlgZi1WfS64fa/yzcr5NKSg35W2ZJ076oln8pmHlnYtfUn25KlacgU+yyo/AS8QQCBjgnY7CI1qCXqwuIDJj1Tp64smX1xw7J0dfWr9hctp1dVX/s0S6qZ4zQzx4rCIh9GaSz6iSkKodb86No8QKoLnrR835Jz4touOr/Ot/XJHfku9XvCMnVzk6zO6C825vVGf7GpKZ/8QN4ggAACCCCAwJQL+LCjKDTxM1ne856J/zAoHICWk6ta+i2sX/TZL12kPmmZuzDkUL8+85nPZM9uUht33nlncskll2TPcSpqU9s60TctHWVFfStaCk6mmn1k4ZyCmi1bxpZGtmPD16ql+MK6RZ/l4cOjsr7t2LEj8WPQMRoDBQEEpk7ABzbh84isVxYwFQUUu3btsmq1r1qezgdIRYGKD3L27dvX0mzFJ554ItFPbLnuuuvyquEycdrh+6Swyv8eyw+MeNPMcVqCz9wVRhXN/PKztXbu3NlUaBbRXar0qABL2PXohYntloUIqj/nzInL143Nqnk6a64sYIo9V6/WU6Digx0FQBaqtdJntbX+E9dNmNWzIZ0Z1E67dX3RtfLL1q1Kn+nkwyM7XrObFKjp2U9W/DKFto1XBBCYPIG6GUY+YJpz2sQHNU9eTzt/Jj3jyM8+8s9javZs306XkvNtfdo926nZtmLq+/MVhkdvNLLincsThVVWNCPJ99O284oAAggggAACvS9gy9Opp+ecM/HvZX7/yMj4/+fq1sg0i8aHVgo3wvBI51ZAsm7durwbJ06cSB5++OH8czfeFPVN/QiL+utnQ2k8PqgL63fis4IgcysLj3Se5cuXNwR86pe/xp3oC20ggEBzAj4cKQopLMRQq83ONgp74p8Zp1CkKKzxs33CmUVhe534vHDhwsSHaPpdGxa/fzL6pPMpbLNy4MCBJDyvvy6qF+63Y3kdPAFmIPX5NT1y7Gg+gqKwoS5gyg/u8zdL51/aEL4ojPEBSyvDW/GnY0vWjd7zrexwLWe39cFtyaoPf6qV5mqP8ddKlatmjClE0vKAx18ZCwf9MoW1J6ICAgh0XMDCBM0+0hJoYakLmML6/fR586N35N3VjKG6WUN55eCNDHe55wstTWct+ZlMQfWOfPRL0yn4qjrfindc1rCUnZbtq6rfkQ7SCAIIIIAAAgh0XMBmyfh/ke5P4v91elHA5Ot24r2/cagbnUUBjZ1n/vz5heGS7e/0q5/hU9c3BUg+NLJwp9N9svb8uTSbqcot7NuLL75YGB5a27wigEB3BfwyaEXLm/mAqWyGUkwPFYj4IObuu+8uPMwHI0XLwBUe1OJG9WfRokX50Qq0ioIY3+9XXnklr9+tN80GbepHUb+71T/anVoBAqSp9W/p7Bet/YvCmTDrNn6psr1sqbd0uTcVzbKpWhausqEe3DnS4jOH6oaiEGnP4/vycGp3uqxdtwIkBV6aTWWlKBC0fXqddso0/5H3CCAwiQJ7Du1P1j2wYcIZj//+RHLhlksnbPcbLtp6ef5Ry8S1GrjkjUzhm07PPvJD6fbsowMvNM4iem/Ns6IUDDazrJ8fC+8RQAABBBBAYOoEFNBoSbWwKCi69NLqv7ddfvn439vKZgaF7TbzOZyp42/glbUzWcuvyceHQHXL9On5Q5PVN4VHvm9FM7a832T2zZ+X9wggMCagZc+0zGVRWbNmTdHmfJuWVdOPyt69e5Nmlq/zv1P1O83/AwE7gV+STduKAi2r24nXMNTy/4jAt9+pEM23WfY+ZvaRjvV9Ijwq0xzM7QRIfXZd/TOP2ul6XTjRTttTcexDj+3LT6tnB7X6DKK8Efdm8dyFeYCkWUj66WT7dio9w6iZ5xgd+e0RO7Rwqbt8J28QQKDjAn5JunYaL5qt1E57k33soMw+UojnZxMd//3LyZGXj2bPYtI1GrRlByf7e8L5EEAAAQQQmEqBohuGrfSnG7ORfN+0XF4YhGipNc2YUgDSjfNXOfhl3jS7J5zh0yt9k5nvm7yOHj06ZW5VpuxDYFgF/IyjdgyaCS3CoOa+++4rPLWf6aMKdg4ta+dnJvnf14UNRWwMg5qy2Udqyi+rZ6GWtqkNC720/F/RM6IiutJQxQdtZcv86QBvZU623fapr+3MGmvoGB96RoAAqWcuRVxHjr9yPFk6/0N55T2P7c1mIyk0mTfngny7vbH9+uyPm3fuxLp2TL+96rlBu9KZQVaWpMvZdbJ8YO6iZHTb2DJ2avdfnvrXNEAavwadPFdsW7t/9oMsyLL66iMFAQQmT2DWqWckWmJNRUuv2VJoYRAR7p8z/ZzkvOlnZ8fpf/S5X0s/zz6SedGygrqWei7SnucezsIjuzYKl3RtNSvKB022n1cEEEAAAQQQ6F2B008/PbGbY37Gz4IFC7Jgxvfc71dg45e5U4jT6eJDGjuXApDt27dnP7bcnp1X46hbrs3qtvvqb5ZaQFPWN9nIc7L69m//9m/58Ow5Vbp2O3bsSHST2Lup7wqZJqtvecd4gwACuYBCDv/sIXvWjsIK/7vGDnjXu96VhSQKI375y1/a5qaeX2a/93WwzlF0Hu0LgxrNslm2bFnD73/V0xieeOKJRDOGfHiifbElDLXKZh+pPQtk9F7n03i09J3vr/ZpXHfddVfLfdJ57HqovaJnH2m7igVXeq9l9XScnufkgzbtU381Nn/NtZ3SvwIESH127RQUrf/EdVmvNRvJghPNKLLtfki//tunsufk6Hk6Rft9XXt/2M1ssW1Fr+pLVTn+yok05BifJVNWt7addJwKicKi9h9Kl5czA+1XSNbpJeY020jLy+l8KpqBVFXGZga9XlUl21c37rIGZKrlCK1ozN2YEWXt84oAAhMFlqThkX5UNqeBgwVIeo5OuCSdlruz/Utn/1miZ+nUFc2AOfzyC3XVkmlvKn7mkj8wph3VVyjWTOmF2UftOGm5QSuaZaRrtO7BDQ3Bke1XsHQ4fT6T6mxMlx0kRDIZXhFAAAEEEOh9AT3/xoqe6WPPzlm+fPmEGT/79+9v2O9vQFob4avCCr+cWrjff7Ygxrb54xSE6PO1115b2p5uyKmPa9euTfQ8pLoS2zedOwzIfLilfuvzjTfeWNg3nUd9k+31118fNVuqnb6dODH+9zgFb+qb3NRmWGTabN/CNviMAALtCWimjD1/SGGDBRYKh4qWpLPlMDWTxY5rpgdhUFM2+0hthuGHltQLQxrV0za1q39csHHjxqYDmzCoqZp9pKDGhzUrV65UFwqLfgded9112e85/a5rtvg/56pmH6ldbzV79uzk3e9+d+HpNFYtOyiv7373ux2ZJVV4IjZOmgAB0qRRd/5EBw89lTc658zZ+Xv/5uChp7OP05p4RtCyL1/lmyh8r8Bi51eKHz5nB2jWjp+5Y9vDVz2LSc9kKisa5+pb/7psd7Zdx6/68Ccr26lsoGan/CxAOlITINX11U71yD/8s71t6lXPurIQa9pbpiWf/vD4c5OaaojKCCDQEYGimSy+Yb/cXexSaFuf3J7op66suuDqRKFVVVl2T/lfNu04BSI7L99iH2tfe2X20ejPNyb6qSuaLbb+T9Y2VDuShkJWFET58MhmkilkUmik/SoKktb86FpCJIPjFQEEEEAAgT4T8P8CvWhJuDA0iRmezRaqq6sQZsuWxr9v+QBJoYgPj2xpNm1Xv62uPutZIjHPZIrtm85lN2zLxuHDo7K+qY9f/OIXk6997Wu1IZJuwOqnrujmpgIzX8xC2/Teh0d1ffv7v//7hiXvfLu8RwCB7gv45+j438l2Zh9SPP/887a5qVcfiugcReexBn1QY+8180nH6FX9tRmiOkbhiEKmZkOkMNSqCnt0jrDY0nAKedRPLQvoLTVm1dm3b194aOnnMNSqmn2kRnywZu8128j+7Ayt5PbJT34y6nd9aSfZ0RMCBEg9cRla64RmIFkpeqZRQ8CUzlAa5KIZSpvTAa5Kf6rCqH432HD7TcnB34yFghrL2iv+itlH/X5R6X/fCyhUUJn25uLZQHUBUz8C9MLso066WVinJQVvuej6hhlGur5bf7UjD/T0ecNPR5NN6UwkCgIIIIAAAgj0l4AFD7qpFc640Uj8TcaigKmbo7WZUQqaFJgoCPFFs6f0Y2V0dHRCIGX7OvHqZ/PYjc6Yving2rRpU20g1Yk+qg3rm66XZj+pj1Y0BpkpSFNR3+RWF5bZ8bwigEDnBfzzkBR4hMWHIq0sFRcGNVWzj3RuzY7SbCCdV6HIzp07G/4sUB0FLVrWTkvr2eelS5cmt99+e/a57n/CoKZq9pHaksvevXuTt73tbVmfFNDod134vCMtH6d+WVGIpLbDerY/fPVBW93sIx2rtvW7VuPROWTr/9xUHe1bvXp1Hm7pz1tdEx1L6V8BAqT+vXbpsm6P5r0vWg7t8LHxpdaKno+UHxy8KWorqJLMTGcg1RXNjmlm5lNZe+pP0XONNCNIYYotb6fX1enPqiWf6vgydr5vIzWzuWL8fHux7zWbyy/Xp3Eucc/Dim2Heggg0FkBm2E0xz3byJ+hLmDyde29llRTIFVXpr2pfi3+mOXWZqYzkGJLr8w+Un9jnUbSpf7qipwUCqlNX7R97ftWJ0dOHE2fjbQ/26VZSbquMba+Ld4jgAACCCCAwNQK2L+StufmhL2xgKloSbewrn1WEFXWntXRqw82/Hb/XnUUbhTV1TN8FIhYGKK+Pvzww9mzh3wb/n1s34r6r7DFl2b6pjBMP2EI5ttrp2++Hb23voWhoD7rRubRo0ezpf9UN6ZvqkdBAIHuCPgASeFNWOr2h/XDzz4UUbgRBhxhfS2j55+zFO7XZwVZmkGqmUc2G0nLtylwiglrwlDLgu+ic9n5ipb2C+vbbCMLkTQzSc9Jqmtf7YShVt3sIx2j89k59bmoyEr/iODzn/98vgwfAVKRVH9tI0Dqr+vV0Fu/lFrhDCQ3U6WZIGfnV+5qOE+rH9Ze+VfJkvd/qNXD8+MUVlU910jLua1Jl7iz5y3p+UDzzr2gozORbMk4dUrPQ6oqG9Ml+Tr9TCKNaesD2/LTdjsky0/EGwQQqBSImV1UFzAVnWDFOy+rXZqu6Liibc0sTVd0fLitl2Yfrf2va5Il54w9iyrsZ7OftcRdGB75NlbNvSYPkLT9oUMPRz3PyrfBewQQQAABBBCYOgF/E7FsdpEFTHaDMKa3esaSwp1WShjc6LlMReGRta3z6F982+wgPQ9pwYIFtnvCazt9Uz8sUFPDOnezfasKkHQj1t/ondD5Jjaob2F45A9ft25dcvnll+ebdJ2r+pZX5A0CCHRcwGYYaZZNUfjSToAUBjV1s4+aHZza0+8uKwqR6mbWhEGN6rcys8rOGb4q0FE/7M8t/fkWEyD5378xs4/C81Z91vjULzuH+iaHTo676vzs67wAAVLnTbvWYjbDpuRZQBf+j/9WeV7/XJ61V34uWfHBKyvr99NOhTUKbT7+t/89f07R5nu/m2yqeK5SM+OzGU52TFFYZ/u68arwaPO938mb1rWrCtTyirxBAIGuCKx78MY0SHh4Qtt1zy3SrJULt1yaHafZRQ+uuGdCG72+oZdmH3XSStdDzz2qKpphphlHNqPMh4dVx7EPAQQQQAABBKZOQM/GsaXhfC/qng2kYy69dOzvbQp57rmnO39vC0OPulBD9RUY2c1BC7z82Dr1Pgy3qoIqnVN9041L8/bhU6f6ZO2ob759u0lp+8NX65t5+TAxrMtnBBDorIDCjU984hMTGtVsmbrlJPXsNSt65lDdf7v+d4Hq1tW3tmNf1Z5CEIUhKj7sKmsjDLXs93dZ/Va2ayaXBUjWt6p2wlArZvZRVXtF+xSU+etBgFSk1D/b/qB/ukpP/bNv2tGY7ACknb7GHqsQyc928s9/im2jrN7un/2wYdect5/b8LmbH8LwaGm6ZJ0CQAoCCEydgAUI7fSgbLm7dtqcjGN7afZRu+PV846sVM08sjp6bWapP38c7xFAAAEEEEBgagR8yNBqD+ymXKvHVx0XzuiZMaN+qfiq9jq5L+xbGHYVncsfEy6BV1S/1W3+mvhzVrUX0/+q49mHAAKtCfj/XltrYeyoouXufHthUNPp2Ud2Lv/cJoVgVSUMajo9+8jO7fsUEyD5YKfTs4+sT+FrnVVYn8+9JcAMpN66HtW9eT3Jl2U7/mr6/J9DT2X19cydomcS2cwZPYvIh0aTGYBUD6ize887c3beoHz0jKS65ebyA0reaFk8c1SVeemspk4vT1dy6qQoPFr/ievKqrMdAQQmSUBhg81W0fJ0x3//cnZm2+a7cSR9To4FTgosLKiYd0b1bBffRq+8H7TZR/NmvCefSWbXsM5a19PKSMQzqqwurwgggAACCCAw+QJa5k3hggUMmn1iS78VzfRR2GSBk2bSWOAwf/78rnU+XEpPoYudt+ykNgbtD2cJlR3Tyvbwpq/OW9c385vMvumcMX2bLLdWrDkGgUEWeP311/OZQHpm0KxZs7LhKrj43e9+1zD0sv1ly935g30o0szsIx+4xJwnrO/7EL5Xn3z92NlHcrDAJaZP/rx1y8SpPwrbrMTOPvJ90rF157H+23l8yGXbeO0fAQKk/rlWyYo/vTL7UZf3PLY3WbfxS1nvv5A+a2jx3EUNI1G49LG//cts25L3XzoUs1YOHHy0waDd8EiNfTtdCs8//2hpajkZJQyPFPoRHk2GPOdAoF5g05/fnFf62K7PJsfTEElLoPntVkHL3VmApP0WINn+fnodpNlHcp9z2vgMpOO/P5FoicGiENCuka6jXUttO++0s20XrwgggAACCCDQgwIKO/zySJ/97GcThUgKXfx267qWSrIARPvrwhI7rp1XBVk6j4UburlY9Twl9e+xxx7LTxkGUPmODrzRknWjo6N5S/rX/HqmUllR32z5OtUJA6iy41rZHo5b17UoFLS21Tdbvk7butk3OyevCCAwJrBr166cQoGKBUh33313HixZBb/cnZ6ho5+Y0s7so+uuG/+H2jt37qw8p8IXH4wcOXKktHthUNPM7KNly5blIY9mXn3jG98oPY92vOtd78r31wU7PmhrZvbR7NmzG5YirFtS0K6zdaxuBpnV47U3BVjCrjevS22v/HJ2004ZmVD/8LGj+bbJmjGTn3AK3oQzheac2d4yc8dfOZ5suP2mZNf+H+Sj0eyjJekSct0uReHRpvQZTxQEEOg9Ac1AUilbkk7BhIoCpn4OjwZt9pGuicIiHxiN/mJTPptM+8Oy4afjN1C07701z0wKj+czAggggAACCEytgAUIZeGBhUcKmCYjPJKGznPJJZfkMDt27MhDrHyje6OAycImbe7m7Cj1zYcydX274447XE+72zf1y/dNQZd3aehI+kE3On3xx/rtvEcAge4K+GcGFQUKdfvLeudDkWZmH6k9/5ykRYsWJZppU1b8eVTH/lwpqh/WjZ19pLa8jYKYsj+3VFfhmQ9rFFSVlTDU+vGPf1w7k8jaCseqsK+s6Dx+/DJ+7bXXyqqzvQ8ECJD64CIVdfHgoafzzUVL0vmAyS9flx80IG8UHG19cFuy5ta/bpgp9LGLrqgcoZa307Hhz55H9yaj276VLPvfVzWER1omcDJmAG19YFuy+d7v5H3XtVV41InZVHmjvEEAgY4IHDz2bN6Of55OvjF9Uxcw+bq9/H7QZh+Z9aq5V9vb7Fqt/tG1DbOMtFPL2617cEM2Q8kqL52d/su5kTPsI68IIIAAAggg0OMC/gZhOHvFum43x6pu1FndTr4uX748D6y0hN211147IURSOLJp06bEhzQaR7eDED8bSgFbVd/8zVHdOCxz7pRdbN8ULu3fvz8/rfpmyxrmG3mDAAKTIjB9+vTsPGXLsrUSILUz+0id8YGLgo81a9Y0LDunOgqV/Kwgbdu7d29p+BIGNc3MPlLbWlbOL/l21VVX5TOStN/KwoULs37Z57oZRT7Uqatrbdqr+uP/LNW5fXtWr8jQG1s9XvtLgCXs+ut65b09fGxsmqRm2hSFC3UBU95QH7zRM4gu/B//LbqnCnvqZgopJNJPTFF7G9MQp9szuQ7+5qkJfdK2i9b+RUw3k0f+4Z+j6lEJAQQ6I3D8P8dmF6m1WSOnT2hUAZM9W6csYJpwUA9u6OXZRzfsG030E1NWXXB14gMjHaMZSCveeVmy9cntWRMK/Jb908psuwIiLVnnn3OlStr+hfetyerzPwgggAACCCDQHwI2u0i9Pf30iX9v8zfFmg0+FOr4YKdKRIFPuHyewoxrrrkmnyWjvq5cuTILh7RP4ZGWrfMzbDQ76Prrr686Vbavmb7pRuDatWsb2lR/FdTY+GL6pj77cKehQfdBwY5fIs/tmvC2rG9aUm/79rG/xykA9G7qq7Z5t9i+TegAGxBAoCMCNlOmbOm3uoCpqBM+xNDvcv/7vKh+uE3hhkIo+8cD6qOWtVM7ClnUJ23zM5O03YfmYZu+T9pXVTc8Vp8V1ugYhVYqCmU++tGPZoGNZidpv2YA+T6pnpYFLCthqKXZR82Wu+66K1m9enVmomM1Ts3a0u9a9UlOdo2tbQVtBEim0b+vBEh9eu0sICpavk5DsoBJ+4sCpj4ddm23tczcLau/WlsvpsK0t0xLVqQzmVZ88MpJMdSsKAoCCPSPgM0uUo/983RsBHUBk9Xr9ddBnX1k7mvftzp7ayGSPuh5SAesgntVEHjLRdf39XKEbji8RQABBBBAYGgEbHaRBlwUENUFTN2G0iwkzT6yoEbn888T8udXCKLwSK+TUSwMiu2bArLJ6ptuZCpM68W+Tca14RwI9JOADxaef/75wq5bnbKAKTyo3dlH1t6WLVuyANpCJG3Xe//Z6qrvt99+e+mSbGFQ0+zsIzuPnv+k5y35MEpt6ycsCm/0/Kaq8My30+zsIzufnq+k2bA+RFKI5Z/BZHX1qvDIPwPL7+N9fwkQIPXX9cp6e/DQU3mvy5ans4Cp3WcB5Sfq0TcKeRSSfWDuwmRx+qMAqZ2i2UZzzpydzDv3gmTJ+z80KcFRO/3lWAQQmDqBA0f/LT950QyjuoApP7iH33Rr9pFm8XzaLR831QQKkc477exk1zP3NyxVZ/3S86tWvOOyRLOYKAgggAACCCDQfwL+plpRgFQXME3GiBXU6AafwpCif62uoEQzbvSj95NZ1LcFCxZks6SKgq2p7puuqWYi9VrfJvMacS4Eel3AZhepnwoiwmLhkbaXBUzhMT4U0e95/7s+rFv1WQGMnpWmQEpLs/m+2HHqswIRBTtVxfdJ9Yp+n1cd7/fpWAVQalN9C4v6rf3qU5Gp1Q9DrVZmH1lbFiKpP/PmzctnI9l+veo63HfffS1fD98W73tD4KTXf/Ifr/dGV+gFAgggMGQC9zHrbMiuOMPtAwEtO2jL1ik4mpmGXTzvqA8uXJNdPOlrs05q8pC+rX7WWWfxd/2+vXr90/HnnntuaP6bSpeO4b+p/vlq9nVPFYbY8mtadq8o+JqKAapPfmk4/Qv9yZpxVDfeXu5bXd/ZXy9w66231leiBgIdENCsGoVImgGkkEahSVVA04FTRjVhM6LUL/VHy9lNdZGTvBQQqj+a3fTaa69Ndbc4f4cFCJA6DEpzCCCAQLQAAVI0FRURQACBTgoQIHVSk7YQSBICJL4FCCCAAALdFiBA6rYw7SOAAALFAn9QvJmtCCCAAAIIIIAAAggggAACCCCAAAIIIIAAAggggAACwypAgDSsV55xI4AAAggggAACCCCAAAIIIIAAAggggAACCCCAAAIlAgRIJTBsRgABBBBAAAEEEEAAAQQQQAABBBBAAAEEEEAAAQSGVYAAaVivPONGAAEEEEAAAQQQQAABBBBAAAEEEEAAAQQQQAABBEoECJBKYNiMAAIIIIAAAggggAACCCCAAAIIIIAAAggggAACCAyrAAHSsF55xo0AAggggAACCCCAAAIIIIAAAggggAACCCCAAAIIlAgQIJXAsBkBBBBAAAEEEEAAAQQQQAABBBBAAAEEEEAAAQQQGFYBAqRhvfKMGwEEEEAAAQQQQAABBBBAAAEEEEAAAQQQQAABBBAoESBAKoFhMwIIIIAAAggggAACCCCAAAIIIIAAAggggAACCCAwrAIESMN65Rk3AggggAACCCCAAAIIIIAAAggggAACCCCAAAIIIFAiQIBUAsNmBBBAAAEEEEAAAQQQQAABBBBAAAEEEEAAAQQQQGBYBQiQhvXKM24EEEAAAQQQQAABBBBAAAEEEEAAAQQQQAABBBBAoESAAKkEhs0IIIAAAggggAACCCCAAAIIIIAAAggggAACCCCAwLAKECAN65Vn3AgggAACCCCAAAIIIIAAAggggAACCCCAAAIIIIBAiQABUgkMmxFAAAEEEEAAAQQQQAABBBBAAAEEEEAAAQQQQACBYRUgQBrWK8+4EUAAAQQQQAABBBBAAAEEEEAAAQQQQAABBBBAAIESAQKkEhg2I4AAAggggAACCCCAAAIIIIAAAggggAACCCCAAALDKkCANKxXnnEjgAACCCCAAAIIIIAAAggggAACCCCAAAIIIIAAAiUCBEglMGxGAAEEEEAAAQQQQAABBBBAAAEEEEAAAQQQQAABBIZVgABpWK8840YAAQQQQAABBBBAAAEEEEAAAQQQQAABBBBAAAEESgQIkEpg2IwAAggggAACCCCAAAIIIIAAAggggAACCCCAAAIIDKsAAdKwXnnGjQACCCCAAAIIIIAAAggggAACCCCAAAIIIIAAAgiUCPxhyXY2NyFw4OC/Jgeffzo5eOjpZOSUkWTaW0aSeedekMyb81+iWjn82yPJkd8ejaprlea8/dzsPPbZv6o/zRT1V+11uxx/5Xhy8DdP56epGkNeKX1jxx146tHMScaz/nhGMudts6ONfXt676+ZPs/8oxlNXTMd06mi8T302L7k16nNiVdPZN+h886cnbw3/Q7N+qOZbZ/m4G+eSg1P5O00e71l1Un7vCO8QaCDAgdeeDw5eOyZ9OfZZOTN6e/hN5+azJtxfjLvjPOjznL4xAvJkZdfiKprlWaeekYya+QM+9jwqv40U6a96dRkzvRzmjmkpbrHf/9ycvClZ/Jjq8aQV3rjTWg057RzMuewXvhZ53zo0MNJdnzqrOtz3vSzk/em16bML2yjk58Pp9f5oefUnxeTE78/kcxMr6Hs9V3R96bZYt+9TrUnr93P3Dehf3NOO3tKvJr1oD4CCCCAAAKhwOOPP54888wzybPPPpvtOuOMM5Lzzz8/+wnr1n1++eWXs7asvZGRkeTUU09tuT2dT22pjy++mP7d4MSJpJ3+1fW/br/G9/DDDycvvPBC9qPxnX766cmCBQuyftUdH+639mSvsXWiPfNSH9ttL+xvs5+tL/7anXPOOdn3Qd+LZot9VzvVXuiv71Y7/Wt2PNRHoFsCM2fOTE455ZSs+VdffTU5cuRI1KlOPvnkZNasWXndl156KdGPL2Edvy/mvf1ZE1M3to4fr45p5hz+2DKrs88+O7YrE+oVGU6o1OSG8Bo0c47w2MOHDyevvfZaQw+8ScOOiA9lhhGHUqUNAQKkNvB2/+wHyei2bzXcnPfNzUpDiVVLPpUsef+H/OYJ77c+cE+y9YFtE7ZXbdj0P79ZGJ4cTwOI1bf+ddWhE/Yp6FJ73Swa3+Z7v9NgVTYG34+i4/z+WGM7Rtds8+7vJIdLAju1t2T+h5JVH/6UHdK1VwVHm+/9buW1X5r25dMf/mTLQZLCyY999S8bxhB7vTtt39AJPiDQIYE9h/YnX//5xiycKGpSAcWqC65OlpxzcdHufNvWX+1Itj65Pf8c8+aGhWvTG/oT21UAsPqH18Y0kddR2LXpz2/OP3fjze5n7k9GUyv1z0rZGGy/vW5+7I5k86N32MfsdeflWyoDF51n66+2Z67+nL4RjXv9n8ixOIjzddt9rwBrw09HkwNHy8M9fVdWzb066lQKjmRS1p7CqBXvvCy6PRnJuep72Ez/ogZBJQQQQAABBLoosH///mTjxo1ZEFJ0Gt1Mv/rqq5OLL57496mi+nfccUeyffv2RDfli0qz7SkAGR0dzcKjTrRX1EbsNo1JYysb36ZNm7IQafXq1VFBUt3Y1J7c5S+3mKK+6RoU+bfSXsw5y+ooONI5FfgUFY3Jxle0P9wW811tpj0Z6bt///33h6fKPjfbv8JG2IjAFAicdtppyVVXXZX4wENhir7vdUXH6Fi1YUX/jYT/nbz73e9OPvrRj1qVpl+vvba5/y9edQKFIZdcckmycOHChmox52jGas2aNQ3tN/Ph7rvvTh555JFmDqms+653vSu7Thq7ldhz6PfkokWLEn/sTTfdNCFA+shHPtLwHbLzxLxqrOoPZXIFCJBa9FYIoUCkqiikuGHLTVlYURVINDv7qOqcBw89VbV70vcpwNhw+99lM36aPfmG229Kdu3/QeVhscZqJPaaqZ5mk92y5quV525np1zWpEFfWZBlbWv8mgG0MQ34WpmNJPtWSqftW+kDxyBQJ1AUaoTHKDS4Yd9oFjBVBQNH0nqdKp1sqxN9iglOys6jkGT055uy2V1ldYq265zrHryx9jiFLx/f9dlk7ftWJ0tmx908Kjpf3TbNTlv9o2sbwrOiYxQI7XlufxbmVc1GivnuZYFQZHvyWpP2T69VJbZ/VW2wDwEEEEAAgckQUNCgn6piIYdeFWSUFd2M1806hQZVJbY9taG21GZRGGLnaKY9O6aVV51HfdFrVdHMJAUmX/va17JZLGV1Y8amY3XTVu1df/31le2pbsz1bKY9tdlq0Xl0s7ru2qnPCoZuvvnmbJZa2fkURCkcqyq6NmpPr2vXrq2qmtWpu57WnvzXr19f2b/Kk7ETgUkUUIiiMMWHAzGnLwthYo6dyjpFgVdsf1q1im2/G/V0nRTwKUBqtmhWmUI/P7us2Tao39sCBEgtXB+bmWGHTnvLtHSW0aXJeW+fnW3Scl8++FAgkc1sKZmJpFlDVhQSaDm1uqJlyIqKb0v7Y5bRm/NGv4vaa2ebOfnl02Lb08wubxhjPC1d2m7FB68sPEU288gFfmpvxUVXJHPSpeJ0nJbW00wwBTsqex7bm4ze861k7RWfK2yv3Y1heKTrtHjuwqwvuoZ70iXtbClChUyqf+ff/N/SZQuL+qMxWxtF+8u26fsa2stK32GVou93M0s2lp2X7Qg0I6DZNH5GjG72L5l9SXJeusyXioKPXU+P/4s/1c1mhLzjssLTHE+XMrOi2TBa1qyuaPm3onL8P8fb0n7Nsqkr3Vq+TjOANPayGUBl/YqZDVN2rLaH4ZG/PrLW9VFQo6LPo7/YlC4jd3ZXlvFTKBOGR4vPWpAsPnN+dn4tabc7/a5YeKOwad2DG0pnhIXhkR+bGixqb/Nj30tDsvJ/VSYvO7/a0HdQs+b0+uuXnn1jyb2xm0rq39d/sTGbuaW6FAQQQAABBHpNQDf4fXikpcR009H+xbpumuvHAhPVVZ3LLiv+e9qGDRsawqOi9nROK2qvaok8nffGG29sCCBUf/78+dmSbOpb2F5V/+y8rb5qFpRZqA3fFy07p/4oCFHR5y9+8YvJli1bCkMHtRMGY2F7akttqpjFbbfdVtie6siz7HqqP822pzZbLepvGB5peT9dOxXt17XTq4rCNNUvC300Lh8ehd8tzaywJQXVntq2mW76XFTC8Ej1ly9fnn23wvZ0Hb73ve8l7cw+KOoD2xDopIBCgWXLluW/w5tpu5UQRsudNbNE3Fvf+tZk+vTpzXSrsm47gVfRrKPKk72xs5nxqn8+qNGSbu2WVgMv9UUzjjTzqJny/PPPN1O9pe9eUyegcq0AAVIt0cQKCkasKPC582/+seHGvpZA+3S6BNpYSDAWSIze/a3Spez0jBorX7jyr9IgYZF9bPrVz2aac+a5XV+arqyD6zZ9Kdnz6N58twVA3i7fGbxRiOPryXhsBs54sFZkrOBDywUWhWvaZ6WoPQU4alPL/9ksrq0/2Zas+otPFbZnbbXyqmDHzzzSMofhDDUFYeqzzXJT/a0Ppv2JXFpPhn7M8teSeXUlO84FbXpOlZYa9KZF9grbvp8GXBQEJkvAh0e6yX7n0tsallPTbJZPp0uR+Vkdmx+9M1lREiD5WUNfSGfDKGBotegGvxWFIt1ems7OFb4qBLGQRvsUdCjM8tvCY/RZ4dHHd31mQqDxgdSkank1a0vhnjfQOW+5aH3D9dHSbpp9pD7qfBYidcPq2+mycD5A0znCUE+z0zaky9tZ6Ki+6Sesp5An/O5tTNvTd9AXfc8UWpnD1id3pEvZXdNgYPVDr6VpcPSF/7omr7skrbjiHcsbQjn1UwFT2D9rk1cEEEAAAQSmUsCHDbp5rhkgerWiG026we9vtN95551ZyKQb+L7ohr2FHdquY3Wz3dfTNs1g+sxnPpOHQgoNFIoUFfXPAgbt17F+BpS1F9O/ovab2ebDl6K+aJuCtR07duRLRCm00Ri0nF1YtN3PzFFwovH4ovZUTz8qslCI4g2svvZZPW0rup5F7VWFNtZ2K69+fPoO6LulZwr5onEolLMQUK8yUJDmS8zYVF/hjwJHmwGna6Ex+++gtav++e+WzhuGV0XtKQQL+2dt8orAVApoNsrKlSsburB3795Ey8z5pegaKrzxQd9///tHQce+ffsathUd98QTTyT6iS3XXXddXrXdpdw0Jv0Z48emsON3v/td7cwc/S6SlUIVK7/85S+ztnzgY/v8q35nxhY/0+fYsWOJnjHUTlGf/awjXacDBw5MWLYvPIeegfX5z3++wUr9efLJJ2uP3bVrV9hc6WeFkD5kbyZsK22UHU0L/EHTRwz5AZqZ4m/+K9jwN9eNR7M11n/if9nHRLNKymaD+Bk6mg3TTvEzkNptq51+WAijNhZfsCjZ+f/dlc2wiWnz2+lzgXwJwyPbJ2Pvr7ErZAmL3P01W/VhPVNoPIyy+vK64ZrxP3i0XWFPp8uu/T/Mm1RwVRYKKVjyM8g0Kym2yNDGrMBMs5tiyr+ks+d80TJ+Md9vLfln5/PH8x6BbgjouUd+tsYtF12f32z359NNfT1fx0o28yUNBYqKb2/am9v8PZwGIlbabcvaaeX14LGxB1Xr2MVnzU92Xn579kyeurbk5D0UriigOy8Nw2JKGLCE4ZG1ofBj/Z+ss49ZYKPQptNlz3MP500uTYPFstDlC+kMIYVsVvQ9C8u/pDOnfCkKj7Rf7eh76cvuZ+7zH/P3odf69Nlavh+qqO+ygi+/XTOhKAgggAACCPSagMIefwNdN899eGT91TZ/Y12hiN2gtzp6tZk3em/HFN241z4fgOgGk++HjlfRNgsW9Fk3N/1x2qZi5xr7NDbzx89Use3tvmp2i5VwDLZdrwod/I1YPwarp+DIbw+PsXp61Zh9YOFDOl/Ph0faHoaBVlft2SwgbVM/fJBl9dp5DcenECcMj6z9MGT03yOr4+21rWxsui4+rNN3NTzW2vT+4XfI6mi7lg303+PQ2eryisBUC/jgQ+GAgo7Ym//+v0/9Tv7GN77R8DuqE2O78MILGwIM/99gK+0rOLLwSEHKzp07k29+85tRIY2Os/BIx2qmqH40o6pTRefQmK0o6HnppZfsY0uv/hrbdVJIWFc0VrNSXR2ja9xuoBWeV8vqWdF3sN2Q0NritTkBAqTmvLKlzuwQBQ5FQYTt9zf/te3IsaO2K38Nb7rPTG/2t1N0I99KVd+sTjdfFVxo9sotq4tDiLJz+6BtaTorqGoc2qdZR1Z21zwzSfXem4Y2ZUVL2vnz+UCu7Jhmt/sZZ3XBztL5l+bNH/n3sdls+YaSNwq9/BJ0Ctliy6/d90cz2LxF2Ib2+/IvT/2r/8h7BLomYLM6dAIFNFXLvyks8Dfdj6TLlYXFhyXaF7N8XdiG/+xnM4UzU3y9yXiv8yvAKQtxqvog1+8v/ftk1QVXNxhWHSNL76nwyfuHxyrY8oGOZuN0sihE87OPNGunrKiffuaZv475Ma+PLUmoPiuMqrq+2uf3+35Ye1rKL/SyfeGr+qeZW1YUtvljbTuvCCCAAAIITKWAD4FGRkYaQoqwXwow/E10f6zV1X7V048CkaqiWRy+FAVI4Y36ovDI2rDz2ud2b0xaO/7V/0vqsP++nt77/QoxwoBG47U+69UHTmFb+uxv7hZZqY4PlnR+hR9l5ZprrmnY1enALfx++MCq4cTpB31v5s6dm2+WV1hOOumk3EtWVWOTp/+uFnkppPLbq75bOpcCMCtyDq+n7eMVgV4QsHDA/86K6ZeFMAqe2g06is7nf88pWOjUOSxI0YypZousbrrppkSzjzpd/Hg7GaZY4NXKddIMLQsWOxmWyS4MCH/84x93mpT2IgX+MLIe1d4Q0LNeNDNEZdb0ibNY3qgW/XLkjWfu2AFVN+ytTtWrDzxinqVU1VY7+7QEW9lyclXtqv8+VJs354Kq6tm+89LQx4qO1YwuP2um2ZlY3rDZY60fVa/+OU0x47O2fL9sW/iqZer80nU6VzPfKfXH7Oq+36HNSJuz58Kx8BmBMoF5Z5yfhRraP6vkOURlxxZtD0Mlf9O/qH7dNn9Tv90wqu5cVfu17JmeC1UV4JQdr+BHwVGzJbTUEn51RUGVzTyy17pjYvePpKGLH0dV2Bi2qZlYYdHSiPqJLUVt+GPD5QTr2lYA5mcsPXTo4dJlGf15eI8AAggggMBkCSiUsBvn/oZ72fkVMlXdOPezlMrasO1V7Vgdf/NToUBVaKBjFFJYiKJwQD91x9i5Yl7/7M/+LJ+5o/5UlTpPLfOjWTStlKK2NW4fiKivVUXn1xjMy16rjmlmn9ztu6XjZsyIvx9T9N1QIFkXSpb1r8jLz0rS99rf6C1qJ7ze9913X0OoVHQM2xCYbAEFMgoH/O/O2D4o9L3rrrs6FuqE5w3DhU6E/ApANOuoleCoHeBprWAAADfvSURBVKtwbEWfuzH7SOdR0KXfP62EPzLvhHvReLXN/x7tZGBWdj62lwsQIJXbFO7RrKJwZlFhxXSjnifjy8yCwMmHAv5Gv4615xnphr6eRRNTfCBl7SlU0OwnWypvzttnpyHBtJjmWq7jQ5JmGrE+NnNMWPdAOhPGP0dq5h/PzEIRa1szdMqWjdPsJ6undmXV6VJ27qLzHDg4vqRcOOOnqP7WB+7JAzjNAGvmXGpPbt6u6By2zc8U0zadj4LAZAho9oeftVJ1ToU5fubHzILAye/34dHhdLaSzUJRCDPntMb11cvOW9Seth15Of09/MbydmqrlWCn7JxF2/1slaL9Zdtk4EOXsnox20cilgP0Dna9/LaY85TVycaShmGx5ddu2b9mwqai9m0stk/BZ1j8bLqY77TGox8LKf0yhWHbfEYAAQQQQGAqBHRTPLwxXtYPC2Rsf7vBjL+Brzb9DBt9VojgZ7HE9FOzbjZt2qTDs6JQxN/Qsu2tvvpZKHVt+L7LqijEqGvD7/deoZXq+fPpc1EdbfdFdSw4auWGs28rfB8GSOH+8LPvf7vfLY3Jh1BFFn68CtPqir5/uobWrj++7lj2IzBZAu0sF9bNYEHj97+LOzX7SMuvtboEm/+d043r48fbyTBFgVkrRYFZN69xGBAy+6iVq9S5YwiQOmc5oSX/LB/dXC8Kng7+ZnzJOS1fp5vym+/97oTnJSkMWpIu51YXCPjZO5oRsvne7yRbH9jWEIqoo+qLntHUazf9LfQyTB/m2Lbw1Y9Z+06ks5h80UyZFRddmVlo+9afbEtnR106YewK7TbcflN+qIKUomuWV+jyG/XHhzR1y92pvq63FT3ryWYT2bZOvu7+2fiznPQ96kbY1sn+0tZwCnzbPSdGN96LbtIfOTG+vKhmDGlZMc3yCGfD6HjNENHsnKriQ4GRN52a6Fk1W5/cnodHdqz6omc0qd1BKdPe1Pj8KAVwdeMLQxBdj2nprKTJLrru/totPnN+y11QwLPmR9fmx5d99/z5YgMr1bMA6dfHnsnPwRsEEEAAAQT6TcDfeNINfr/kWLNj0Q1+v2SagpkwYAlv7sXc5Legphdu8u/YsSNniQm/8soFbxSK+dlFfmaPVX/xxRftbaIZNTEhjDfVsnGdnrGVd6jmjb5bfnxVy93VNJW1Mzo6mleTQ5G//34VBUx5A+6ND9x8f10V3iKAQIGAwhT//B3/50lB9b7f1K3ZR70M063ArJfH3Mt9I0Dq0tXRc278c2iWuGfZ+FP6gERhwer0p6goJNHSZHrGj55pUxT8+NlMamPdxi8VNZVt07mWffmqbDm+ulCqtJEu7VBoY8HJnsf2JXWzmcLnHoWBkrq54k+vTPY8vi85eOipRE4au56vpGceTTt5JPl1GuRpZpJdD/l+4crPdWmEcc0qgLSxqD/+WU9FLay59a/zzRqbAsdulfA5SwqrKAj0moBuzu96evyZOmXPvzl8Yvz/HCs0Wv3D8Rv/fky6aa9gaXfa5sY/v7kwGLEZRnbcugdvtLcTXnWuZf+0MpvtUxdKTTi4RzcogNPsIXPQM42KQjvrvkz3PDf+8Ghtt2OtzmS86pwb9o3fGCgLfIr6ojH8Sxo+WdEspt1P35ePQ23p+1JU/FhjZ135eifemNFW1DbbEEAAAQQQ6GUB3Sz3zyPSjaIw8Cnrv27U22wNhRR69ozNetExurm/evXqssPz7QpFYopfZq/oWToxbbRbR1Y+YCgKfMrOIR/rt9oIwxVZFYVDPhA5/fTTy5pv2B62o/OF2xoO6MKH8Lul70NR4FN0ah3rv0v6nmlpJwsQNZaiZQJtv7XZipfOTUEAgXqBMEzp1Oyj+jNPXY1hC1OYfTR137WyMxMglcm0sV0zQXx4o5v/ZSGNLVPnT6f69mwcBQgWpqiOPq/b+OVkUxoihbNLFI6ERUvVaWaIZvYoODl46OmGpfUUSs152+xk8QWLwkOn7LOeM2Vj1qtm1ZT5qf8WslR1WLOQvv83/5gFcJrhpWuUBXz7G4+S14qLrshCq9C3sWZ3P2lcPoBc8cErsmtYdlbvoO/Ppz889pyusvrtbJfd6LZv5U1oecVuhlX5iXiDQBMCuqnvwxvdxC9bls2WqfPN+wBBbfnZSNb2pjQU8DfzdXxRW6qjWSNqU8/E0YwbtWFFoZSe5VT3/Bur38uvNlbzUoCn4K4oRFJ44q/RVI5rw09vabgmZYFPUR/13KcbXPhkdWSx4h2XJVpKMPyeqI4Pj/RZ34+Y4p+r5b9HMcdSBwEEEEAAgV4Q0I3ya68d/wc7uinfzFJuCkR8+GRj0mwOPaenrK3wBn1ssKEAKTzWzjkZr5pZ5cer8Ci27+qfnl9S1H+FKmorJlxpJmybDJOqc4TjbeY5WnLys43sPAo39b0qmtmmOhbQWf1YL6vPKwIIxAuE4QKzj+Lt+qXmsAVm/XBdCJA6fJV0c10zQSzU0M18zRgqK4svWJgkJ6U3kl4ZW3ZNMznCZdPU1libY89U0uymrQ9umxCqzExDIs3W0bJ4CosWn7+wMAhR2OCXOtOybTrnVAYm3kezhbQ8mixV1F8FbZ9ObeSpMhYsjS/1p76bYVah4H90zC7XbkGVtI3j2UykWX+cLhn4/u7N4Ck6t23TkoP++uiaVs3CkpO+D1b0HQqXArR97b7a99usdT1uWfPVdpvleAQ6KqCb6lo+zG6u6+Z9VSCw+CwtVfZ6dkNfN/XXvm/1hMAjbFOzm7b+avuE5exGFBqkgYH2qy0tg1YUICg00tJ2VkZ/sSn5wFkLCoMGq9Mvr/L72K7P5t1dnV4LhXcKkiwk0XJxoz/flDnp+oRhSn7wJLzRddjz3Pi/JtBsMOtnu6fXOGdNS8PBdOxhUZhIQQABBBBAYNgENFND4ZEFGroxrxkdsbOPqrx0E18zRtR2MwFLVZva5/tm/a47plP7NRvGP4NJIVkzs4+q+qFrofF00stbVZ27W/tkpYDRStnsKtvfzKu+W3pulL+x2czx1EUAgfYFmH10LGnnuVTtX4HutxAGhDz7qPvmMWcgQIpRiqyj8MGHRzps7DlDM0pbUEhRF1QoDLjzS/+YfPyrf5mHKnqOTzgrRzfz10Ysu7ZqyacSzcgZvWdsFonCJi1JVhVSlA6gCzvUt1vWfCVZnQZxFlRoNo5+ioIijUfL2FldHR+WMDTTTCM9U8ie26PQ7cDBRzNfBXY3bLkpCwFD47DdTn/WOMLZPXV90FJ3NvZuzgay8MjCURkqPOpWWNVpW9obDgEFEZrVYuGRRr3+T9ZVBgK6uV90g9+LKVC4c+ltycd3fSZve+uTOyYESKqnAKWuKFCZ9ub09/AvNmZVFSbsfua+bMZK3bG9vl+zrda+b00+NvU3C8zS0KwoLNJzoKZqJpLCI/XNisKjsplqVid8nZnOHrNj9P3TM5wUSOm9ZmLpR88qkokvuv4UBBBAAAEEhkkgDI809nXr1jUd9tjMGR2vNrXUmoIWBSH6l+j6UcjSyaBF51LpZDA11mL5/2pcGzZsyCvo3Ndff33+OfbN8uXL8yXYbPk/Wem9ZtuoXYV4nRib2p2qolla/jlYuv5ls9HK+igD+97475beKzzSj9zWrGn8e11Ze2xHAIHOCoThArOPOuvbC635kP7YscEPzHrBPKYPBEgxShF1FB4p8LCb6zrkhk9cN2E2UURThVUUiqxa8sks2FCFbDm6NPSwAKTwoIqNmuWz+f99Jw8eFJ70SoCkbisI0TJ9Wq7PZiJpuwUleq8AQ7Nt1G/N2rGimVi+aMaWn9GjtsuCD4U31pZCJ7lPlsuex/YmN6SzwazY7J6qmWHhs4i6NRsoDI/Ux/XX/K+Wv382Rl4R6KSAbthrtotm/1hRmDM2w8i2tP6q8ENhh86hotBH4UDR8mwxZ1nxzuXZLCYLuxQ6aMmzQSgam8rmx77XMLtI18iKPG+5aH0WpNk2vfol2vz2Tr8Pw6OlaZBoQVAz51JoGD7DStf022k4Zc/gUtio4kMkjd8X+x74bUXv/TKJnZopVXQetiGAAAIIINBpAc080s13K7pRP3++ZoI3VxQghcuuKbjwM5sUJoT1woBEM5bCbUU9CZcnK6rT6W1y0ngUXKion62GPEUhyo4dO7Kl7dS22d12220Ns628zVQGQ+pjXdH19sv8acwWBNUd6/drzOFxGruWxbOZTbLTEnW+XrhkXex3xq6v+jDVs7e8A+8R6EUBZh8NfpgSBoTMPuqd/xL/oHe60r89sfBIs1isaFZMp58L84G5jc8pUjDSTvEzn9ptq51+lB2roGfnV+7KgzgFKvqZc+a52eyrO9NnGincUZjmgyXV8WV02//JP2qfgqmyWTOaweWXEFSINBlF/lpK0Ir6qaUPy/qpegp1fP/0nauqb203+6rvt57pFYajvfTcrGbHRP3BEygKj3RTX8vHdbJodo0vev5NO0XL1lnxwYBt6+dXhUiataVroJBNYYd+9F7XZuflt2fvj/9n41JukxGKFIVH6xeu7Ri3xqCw0YeLu5/+cUOYppP5scZefx80TVbY1jEYGkIAAQQQGFoBzXQJwyN/A75dGAtY/E14HyiofR+I6LOWJIspPjwJ24g5vtk6Ot+NN97YkfCo7NyaleRn0eic9913X0N1H4r4oKOhUvDBX2PtmgyvMDzSv17X0nWdKhrD+vXrG0JLhUjeRN87/9178cUXo07vgybvHXUwlRAYMoEwXGD20eB9AZh91LvXlBlIHbg2mnkUhkd1y461ctqipdlaaceOqZrZYnV64VVBXFUYd/BQY5DmZ2UpXNKzj6wsmX9p7bOeVnzwivwYO96HStZWp14VHvnl+mLCI5176wP3NIQ62uZnWumzlV+7cFPPk7J6s6anz3pKfctKUTiqmXVVx5S1xXYEuimw4ae3NMw8amUpspj+tTprpKztsL2yev26XQFJ3ZJ+msVlxQcutq3Tr2F4pFCwk+GR76++h6uP+hlrj6Uz4sZDQ53bAiEtcxdT/Aw7H0DFHEsdBBBAAAEEpkJA4ZG/0afgqJPhkY1JN/ovueSSfBkzLWunm/x2Yz8MM2ICpLDO2WefbafryquCHD+TSn1udeZRXQcVIn3ve9/Lg5CqsSroUN9Cw/AcPjhRIFJXPzy+2c9F4dHatZ37R0G+P5rVpO+UijwUlvmZcHo+le0PgzTfjn/v6+l4CgIIFAsw++hYsnfv3mKcAdkaBoTMPuqtC0uA1Ob10KyRVsMj3ZxXQGElnDlj2+3V17Vt/tUv9aawSUu8VRU/a2ekpm5VO53e1+w4dv/sh3kXwqDHj1GVYmboaOaTL0eOHfUfO/q+1fBInTjhvjv67Gcj6XNZ8TOX5FUWBhWFR92YWVfWT7YjECuw4aej2TNnrH4z4ZFmLvkZMLPS59lUFb8Em+qFN/APuxlJ096U/h4OlikL2w7bC/f34+dmDXyAFM7w6vT4i8KjTX9+c/Rpmh1bOEPoxH+OL+Gnk86Zfnb63X04O//BY89mM5SqvjNWxzo874zz7S2vCCCAAAII9KRAO+GRwh8/QyMmjAgDHh1vAZKAdMO/mZv8jz32WINrN2/yh+GR+q1nHsWMW53U8b7EHDdjxox8Zlh4vA9H1K6e/1O0HJ4/p+pYCa+Fbe/Uaxge6do0Ex758Srs8t+Toj6G+/3xqu8DJIVxPrwsas8CTtv3nve8x97yigACgUAYLvh/lBBUHYiPYWCmMOW1114biLGVDYLZR2UyvbGdAKmN66DwaNf+H+Qt6OZ6MzOPjr/6crLsy1flx+v5NYuDZerynembh9Jn5PgyM5094su37/1u3h8t8/b9dIm3quLb00yUXikbbv+7fAaQAg4tOVdWFIb4GUZL339pWdVsexgoFVU+krbpy0gaxnWjqO9aGs76FDvzqBt9KWpzsmbWFZ2bbQjECig8sufM6JhmwiPV13OMlv3TSr3Nyi0XXd8wQ8S22+tDh8b/T7G2zQwCp28/Ov7cG4UD30+XcKsqD70RHmRtpbN1BqF8fOdn8qXatHxd1QykAy88nj1Hysa99Jw/s7cdf939zP3J5vT6WFFYpfCoKrCxuva67J7x78rS2Rdny9TZvqLXcInDkTc1PvcoDIC2/mr7hOcp+Xa135f3pssBUhBAAAEEEOhVgU2bNrU180izMzQbx4rCAX+Dybb7VwuHbFu4LJgPkFRXP2FQYsfqVUuVWVEgEhPKWP1mXhVG+JlHCis086iZwEqBit1U1bjvueee2i4cPTr+jyVDK41VPxaU6BlAVQGSLK2uTlx3rWo7V1GhKDySV2xRuLNy5fjf6zSuumXvdIwv4XdBz/Pavn3s72oKLvW+aqadXStrc+7cufaWVwQQcAJhmPLII48kL730kqsxeG/9789jx3j20eBd4f4bEc9AavGatRse6bSaDeOXkdOSZGVFs0H8DBOFDeFsG790m5Z188FK2O7WB7Y1LH+2eO7CsMqUfZ537gX5uTWGqnEoNLNn88gknE0z0XhbHtjkJwne+BlN2hXOSAqqt/RR4dGadOlD67tmi9U98yg80QfSa5aFlgoua34UKFqRk9UvC9zamVln5+EVgW4LtBseqX+aQeQDhK2/Gr9JEPZfs4V8AKFjwyXXFBpZ0WwRP7vGtturwgBbvkzblp5zse3q61c/i2j30/c3jNEPTJ4b9o3mm2Tpj813dOCNwqMb3Ll07RQW+msfcxp/vfc8t790bNaW/75oWzg+tefb3PrkjtI29V3xYakCrHAGnJ2XVwQQQAABBKZaQDf47Wa6+qIb9FU304v6G4Yn4Q338BiFFz5AUuATzhoJAxD1s6yo/z4QCY8tO67Z7TqHD490fLPhkY7xM34swND2sqLx+VBEAUhY/E1M2fprGtbVbDNfqoI5X6/Z9/oe+Oum74m8wmtd1a7q+u+X2vTXuujYjRs3NmwOAySN129T+FjWprb777Ocm+l/Q0f4gMCACzD76McDfoUb/8HBMARm/XhBCZBauGoKctqZeeRPueKiK/OPCkpG7/lWGio0zoDRZ80GsbBBB6z68Cfz4+yNwhMfSCkE2BPMWlJdhUej275lh6VB1sTgRTt1XvtRgDVZZcWfXtkwDs3S2f2z8Zle6of6MyHEKzBRXW8sQx0XGlubcvHXVjPCwmXvdG5zKWpHbVUVHePDI9XVLKvwPFVtaJ/6phlvMT/nvX123tzMNLi0Y8LATZUmuDY5sy4/EW8Q6KKAliILb6avuuDqls6oWTJWFPhsSGc1+WBH+/R59Y+ubdiu2U5hWXLOJQ2hhNpSeBEWhUejP9+Ub1YQsCQNBMKiJdPsp1+Wu/MumuG1JnDTGDXzKPRc/yfF69Vr3O0YFIVHG9OZR62ELz7ks7EVXd+DLz2Tjc8HiGWBT6yXHH35dMH3z+/nPQIIIIAAAlMlEM4OUTBRN7ujqK+6oe5DDQUYYdBixxXtKwp81KbfruMUfIQ3+hWUaAaVFQUDPkyx7QpgdKz92PbYVx0XjkkzrXy4EduWnv/kQwj1X9fCh0RqS5+1PRxfUeAjK9/mnXfeOSFEUnuhocJCH6bYGLxX2C+rU/Wq0MUHVTqHlvnzfaw63u/z11OBm66Dvg9hKfpu6dii8fmQ1NoMv1vWnj+PP85v5z0Cwy6g2UeLFi3KGWJmH5188smJjrOf/OA+eeN/N8WGKTZWvWr8/VTCgJBnH/Xm1fvD3uxW7/ZKQcbme7/T0EEFSn52UMNO96FoOTaFJZrxYkHE1p9sS3any+Jp1osCBQUe4QycxRcsmjDTRqfRc49W/cWnshBKn3WswhdrS+GSAiVbMk11VLR0XlHxy+sp4AhnPBUd04lt4Tj07KcbttyUGc9Mwy71X88O8qXMRHVCYxnoR+OxWVtH5PzUvzbYKFj7wpWf86fJ3ut6WQBXdE0nHBBsCMMj7f7YV/97UKv44w0rr0uWvP9DxTs7sFXfbR+gqcl2vt8d6BJNIDBBQDfsw5kdCpN8oDThoDc2aLZH+MybFe+4LPEzZawt1VXIoPDIBwFqSvuKAh/NaFk195pk9Bdj/0JRx2rmi/qr2Sfar2fehGGQZsMUFb9kmvrtZ6sU1e+FbeqjwhK7HjLQMoE2/iPpZ23zRSFKWaCjEM6eE1S3JJ5vU+/N32+3/vhtZe93Xr6loV+65rvS7599H6x9XV973lHR+DS2ssCnzEvbddyv05lsB48909DFKq+GinxAAAEEEEBgkgXC2SE6vZY+u/TSS2t7ohvyW7Zsaai3Zs2aRM+TsZvwuvmupccUsFhooKXuwjBCwZO/Cecb1c16PavH2lSf9Vltqg86h+2z48qeraO6GzZsyKrFLhtnber1xhtvnHAuBSQ+JPH1/XuNwwcP8rjmmmsSP1PGwjwLh+SkZetCLzkXBSJqc926dfkYFYooeNLsGgu59Jwo357a8f3yfZaVzFTC/vt6Re91nUMXXSe/FF3RcbZN3y0/xuXLl2fX3fqjthQiqY7V07bwu1A1Pn3n1J7NLrL+2ewkfZc1Dl/kYOfz23mPAAJjM1N8IGL/bVXZzJo1K9HvNJVXX301Wb9+fVX1ntqnAEiBipXYMOXzn/98csopp2SH6c8A/a7pl+L/rI4NzPplbIPUTwKkJq+mnwXU5KGF1RWWaOmysVBhbOaRApJs6baCI5ams4y+cMXEUMOqKixR4OJDLoUtYeCi+lo27ZbVX8lDFGtDr2rDl24s4+bbD98XjUP2Rf4KcdZfc13YRP7ZjDWzxodxmXE666uoKDwqW1LO26jtZkvRGJpto1v1FaRREOh1gTB8aLe/CnU0IyWcKaOQ4EBB44vPmp8++2ZdwZ6xTSveuTx7tpJmSVlRn4v6rXOrrXBpMx0XhkwWUFibvfyq2UQjbx5Jtj45tg68+hqGINZ/hSFVs8c008fKrJHT7W3Ua/gMoqiDairdctH6RNfWj63s+qopXVsFhGUBmerY7CsL3bSt7PunwLPKS8dSEEAAAQQQmCqB8GZ7u/3QjXUtTxbO0glvwvvz6GaU3Tz02+29QpGwTQUgFiRYPXtVeGQBjG2zV/8MIb+EnO2ve1Ug08miUETFh0j6XDY2WcjKz/RSfV+0TyGHwigrRcGK9tn1snrhqw+amvXyx4bttvpZN5Zl5W9Kl41N59D3QN+HqsBHnrquCk6tlPk3G6JZe7wiMAwCYZgSM/tILtOnT895+u1ZSa2GKRYeaeAKzfqlMPuoX65UkhAg9cC10kyjnV+5K5t5tDl7pk/jEnbqokKSFRddkWimTV3R8220NNm3C2aT6FgFR2prxQcbl4rz7R759/E+KCTxS+P5et18b+MIgx87p0Ktj33wisLZWFbHXmWsWVSa3bUrnUHkgySro1c56xlMVTYHDz2dHzLnzNn5e94ggED/CujmvmabaCaSwoGisCebKZI+p6ho5lE4ct3gV71vp235UMDqKThaMvuSdLbS1Q1L3tl+vWomi5VpaRhTFUBYvV56Xfu+1cl5p52dfD99rlRReCRPjV+vVcU7zDntnKqqk7JP105jW3zm/Oy7YrORwpM3833RsQqR5p1xfuX3T+GRAkwKAggggAACwySgm/WaPaKb/Jr5UhYe6ea+bsiXhT3eTG3edtttWSjiZyP5OmpHS+/ZTBu/z977UKOqntWfjFeFSAp9FPgouCgK9RQcaXm6cIm6sv7JVTc2NQOoKAyJbc8HblUhTFk/Or1d/baAUN+vorHpnPouaPz+5m5ZX9Smgim1p2tQ5N/Md7XsPGxHYNAFwv/efNBbNXYFT1Y0o6VfShiYxc4+0owrX44cGb+f67f34nt/jZl91ItXaLxPJ73+k/94ffwj73pBQLOFNAtJs0H0vBoFJa0GOLbcm82aUZASM5tIS7xp+TsVPWunbJm7yfLy41CgJRfNEmq1WHs6XjZymTl9ZpSznkdlAdRkLu3X6lg5rocF7uvsvzjs4ZH2XdcUeGgGkH4UGNjya60MRG1YgKL3mkVTNOMobHvPof3JugfGlkRRGBEuvRfW7+XPCuQUBLXieeGW8SVvHln5w54cpoVIGqNmirXzfdEA9X05fOLF5MQbs6/e+8Zydj05+D7t1Elfm3VSn3a96W6fddZZ/F2/aTUOaFbgueeeG5r/pg4fPsx/U81+QTpcX6GNQiQLb04//fRkxowZ+ZJ2rZzOBy1aik43+BUE1BUtQacASkXP4lmwYEHdIZO+36zkpTEpuGknvLEZOhaMaCZRTHim819++eXZ+FtZ7m8y4Oy7pXNpfBpbu98t+b/4Yvr3ujdmm+m71Y7/ZDj06jluvfXWXu0a/eohgWXLliULFy7MenT33Xcnmrk0yEW/p2zWrZauC2egDvLYGdvkCTADafKso88UE/DENqbgSbNqmi0HfzM+y2bx3LFfvM220cn6rY6jrA/ttGfLASrIasW2rE9sRwCB3hGICXhie6sAqm6WTVFbFjppX7/POtHsqVZmUB1Mn/9jpRVDO7bbr53um75/nfwOdnv8tI8AAggggMBkCigE0U34TpZW27MQRX2JCVE62efYtjrdr1YDKD9zrFXv2DG3Wq8b3y35d/oatDo+jkNgGAT8jBz/e2dQx+7H+8QTTwzqMBnXFAv8wRSfn9P3qIBfpu29LQRQPTqstrt18NDY7DA1RHjUNicNIIBAhYAPTz5wZu/9a9aKrnds1+GXx5fx6/cQrWMoNIQAAggggAACPSNgNyeZVVJ/ScxKNaueuVTfEjUQQACBcoGZM8dWK9KSaP32DKTyUZXv8c+T879ny49gDwLNCxAgNW82FEfYLJs5Z56bLe82FIOOGOThY0fzWr0wMyvvDG8QQGDgBOw5THOmn93S7J1BALGl4TSWYQ3RBuE6MgYEEEAAAQQGUcA/L4dApP4Ka2klK706A8n6xysCCPSngGbjnHLKKVnnf/nLX/bnIJrs9fTp07MjFJj10/OPmhwm1adYgABpii9AL55ezwQ6nD5/SWXp+8efPdGLfZ3sPh04+Gh+yg+kz4aiIIAAAt0Q8M9NWjr74m6coi/atGX8hjlE64sLRScRQAABBBAYQgH/L7178dlHvXZJLEBitlavXRn6g8DgCPjl3Ab92Ue6agrLbMzDEpgNzre1v0bCM5D663pNSm+P/PZIsnT+h7JzEZI0ks/6oxmZzZy3z070HCUKAggg0A2B478/kVhwNMwzb7JnJ6UB2jAbdOP7RZsIIIAAAggg0L7AyMhIcvHFFyetPhOo/R70VwtaZkk/hG39dd3oLQL9JPDqq68mFhwNw2yck08+OR/vvn37+ulS0dc+Ezjp9Z/8x+t91me6iwACCAyGwH0nBmMcjAIBBBDoM4GTvjbrpD7rcsvdPeuss/i7fst6HBgr8Nxzzw3Nf1OHDx/mv6nYLwb1EEAAgQ4K3HrrrR1sjaYQQAABBGIFWMIuVop6CCCAAAIIIIAAAggggAACCCCAAAIIIIAAAggggMCQCBAgDcmFZpgIIIAAAggggAACCCCAAAIIIIAAAggggAACCCCAQKwAAVKsFPUQQAABBBBAAAEEEEAAAQQQQAABBBBAAAEEEEAAgSERIEAakgvNMBFAAAEEEEAAAQQQQAABBBBAAAEEEEAAAQQQQACBWAECpFgp6iGAAAIIIIAAAggggAACCCCAAAIIIIAAAggggAACQyJAgDQkF5phIoAAAggggAACCCCAAAIIIIAAAggggAACCCCAAAKxAgRIsVLUQwABBBBAAAEEEEAAAQQQQAABBBBAAAEEEEAAAQSGRIAAaUguNMNEAAEEEEAAAQQQQAABBBBAAAEEEEAAAQQQQAABBGIFCJBipaiHAAIIIIAAAggggAACCCCAAAIIIIAAAggggAACCAyJAAHSkFxohokAAggggAACCCCAAAIIIIAAAggggAACCCCAAAIIxAoQIMVKUQ8BBBBAAAEEEEAAAQQQQAABBBBAAAEEEEAAAQQQGBIBAqQhudAMEwEEEEAAAQQQQAABBBBAAAEEEEAAAQQQQAABBBCIFSBAipWiHgIIIIAAAggggAACCCCAAAIIIIAAAggggAACCCAwJAIESENyoRkmAggggAACCCCAAAIIIIAAAggggAACCCCAAAIIIBArQIAUK0U9BBBAAAEEEEAAAQQQQAABBBBAAAEEEEAAAQQQQGBIBAiQhuRCM0wEEEAAAQQQQAABBBBAAAEEEEAAAQQQQAABBBBAIFaAAClWinoIIIAAAggggAACCCCAAAIIIIAAAggggAACCCCAwJAIECANyYVmmAgggAACCCCAAAIIIIAAAggggAACCCCAAAIIIIBArAABUqwU9RBAAAEEEEAAAQQQQAABBBBAAAEEEEAAAQQQQACBIREgQBqSC80wEUAAAQQQQAABBBBAAAEEEEAAAQQQQAABBBBAAIFYAQKkWCnqIYAAAggggAACCCCAAAIIIIAAAggggAACCCCAAAJDIkCANCQXmmEigAACCCCAAAIIIIAAAggggAACCCCAAAIIIIAAArECBEixUtRDAAEEEEAAAQQQQAABBBBAAAEEEEAAAQQQQAABBIZEgABpSC40w0QAAQQQQAABBBBAAAEEEEAAAQQQQAABBBBAAAEEYgUIkGKlqIcAAggggAACCCCAAAIIIIAAAggggAACCCCAAAIIDIkAAdKQXGiGiQACCCCAAAIIIIAAAggggAACCCCAAAIIIIAAAgjEChAgxUpRDwEEEEAAAQQQQAABBBBAAAEEEEAAAQQQQAABBBAYEgECpCG50AwTAQQQQAABBBBAAAEEEEAAAQQQQAABBBBAAAEEEIgVIECKlaIeAggggAACCCCAAAIIIIAAAggggAACCCCAAAIIIDAkAgRIQ3KhGSYCCCCAAAIIIIAAAggggAACCCCAAAIIIIAAAgggECtAgBQrRT0EEEAAAQQQQAABBBBAAAEEEEAAAQQQQAABBBBAYEgECJCG5EIzTAQQQAABBBBAAAEEEEAAAQQQQAABBBBAAAEEEEAgVoAAKVaKeggggAACCCCAAAIIIIAAAggggAACCCCAAAIIIIDAkAgQIA3JhWaYCCCAAAIIIIAAAggggAACCCCAAAIIIIAAAggggECsAAFSrBT1EEAAAQQQQAABBBBAAAEEEEAAAQQQQAABBBBAAIEhESBAGpILzTARQAABBBBAAAEEEEAAAQQQQAABBBBAAAEEEEAAgVgBAqRYKeohgAACCCCAAAIIIIAAAggggAACCCCAAAIIIIAAAkMiQIA0JBeaYSKAAAIIIIAAAggggAACCCCAAAIIIIAAAggggAACsQIESLFS1EMAAQQQQAABBBBAAAEEEEAAAQQQQAABBBBAAAEEhkSAAGlILjTDRAABBBBAAAEEEEAAAQQQQAABBBBAAAEEEEAAAQRiBQiQYqWohwACCCCAAAIIIIAAAggggAACCCCAAAIIIIAAAggMiQAB0pBcaIaJAAIIIIAAAggggAACCCCAAAIIIIAAAggggAACCMQKECDFSlEPAQQQQAABBBBAAAEEEEAAAQQQQAABBBBAAAEEEBgSAQKkIbnQDBMBBBBAAAEEEEAAAQQQQAABBBBAAAEEEEAAAQQQiBUgQIqVoh4CCCCAAAIIIIAAAggggAACCCCAAAIIIIAAAgggMCQCBEhDcqEZJgIIIIAAAggggAACCCCAAAIIIIAAAggggAACCCAQK0CAFCtFPQQQQAABBBBAAAEEEEAAAQQQQAABBBBAAAEEEEBgSAQIkIbkQjNMBBBAAAEEEEAAAQQQQAABBBBAAAEEEEAAAQQQQCBWgAApVop6CCCAAAIIIIAAAggggAACCCCAAAIIIIAAAggggMCQCBAgDcmFZpgIIIAAAggggAACCCCAAAIIIIAAAggggAACCCCAQKwAAVKsFPUQQAABBBBAAAEEEEAAAQQQQAABBBBAAAEEEEAAgSERIEAakgvNMBFAAAEEEEAAAQQQQAABBBBAAAEEEEAAAQQQQACBWAECpFgp6iGAAAIIIIAAAggggAACCCCAAAIIIIAAAggggAACQyJAgDQkF5phIoAAAggggAACCCCAAAIIIIAAAggggAACCCCAAAKxAgRIsVLUQwABBBBAAAEEEEAAAQQQQAABBBBAAAEEEEAAAQSGRIAAaUguNMNEAAEEEEAAAQQQQAABBBBAAAEEEEAAAQQQQAABBGIFCJBipaiHAAIIIIAAAggggAACCCCAAAIIIIAAAggggAACCAyJAAHSkFxohokAAggggAACCCCAAAIIIIAAAggggAACCCCAAAIIxAoQIMVKUQ8BBBBAAAEEEEAAAQQQQAABBBBAAAEEEEAAAQQQGBIBAqQhudAMEwEEEEAAAQQQQAABBBBAAAEEEEAAAQQQQAABBBCIFSBAipWiHgIIIIAAAggggAACCCCAAAIIIIAAAggggAACCCAwJAIESENyoRkmAggggAACCCCAAAIIIIAAAggggAACCCCAAAIIIBArQIAUK0U9BBBAAAEEEEAAAQQQQAABBBBAAAEEEEAAAQQQQGBIBAiQhuRCM0wEEEAAAQQQQAABBBBAAAEEEEAAAQQQQAABBBBAIFaAAClWinoIIIAAAggggAACCCCAAAIIIIAAAggggAACCCCAwJAIECANyYVmmAgggAACCCCAAAIIIIAAAggggAACCCCAAAIIIIBArAABUqwU9RBAAAEEEEAAAQQQQAABBBBAAAEEEEAAAQQQQACBIREgQBqSC80wEUAAAQQQQAABBBBAAAEEEEAAAQQQQAABBBBAAIFYAQKkWCnqIYAAAggggAACCCCAAAIIIIAAAggggAACCCCAAAJDIkCANCQXmmEigAACCCCAAAIIIIAAAggggAACCCCAAAIIIIAAArECBEixUtRDAAEEEEAAAQQQQAABBBBAAAEEEEAAAQQQQAABBIZEgABpSC40w0QAAQQQQAABBBBAAAEEEEAAAQQQQAABBBBAAAEEYgUIkGKlqIcAAggggAACCCCAAAIIIIAAAggggAACCCCAAAIIDIkAAdKQXGiGiQACCCCAAAIIIIAAAggggAACCCCAAAIIIIAAAgjEChAgxUpRDwEEEEAAAQQQQAABBBBAAAEEEEAAAQQQQAABBBAYEgECpCG50AwTAQQQQAABBBBAAAEEEEAAAQQQQAABBBBAAAEEEIgVIECKlaIeAggggAACCCCAAAIIIIAAAggggAACCCCAAAIIIDAkAgRIQ3KhGSYCCCCAAAIIIIAAAggggAACCCCAAAIIIIAAAgggECtAgBQrRT0EEEAAAQQQQAABBBBAAAEEEEAAAQQQQAABBBBAYEgECJCG5EIzTAQQQAABBBBAAAEEEEAAAQQQQAABBBBAAAEEEEAgVoAAKVaKeggggAACCCCAAAIIIIAAAggggAACCCCAAAIIIIDAkAgQIA3JhWaYCCCAAAIIIIAAAggggAACCCCAAAIIIIAAAggggECsAAFSrBT1EEAAAQQQQAABBBBAAAEEEEAAAQQQQAABBBBAAIEhESBAGpILzTARQAABBBBAAAEEEEAAAQQQQAABBBBAAAEEEEAAgVgBAqRYKeohgAACCCCAAAIIIIAAAggggAACCCCAAAIIIIAAAkMiQIA0JBeaYSKAAAIIIIAAAggggAACCCCAAAIIIIAAAggggAACsQIESLFS1EMAAQQQQAABBBBAAAEEEEAAAQQQQAABBBBAAAEEhkSAAGlILjTDRAABBBBAAAEEEEAAAQQQQAABBBBAAAEEEEAAAQRiBQiQYqWohwACCCCAAAIIIIAAAggggAACCCCAAAIIIIAAAggMiQAB0pBcaIaJAAIIIIAAAggggAACCCCAAAIIIIAAAggggAACCMQKECDFSlEPAQQQQAABBBBAAAEEEEAAAQQQQAABBBBAAAEEEBgSAQKkIbnQDBMBBBBAAAEEEEAAAQQQQAABBBBAAAEEEEAAAQQQiBUgQIqVoh4CCCCAAAIIIIAAAggggAACCCCAAAIIIIAAAgggMCQCBEhDcqEZ5v/f3t3jtnFEAQDeXadIYcBOKbuRThD7CC5cWzcIdAMXRqAuVCcELngE5QZSHQShb+AjbCOrDN0FgsXNG+rXiEyPRIp/8wkgJJPDmXnfrJ5393FXBAgQIECAAAECBAgQIECAAAECBAgQIECAAIFcAQWkXCntCBAgQIAAAQIECBAgQIAAAQIECBAgQIAAAQKFCCggFbLQwiRAgAABAgQIECBAgAABAgQIECBAgAABAgQI5AooIOVKaUeAAAECBAgQIECAAAECBAgQIECAAAECBAgQKERAAamQhRYmAQIECBAgQIAAAQIECBAgQIAAAQIECBAgQCBXQAEpV0o7AgQIECBAgAABAgQIECBAgAABAgQIECBAgEAhAgpIhSy0MAkQIECAAAECBAgQIECAAAECBAgQIECAAAECuQIKSLlS2hEgQIAAAQIECBAgQIAAAQIECBAgQIAAAQIEChFQQCpkoYVJgAABAgQIECBAgAABAgQIECBAgAABAgQIEMgVUEDKldKOAAECBAgQIECAAAECBAgQIECAAAECBAgQIFCIgAJSIQstTAIECBAgQIAAAQIECBAgQIAAAQIECBAgQIBAroACUq6UdgQIECBAgAABAgQIECBAgAABAgQIECBAgACBQgQUkApZaGESIECAAAECBAgQIECAAAECBAgQIECAAAECBHIFFJBypbQjQIAAAQIECBAgQIAAAQIECBAgQIAAAQIECBQioIBUyEILkwABAgQIECBAgAABAgQIECBAgAABAgQIECCQK6CAlCulHQECBAgQIECAAAECBAgQIECAAAECBAgQIECgEAEFpEIWWpgECBAgQIAAAQIECBAgQIAAAQIECBAgQIAAgVwBBaRcKe0IECBAgAABAgQIECBAgAABAgQIECBAgAABAoUIKCAVstDCJECAAAECBAgQIECAAAECBAgQIECAAAECBAjkCigg5UppR4AAAQIECBAgQIAAAQIECBAgQIAAAQIECBAoREABqZCFFiYBAgQIECBAgAABAgQIECBAgAABAgQIECBAIFdAASlXSjsCBAgQIECAAAECBAgQIECAAAECBAgQIECAQCECCkiFLLQwCRAgQIAAAQIECBAgQIAAAQIECBAgQIAAAQK5AgpIuVLaESBAgAABAgQIECBAgAABAgQIECBAgAABAgQKEVBAKmShhUmAAAECBAgQIECAAAECBAgQIECAAAECBAgQyBVQQMqV0o4AAQIECBAgQIAAAQIECBAgQIAAAQIECBAgUIiAAlIhCy1MAgQIECBAgAABAgQIECBAgAABAgQIECBAgECugAJSrpR2BAgQIECAAAECBAgQIECAAAECBAgQIECAAIFCBBSQClloYRIgQIAAAQIECBAgQIAAAQIECBAgQIAAAQIEcgVSAanNbawdAQIECMxMYBg9tTPrTUcECBAgkCuQ8m9JX21JwYp1/gJ1XX+c/6gLHbFd6OgGJ0CAQJkCjp/LXHdREyCweIFhU9VOYC5+HcyAAIHiBOoqnWxpi4tbwAQIEFi0wHn+XfQs5jn+h3kOZqzyBLquU0Aqb9lFTIAAgXkLOH6et7jxCBAgcC7wsam6zkGlzYEAAQLzFui6o6qWf+fNbjwCBAhUo+qoJIWmaQ5Kiles8xeIbayo36komDl+nv9mZkQCBAgcxRWv8q/tgAABAnMWiNx71FTNqD/ncQ1HgAABAs3osPr3VP61JRAgQGDeAk19OO8hFzle27aD2OkfLHIOxl5fgdi2YhNri/qdOj21/7a+W7TICBBYVoH4/+ZQ/l3W1TEvAgTWWSA+LHbY1K9+GsZt7AbrHKjYCBAgsGQCB5F727q/NYx5DZZsbqZDgACB9RWou4N6f6Nd3wBvjyxOuuzEI/2f44vAzATSNhWPVzPrcEU62tqy/7YiS2WaBAisiUBc+XmwsbHR9vt9x89rsqbCIEBgZQQO9vf322Y83fpsJ747qFyZtTNRAgRWV6AbVs3Z3tX846Re/Cz/XoH4gQABAg8mELm2uc6/DzbM8nWcLhFJJ/rTCf/lm50ZraJA2pbSNpW2rVWc/7Rzjtjtv02L6P0ECBDIExjGp9+v9t8ePXok/+a5aUWAAIFpBYaRc8f5d1xASp+Er6ruKiFP27v3EyBAgMA3BEbV3nnOPX99/En4rpJ/v8HlaQIECMxMIHJtiVcfXfrFef6PcdL7ZTzay+d8J3AfgdiG0m0RX6Zt6j7vX4f3pE/CRxz239ZhMcVAgMCyC+xd5NzxPNMn4eOKJPl32VfN/AgQWHmBlGtTzk2B1Dej6f783Kua+rebz/mZAAECBGYkMOr26tdPerf11u0e96pO/r3NxnMECBCYWqCO/Lv/vDd1P2vSwebm5vZoNNqOIsDPcWDwYk3CEsbDCrTR/SA+Bf5HFI4GDzvU6vR+fHzci98jx8+rs2RmSoDACgmkk5fPn9++//bu3Tv5d4XW0lQJEFgtgZR/379/37uc9VcFpPRk99fnt1FXSjvBTy8b+U6AAAEC0wjEbevSlUevn/Qn9dL9+ultlPXl30lIXiNAgMDdBIZVuvLo92cT8+/dutSaAAEC1wKfPsX+W2X/7VrETwQIEJhaYBg97D17Nnn/LYpIby+K+E+nHlEHBAgQIJAEhhfFo6+On/9XQEotu7//2azOml5V17+kf/siQIAAgXsK1NWgir8zd/O2dZN66nZPNiMLx9VIlfw7CcprBAgQ+J5Ayr9VvVPybeu+R+R1AgRmI3BycrIZB9u96M3+22xI9UKAQLkC6TapOzdvWzeJYnd3d/PLly/paiT5dxKU1wgQIPB9gUH6O3OXt6272fzWAtJlg3EhadRsRyHpTTW+vUWtqn+J4zsBAgRuE6i7Nk5YttVZ96H6YdSPwlH69NSdv8aFpFG3XTVV5N/qRXQg/95Z0RsIEChKoK7aiDcekX9/PO3Xva175d+izARLgMBMBS4KSdvR6Zt42H+bqa7OCBBYU4E24kp/1+jD6elpf2vrfvtvF4WkdHte+XdNNxRhESAwW4HIlyn3jvPv48eP+71e75vHz/8BLoSZ/nk2qD4AAAAASUVORK5CYII=;" parent="WIyWlLk6GJQsqaUBKTNV-1" vertex="1"><mxGeometry x="480" y="930" width="310" height="208.22" as="geometry"/></mxCell><mxCell id="TFEnaZEvHAxOvU5EDG9b-19" value="&lt;font style=&quot;font-size: 21px;&quot; data-font-src=&quot;https://fonts.googleapis.com/css?family=Montserrat&quot; face=&quot;Montserrat&quot;&gt;&lt;b&gt;Chess Game&lt;/b&gt;&lt;/font&gt;" style="rounded=1;whiteSpace=wrap;html=1;shadow=1;fillColor=#E4CCFF;" parent="WIyWlLk6GJQsqaUBKTNV-1" vertex="1"><mxGeometry x="215" y="20" width="275" height="60" as="geometry"/></mxCell><mxCell id="TFEnaZEvHAxOvU5EDG9b-20" value="&lt;font data-font-src=&quot;https://fonts.googleapis.com/css?family=Montserrat&quot; face=&quot;Montserrat&quot;&gt;BACK END&lt;/font&gt;" style="rounded=1;whiteSpace=wrap;html=1;shadow=1;fillColor=#75D7F0;" parent="WIyWlLk6GJQsqaUBKTNV-1" vertex="1"><mxGeometry x="90" y="150" width="160" height="60" as="geometry"/></mxCell><mxCell id="TFEnaZEvHAxOvU5EDG9b-21" value="&lt;font data-font-src=&quot;https://fonts.googleapis.com/css?family=Montserrat&quot; face=&quot;Montserrat&quot;&gt;FRONT END / Visualisation&lt;/font&gt;" style="rounded=1;whiteSpace=wrap;html=1;shadow=1;fillColor=#FFD966;" parent="WIyWlLk6GJQsqaUBKTNV-1" vertex="1"><mxGeometry x="430" y="140" width="160" height="60" as="geometry"/></mxCell><mxCell id="TFEnaZEvHAxOvU5EDG9b-22" value="&lt;font data-font-src=&quot;https://fonts.googleapis.com/css?family=Montserrat&quot; face=&quot;Montserrat&quot;&gt;MySQL / DB&lt;/font&gt;" style="rounded=1;whiteSpace=wrap;html=1;shadow=1;fillColor=#E4CCFF;" parent="WIyWlLk6GJQsqaUBKTNV-1" vertex="1"><mxGeometry x="110" y="408" width="105" height="60" as="geometry"/></mxCell><mxCell id="TFEnaZEvHAxOvU5EDG9b-23" value="&lt;font data-font-src=&quot;https://fonts.googleapis.com/css?family=Montserrat&quot; face=&quot;Montserrat&quot;&gt;API&lt;/font&gt;" style="rounded=1;whiteSpace=wrap;html=1;shadow=1;fillColor=#E4CCFF;" parent="WIyWlLk6GJQsqaUBKTNV-1" vertex="1"><mxGeometry x="330" y="280" width="80" height="60" as="geometry"/></mxCell><mxCell id="TFEnaZEvHAxOvU5EDG9b-24" value="&lt;font data-font-src=&quot;https://fonts.googleapis.com/css?family=Montserrat&quot; face=&quot;Montserrat&quot;&gt;PYTHON&lt;/font&gt;" style="rounded=1;whiteSpace=wrap;html=1;shadow=1;fillColor=#AFF4C6;" parent="WIyWlLk6GJQsqaUBKTNV-1" vertex="1"><mxGeometry x="50" y="280" width="190" height="60" as="geometry"/></mxCell><mxCell id="TFEnaZEvHAxOvU5EDG9b-25" value="&lt;font data-font-src=&quot;https://fonts.googleapis.com/css?family=Montserrat&quot; face=&quot;Montserrat&quot;&gt;Website/On system&lt;/font&gt;" style="rounded=1;whiteSpace=wrap;html=1;shadow=1;fillColor=#FFBDF2;" parent="WIyWlLk6GJQsqaUBKTNV-1" vertex="1"><mxGeometry x="510" y="280" width="190" height="60" as="geometry"/></mxCell><mxCell id="TFEnaZEvHAxOvU5EDG9b-26" value="DB operations" style="swimlane;fontStyle=0;childLayout=stackLayout;horizontal=1;startSize=30;horizontalStack=0;resizeParent=1;resizeParentMax=0;resizeLast=0;collapsible=1;marginBottom=0;whiteSpace=wrap;html=1;rounded=1;" parent="WIyWlLk6GJQsqaUBKTNV-1" vertex="1"><mxGeometry x="80" y="520" width="150" height="150" as="geometry"/></mxCell><mxCell id="TFEnaZEvHAxOvU5EDG9b-27" value="Store game results" style="text;strokeColor=none;fillColor=none;align=left;verticalAlign=middle;spacingLeft=4;spacingRight=4;overflow=hidden;points=[[0,0.5],[1,0.5]];portConstraint=eastwest;rotatable=0;whiteSpace=wrap;html=1;" parent="TFEnaZEvHAxOvU5EDG9b-26" vertex="1"><mxGeometry y="30" width="150" height="30" as="geometry"/></mxCell><mxCell id="TFEnaZEvHAxOvU5EDG9b-28" value="Store game moves" style="text;strokeColor=none;fillColor=none;align=left;verticalAlign=middle;spacingLeft=4;spacingRight=4;overflow=hidden;points=[[0,0.5],[1,0.5]];portConstraint=eastwest;rotatable=0;whiteSpace=wrap;html=1;" parent="TFEnaZEvHAxOvU5EDG9b-26" vertex="1"><mxGeometry y="60" width="150" height="30" as="geometry"/></mxCell><mxCell id="TFEnaZEvHAxOvU5EDG9b-29" value="Store player info" style="text;strokeColor=none;fillColor=none;align=left;verticalAlign=middle;spacingLeft=4;spacingRight=4;overflow=hidden;points=[[0,0.5],[1,0.5]];portConstraint=eastwest;rotatable=0;whiteSpace=wrap;html=1;" parent="TFEnaZEvHAxOvU5EDG9b-26" vertex="1"><mxGeometry y="90" width="150" height="30" as="geometry"/></mxCell><mxCell id="TFEnaZEvHAxOvU5EDG9b-30" value="Store character info" style="text;strokeColor=none;fillColor=none;align=left;verticalAlign=middle;spacingLeft=4;spacingRight=4;overflow=hidden;points=[[0,0.5],[1,0.5]];portConstraint=eastwest;rotatable=0;whiteSpace=wrap;html=1;" parent="TFEnaZEvHAxOvU5EDG9b-26" vertex="1"><mxGeometry y="120" width="150" height="30" as="geometry"/></mxCell><mxCell id="TFEnaZEvHAxOvU5EDG9b-31" value="API operations" style="swimlane;fontStyle=0;childLayout=stackLayout;horizontal=1;startSize=30;horizontalStack=0;resizeParent=1;resizeParentMax=0;resizeLast=0;collapsible=1;marginBottom=0;whiteSpace=wrap;html=1;rounded=1;" parent="WIyWlLk6GJQsqaUBKTNV-1" vertex="1"><mxGeometry x="330" y="383" width="150" height="110" as="geometry"/></mxCell><mxCell id="TFEnaZEvHAxOvU5EDG9b-32" value="Connect DB to Python back-end code" style="text;strokeColor=none;fillColor=none;align=left;verticalAlign=middle;spacingLeft=4;spacingRight=4;overflow=hidden;points=[[0,0.5],[1,0.5]];portConstraint=eastwest;rotatable=0;whiteSpace=wrap;html=1;" parent="TFEnaZEvHAxOvU5EDG9b-31" vertex="1"><mxGeometry y="30" width="150" height="30" as="geometry"/></mxCell><mxCell id="TFEnaZEvHAxOvU5EDG9b-33" value="Connect Python to front end?" style="text;strokeColor=none;fillColor=none;align=left;verticalAlign=middle;spacingLeft=4;spacingRight=4;overflow=hidden;points=[[0,0.5],[1,0.5]];portConstraint=eastwest;rotatable=0;whiteSpace=wrap;html=1;" parent="TFEnaZEvHAxOvU5EDG9b-31" vertex="1"><mxGeometry y="60" width="150" height="50" as="geometry"/></mxCell><mxCell id="TFEnaZEvHAxOvU5EDG9b-37" value="Frontend Operations" style="swimlane;fontStyle=0;childLayout=stackLayout;horizontal=1;startSize=30;horizontalStack=0;resizeParent=1;resizeParentMax=0;resizeLast=0;collapsible=1;marginBottom=0;whiteSpace=wrap;html=1;rounded=1;arcSize=0;" parent="WIyWlLk6GJQsqaUBKTNV-1" vertex="1"><mxGeometry x="550" y="373" width="150" height="130" as="geometry"/></mxCell><mxCell id="TFEnaZEvHAxOvU5EDG9b-38" value="Use PyScript to visualise python code on a website?&lt;br&gt;&lt;br&gt;Only have chess game on desktop?" style="text;strokeColor=none;fillColor=none;align=left;verticalAlign=middle;spacingLeft=4;spacingRight=4;overflow=hidden;points=[[0,0.5],[1,0.5]];portConstraint=eastwest;rotatable=0;whiteSpace=wrap;html=1;" parent="TFEnaZEvHAxOvU5EDG9b-37" vertex="1"><mxGeometry y="30" width="150" height="100" as="geometry"/></mxCell></root></mxGraphModel></diagram></mxfile>